<svg xmlns="http://www.w3.org/2000/svg" viewBox="0 0 64 64" width="512" height="512"
     shape-rendering="geometricPrecision">
<defs>
  <!-- Lagy tonusatmenet. Szandekosan nem megy le a legsotetebb arnyekig:
       a kemeny sotet foltok a format nem terfogatosnak, hanem koszosnak
       mutatjak. A melyebb arnyekot kulon retegek adjak. -->
  <linearGradient id="h3-vol" x1="0.18" y1="0.02" x2="0.82" y2="1">
    <stop offset="0"    stop-color="#e2e2e2"/>
    <stop offset="0.30" stop-color="#bdbdbd"/>
    <stop offset="0.66" stop-color="#8f8f8f"/>
    <stop offset="1"    stop-color="#5d5d5d"/>
  </linearGradient>
  <!-- Fuggoleges valtozat. Hosszukas alakzatoknal (fej, lab) a ferde
       atmenet ugy hat, mintha sotet sapka lenne rajtuk; a felulrol jovo
       fenyhez a fuggoleges a termeszetes. -->
  <linearGradient id="h3-volV" x1="0.42" y1="0" x2="0.58" y2="1">
    <stop offset="0"    stop-color="#e2e2e2"/>
    <stop offset="0.34" stop-color="#bdbdbd"/>
    <stop offset="0.74" stop-color="#8f8f8f"/>
    <stop offset="1"    stop-color="#5d5d5d"/>
  </linearGradient>
  <linearGradient id="h3-vol2" x1="0.2" y1="0" x2="0.8" y2="1">
    <stop offset="0"    stop-color="#bdbdbd"/>
    <stop offset="0.5"  stop-color="#5d5d5d"/>
    <stop offset="1"    stop-color="#3b3b3b"/>
  </linearGradient>
  <!-- A membran a test fenyiranyat koveti: bal-felul vilagos. Forditva
       (sotet tetovel) a szarny fekete folttal ult a vilagos sarkanyon. -->
  <linearGradient id="h3-membrane" x1="0.12" y1="0" x2="0.78" y2="1">
    <stop offset="0"    stop-color="#bdbdbd"/>
    <stop offset="0.45" stop-color="#8f8f8f"/>
    <stop offset="1"    stop-color="#5d5d5d"/>
  </linearGradient>
  <radialGradient id="h3-sheen" cx="0.34" cy="0.24" r="0.95">
    <stop offset="0"    stop-color="#fbfbfb" stop-opacity="0.62"/>
    <stop offset="0.38" stop-color="#fbfbfb" stop-opacity="0.22"/>
    <stop offset="1"    stop-color="#fbfbfb" stop-opacity="0"/>
  </radialGradient>

</defs>
<g id="h3" transform="translate(26,20) scale(0.88) translate(-26,-20)"><defs><path id="h3-s0" d="M26.63,13.4C26.72,14.04 26.69,14.73 26.55,15.37C26.41,16.02 26.14,16.67 25.78,17.25C25.43,17.83 24.94,18.39 24.4,18.86C23.86,19.32 23.21,19.73 22.54,20.02C21.87,20.32 21.11,20.53 20.38,20.64C19.64,20.74 18.86,20.74 18.13,20.64C17.41,20.54 16.67,20.33 16.02,20.04C15.37,19.74 14.75,19.34 14.25,18.88C13.74,18.42 13.3,17.86 12.99,17.28C12.68,16.7 12.46,16.05 12.37,15.4C12.28,14.76 12.31,14.07 12.45,13.43C12.59,12.78 12.86,12.13 13.22,11.55C13.57,10.97 14.06,10.41 14.6,9.94C15.14,9.48 15.79,9.07 16.46,8.78C17.13,8.48 17.89,8.27 18.62,8.16C19.36,8.06 20.14,8.06 20.87,8.16C21.59,8.26 22.33,8.47 22.98,8.76C23.63,9.06 24.25,9.46 24.75,9.92C25.26,10.38 25.7,10.94 26.01,11.52C26.32,12.1 26.54,12.75 26.63,13.4Z"/><path id="h3-s1" d="M26.78,18.48C26.73,18.92 26.6,19.37 26.41,19.78C26.22,20.18 25.94,20.58 25.61,20.9C25.29,21.23 24.88,21.52 24.46,21.74C24.04,21.96 23.55,22.13 23.07,22.22C22.59,22.31 22.06,22.33 21.57,22.28C21.08,22.23 20.57,22.1 20.12,21.92C19.66,21.74 19.22,21.48 18.85,21.18C18.47,20.88 18.14,20.51 17.88,20.13C17.63,19.74 17.44,19.3 17.33,18.87C17.22,18.43 17.18,17.96 17.22,17.52C17.27,17.08 17.4,16.63 17.59,16.22C17.78,15.82 18.06,15.42 18.39,15.1C18.71,14.77 19.12,14.48 19.54,14.26C19.96,14.04 20.45,13.87 20.93,13.78C21.41,13.69 21.94,13.67 22.43,13.72C22.92,13.77 23.43,13.9 23.88,14.08C24.34,14.26 24.78,14.52 25.15,14.82C25.53,15.12 25.86,15.49 26.12,15.87C26.37,16.26 26.56,16.7 26.67,17.13C26.78,17.57 26.82,18.04 26.78,18.48Z"/><path id="h3-s2" d="M14.77,9.6C14.14,9.53 14,9.69 13.62,9.76C13.25,9.84 12.89,9.95 12.52,10.06C12.16,10.16 11.79,10.29 11.43,10.39C11.06,10.5 10.69,10.61 10.33,10.67C9.96,10.74 9.59,10.75 9.21,10.8C8.84,10.86 8.46,10.89 8.09,11C7.71,11.11 7.33,11.28 6.95,11.45C6.57,11.61 6.19,11.81 5.8,11.98C5.41,12.15 5.02,12.33 4.63,12.45C4.23,12.57 3.84,12.59 3.43,12.71C3.03,12.82 2.56,12.89 2.21,13.12C1.86,13.35 1.54,13.72 1.36,14.1C1.17,14.47 1.08,14.95 1.11,15.37C1.13,15.78 1.29,16.24 1.52,16.59C1.75,16.94 2.12,17.26 2.5,17.44C2.87,17.63 3.36,17.64 3.77,17.69C4.17,17.75 4.56,17.71 4.94,17.79C5.33,17.86 5.7,18.01 6.08,18.14C6.45,18.28 6.82,18.45 7.19,18.59C7.56,18.73 7.92,18.89 8.29,18.97C8.66,19.06 9.02,19.08 9.39,19.12C9.75,19.16 10.12,19.15 10.5,19.21C10.87,19.26 11.25,19.36 11.63,19.44C12.02,19.53 12.41,19.64 12.8,19.72C13.2,19.8 13.61,19.89 14.01,19.94C14.42,19.99 14.6,20.12 15.23,20C15.86,19.87 17.06,19.65 17.79,19.19C18.53,18.72 19.21,17.97 19.61,17.2C20.01,16.43 20.23,15.44 20.2,14.57C20.16,13.71 19.85,12.74 19.39,12.01C18.92,11.27 18.17,10.59 17.4,10.19C16.63,9.79 15.4,9.68 14.77,9.6Z"/><clipPath id="h3-clip"><use href="#h3-s0" /><use href="#h3-s1" /><use href="#h3-s2" /></clipPath><mask id="h3-rim" maskUnits="userSpaceOnUse" x="0" y="0" width="64" height="64"><rect width="64" height="64" fill="#000"/><use href="#h3-s0" fill="#fff"/><use href="#h3-s1" fill="#fff"/><use href="#h3-s2" fill="#fff"/><g transform="translate(1.9,2.4)"><use href="#h3-s0" fill="#000"/><use href="#h3-s1" fill="#000"/><use href="#h3-s2" fill="#000"/></g></mask><mask id="h3-core" maskUnits="userSpaceOnUse" x="0" y="0" width="64" height="64"><rect width="64" height="64" fill="#000"/><use href="#h3-s0" fill="#fff"/><use href="#h3-s1" fill="#fff"/><use href="#h3-s2" fill="#fff"/><g transform="translate(-3.2,-4)"><use href="#h3-s0" fill="#000"/><use href="#h3-s1" fill="#000"/><use href="#h3-s2" fill="#000"/></g></mask></defs><defs><path id="h3-jaw-s0" d="M21.66,18.27C21.19,18.58 20.89,19.01 20.53,19.36C20.16,19.72 19.84,20.05 19.46,20.38C19.09,20.7 18.7,21.04 18.28,21.32C17.86,21.61 17.4,21.84 16.94,22.08C16.49,22.32 16.01,22.52 15.53,22.74C15.06,22.96 14.58,23.19 14.09,23.39C13.6,23.59 13.1,23.79 12.59,23.93C12.08,24.07 11.55,24.15 11.03,24.24C10.5,24.33 9.98,24.39 9.45,24.49C8.92,24.58 8.38,24.72 7.84,24.8C7.3,24.88 6.75,24.97 6.19,24.96C5.63,24.95 4.89,24.77 4.5,24.73C4.11,24.7 4.03,24.69 3.83,24.75C3.62,24.82 3.4,24.95 3.25,25.11C3.11,25.27 2.98,25.49 2.93,25.7C2.89,25.91 2.89,26.17 2.95,26.37C3.02,26.58 3.15,26.8 3.31,26.95C3.47,27.09 3.51,27.11 3.9,27.27C4.29,27.42 5.05,27.65 5.65,27.85C6.26,28.06 6.88,28.31 7.52,28.49C8.16,28.67 8.81,28.85 9.47,28.94C10.13,29.03 10.8,29.03 11.46,29.02C12.13,29 12.79,28.91 13.45,28.85C14.12,28.78 14.79,28.72 15.46,28.62C16.12,28.51 16.8,28.4 17.45,28.23C18.1,28.05 18.74,27.81 19.37,27.57C20,27.33 20.61,27.04 21.23,26.76C21.84,26.49 22.47,26.22 23.07,25.9C23.68,25.59 24.31,25.24 24.85,24.88C25.4,24.52 25.92,24.18 26.34,23.73C26.77,23.28 27.2,22.76 27.4,22.19C27.6,21.63 27.65,20.93 27.54,20.34C27.43,19.75 27.12,19.11 26.73,18.66C26.34,18.2 25.76,17.8 25.19,17.6C24.63,17.4 23.93,17.35 23.34,17.46C22.75,17.57 22.12,17.95 21.66,18.27Z"/><clipPath id="h3-jaw-clip"><use href="#h3-jaw-s0" /></clipPath><mask id="h3-jaw-rim" maskUnits="userSpaceOnUse" x="0" y="0" width="64" height="64"><rect width="64" height="64" fill="#000"/><use href="#h3-jaw-s0" fill="#fff"/><g transform="translate(1.9,2.4)"><use href="#h3-jaw-s0" fill="#000"/></g></mask><mask id="h3-jaw-core" maskUnits="userSpaceOnUse" x="0" y="0" width="64" height="64"><rect width="64" height="64" fill="#000"/><use href="#h3-jaw-s0" fill="#fff"/><g transform="translate(-3.2,-4)"><use href="#h3-jaw-s0" fill="#000"/></g></mask></defs><use href="#h3-jaw-s0" fill="#101010" stroke="#101010" stroke-width="1.8" stroke-linejoin="round" stroke-linecap="round"/><use href="#h3-jaw-s0" fill="#5d5d5d"/><g clip-path="url(#h3-jaw-clip)"><g transform="translate(3.4,4.0)" opacity="0.26"><use href="#h3-jaw-s0" fill="#3b3b3b"/></g><g transform="translate(6.6,7.6)" opacity="0.13"><use href="#h3-jaw-s0" fill="#101010"/></g></g><g mask="url(#h3-jaw-core)" opacity="0.2"><rect width="64" height="64" fill="#101010"/></g><g mask="url(#h3-jaw-rim)" opacity="0.52"><rect width="64" height="64" fill="#fbfbfb"/></g><g clip-path="url(#h3-jaw-clip)"></g><path d="M12.15,9.2Q16.5,-0.6 20,1.8Q17.2,2 13.85,9.9ZM15.66,8.7Q20.6,-0.1 24.6,2.3Q21.3,2.5 17.54,9.4ZM19.17,8.2Q24.7,0.4 29.2,2.8Q25.4,3 21.23,8.9ZM22.68,7.7Q28.8,0.9 33.8,3.3Q29.5,3.5 24.92,8.4ZM26.19,7.2Q32.9,1.4 38.4,3.8Q33.6,4 28.61,7.9Z" fill="#bdbdbd" stroke="#101010" stroke-width="1.5" stroke-linejoin="round"/><use href="#h3-s0" fill="#101010" stroke="#101010" stroke-width="2.1" stroke-linejoin="round" stroke-linecap="round"/><use href="#h3-s1" fill="#101010" stroke="#101010" stroke-width="2.1" stroke-linejoin="round" stroke-linecap="round"/><use href="#h3-s2" fill="#101010" stroke="#101010" stroke-width="2.1" stroke-linejoin="round" stroke-linecap="round"/><use href="#h3-s0" fill="url(#h3-vol)"/><use href="#h3-s1" fill="url(#h3-vol)"/><use href="#h3-s2" fill="url(#h3-vol)"/><g clip-path="url(#h3-clip)"><g transform="translate(3.4,4.0)" opacity="0.26"><use href="#h3-s0" fill="#3b3b3b"/><use href="#h3-s1" fill="#3b3b3b"/><use href="#h3-s2" fill="#3b3b3b"/></g><g transform="translate(6.6,7.6)" opacity="0.13"><use href="#h3-s0" fill="#101010"/><use href="#h3-s1" fill="#101010"/><use href="#h3-s2" fill="#101010"/></g></g><g mask="url(#h3-core)" opacity="0.2"><rect width="64" height="64" fill="#101010"/></g><g mask="url(#h3-rim)" opacity="0.52"><rect width="64" height="64" fill="#fbfbfb"/></g><g clip-path="url(#h3-clip)"><ellipse cx="15.2" cy="14.3" rx="4.2" ry="3.4" fill="#3b3b3b" opacity="0.45"/><path d="M23.13,14.68C23.2,15.18 23.19,15.72 23.09,16.22C23,16.72 22.81,17.23 22.56,17.67C22.3,18.12 21.96,18.56 21.57,18.91C21.19,19.27 20.72,19.58 20.24,19.8C19.76,20.03 19.21,20.19 18.69,20.27C18.16,20.34 17.59,20.34 17.07,20.25C16.54,20.17 16.01,20 15.54,19.76C15.07,19.53 14.62,19.21 14.25,18.85C13.88,18.48 13.56,18.05 13.33,17.59C13.1,17.14 12.94,16.62 12.87,16.12C12.8,15.62 12.81,15.08 12.91,14.58C13,14.08 13.19,13.57 13.44,13.13C13.7,12.68 14.04,12.24 14.43,11.89C14.81,11.53 15.28,11.22 15.76,11C16.24,10.77 16.79,10.61 17.31,10.53C17.84,10.46 18.41,10.46 18.93,10.55C19.46,10.63 19.99,10.8 20.46,11.04C20.93,11.27 21.38,11.59 21.75,11.95C22.12,12.32 22.44,12.75 22.67,13.21C22.9,13.66 23.06,14.18 23.13,14.68Z" fill="none" stroke="#3b3b3b" stroke-width="0.7" opacity="0.3"/><path d="M4.6,17.6Q9.3,19.4 21,19.4" fill="none" stroke="#3b3b3b" stroke-width="0.9" opacity="0.55" stroke-linecap="round"/><path d="M15.5,17.4q2,1.6 4,0m-1,2.4q2,1.4 4,0" fill="none" stroke="#3b3b3b" stroke-width="0.55" opacity="0.4"/></g><path d="M4.4,18.2L5.2,22L6,18.2ZM6.76,18.2L7.56,21.72L8.36,18.2ZM9.12,18.2L9.92,21.44L10.72,18.2ZM11.48,18.2L12.28,21.16L13.08,18.2ZM13.84,18.2L14.64,20.88L15.44,18.2ZM16.2,18.2L17,20.6L17.8,18.2ZM5.7,23.8L6.4,21.2L7.1,23.8ZM8.65,23.8L9.35,21.2L10.05,23.8ZM11.6,23.8L12.3,21.2L13,23.8ZM14.55,23.8L15.25,21.2L15.95,23.8ZM17.5,23.8L18.2,21.2L18.9,23.8Z" fill="#fbfbfb" stroke="#101010" stroke-width="0.45"/><path d="M20,10.4Q14.2,7.6 9.8,11.8Q14.4,10.4 19.2,12.6Z" fill="#bdbdbd" opacity="0.75"/><path d="M19.6,11.2Q14.3,8.6 10.2,12.2" fill="none" stroke="#101010" stroke-width="0.7" opacity="0.7" stroke-linecap="round"/><g><ellipse cx="14.6" cy="13.8" rx="1.54" ry="1.28" fill="#fbfbfb" stroke="#101010" stroke-width="0.6"/><ellipse cx="14.25" cy="13.8" rx="0.38" ry="1.1" fill="#101010"/><circle cx="13.96" cy="13.22" r="0.36" fill="#fbfbfb"/></g><ellipse cx="5" cy="14.6" rx="1" ry="0.75" fill="#101010" opacity="0.75"/></g>
</svg>