<svg xmlns="http://www.w3.org/2000/svg" viewBox="0 0 64 64" width="512" height="512"
     shape-rendering="geometricPrecision">
<defs>
  <!-- Lagy tonusatmenet. Szandekosan nem megy le a legsotetebb arnyekig:
       a kemeny sotet foltok a format nem terfogatosnak, hanem koszosnak
       mutatjak. A melyebb arnyekot kulon retegek adjak. -->
  <linearGradient id="l15-vol" x1="0.18" y1="0.02" x2="0.82" y2="1">
    <stop offset="0"    stop-color="#e2e2e2"/>
    <stop offset="0.30" stop-color="#bdbdbd"/>
    <stop offset="0.66" stop-color="#8f8f8f"/>
    <stop offset="1"    stop-color="#5d5d5d"/>
  </linearGradient>
  <!-- Fuggoleges valtozat. Hosszukas alakzatoknal (fej, lab) a ferde
       atmenet ugy hat, mintha sotet sapka lenne rajtuk; a felulrol jovo
       fenyhez a fuggoleges a termeszetes. -->
  <linearGradient id="l15-volV" x1="0.42" y1="0" x2="0.58" y2="1">
    <stop offset="0"    stop-color="#e2e2e2"/>
    <stop offset="0.34" stop-color="#bdbdbd"/>
    <stop offset="0.74" stop-color="#8f8f8f"/>
    <stop offset="1"    stop-color="#5d5d5d"/>
  </linearGradient>
  <linearGradient id="l15-vol2" x1="0.2" y1="0" x2="0.8" y2="1">
    <stop offset="0"    stop-color="#bdbdbd"/>
    <stop offset="0.5"  stop-color="#5d5d5d"/>
    <stop offset="1"    stop-color="#3b3b3b"/>
  </linearGradient>
  <!-- A membran a test fenyiranyat koveti: bal-felul vilagos. Forditva
       (sotet tetovel) a szarny fekete folttal ult a vilagos sarkanyon. -->
  <linearGradient id="l15-membrane" x1="0.12" y1="0" x2="0.78" y2="1">
    <stop offset="0"    stop-color="#bdbdbd"/>
    <stop offset="0.45" stop-color="#8f8f8f"/>
    <stop offset="1"    stop-color="#5d5d5d"/>
  </linearGradient>
  <radialGradient id="l15-sheen" cx="0.34" cy="0.24" r="0.95">
    <stop offset="0"    stop-color="#fbfbfb" stop-opacity="0.62"/>
    <stop offset="0.38" stop-color="#fbfbfb" stop-opacity="0.22"/>
    <stop offset="1"    stop-color="#fbfbfb" stop-opacity="0"/>
  </radialGradient>

</defs>
<g id="l15"><defs><clipPath id="l15-far-clip"><path d="M44.13,38.73C44.19,39.3 44.17,39.92 44.07,40.48C43.98,41.04 43.8,41.61 43.56,42.11C43.32,42.61 42.99,43.08 42.63,43.45C42.27,43.83 41.84,44.16 41.4,44.38C40.95,44.61 40.45,44.75 39.96,44.8C39.48,44.85 38.95,44.81 38.47,44.68C37.99,44.54 37.5,44.31 37.08,44.01C36.65,43.71 36.24,43.32 35.91,42.88C35.57,42.44 35.28,41.92 35.08,41.38C34.87,40.85 34.73,40.25 34.67,39.67C34.61,39.1 34.63,38.48 34.73,37.92C34.82,37.36 35,36.79 35.24,36.29C35.48,35.79 35.81,35.32 36.17,34.95C36.53,34.57 36.96,34.24 37.4,34.02C37.85,33.79 38.35,33.65 38.84,33.6C39.32,33.55 39.85,33.59 40.33,33.72C40.81,33.86 41.3,34.09 41.72,34.39C42.15,34.69 42.56,35.08 42.89,35.52C43.23,35.96 43.52,36.48 43.72,37.02C43.93,37.55 44.07,38.15 44.13,38.73Z"/><path d="M36.54,38.78C36.39,39.08 36.5,39 36.47,39.14C36.44,39.29 36.41,39.45 36.38,39.66C36.34,39.86 36.3,40.11 36.25,40.37C36.21,40.62 36.16,40.91 36.11,41.21C36.07,41.5 36.02,41.82 35.98,42.14C35.94,42.47 35.9,42.81 35.87,43.15C35.85,43.5 35.82,43.85 35.81,44.22C35.8,44.58 35.79,44.95 35.82,45.33C35.84,45.7 35.88,46.07 35.94,46.44C36,46.81 36.09,47.18 36.18,47.55C36.27,47.91 36.37,48.28 36.48,48.64C36.58,48.99 36.7,49.35 36.81,49.69C36.92,50.03 37.04,50.36 37.14,50.66C37.25,50.97 37.36,51.27 37.45,51.52C37.54,51.78 37.62,52.01 37.69,52.21C37.75,52.41 37.7,52.44 37.84,52.71C37.98,52.97 38.21,53.51 38.51,53.79C38.81,54.07 39.23,54.3 39.63,54.4C40.03,54.49 40.51,54.48 40.91,54.36C41.3,54.24 41.71,53.99 41.99,53.69C42.27,53.39 42.5,52.97 42.6,52.57C42.69,52.17 42.59,51.6 42.56,51.29C42.53,50.99 42.46,50.94 42.4,50.73C42.33,50.51 42.25,50.24 42.17,49.98C42.08,49.71 41.99,49.42 41.91,49.13C41.82,48.83 41.73,48.52 41.64,48.21C41.55,47.91 41.47,47.59 41.39,47.28C41.32,46.98 41.24,46.68 41.18,46.4C41.13,46.13 41.08,45.86 41.04,45.63C41.01,45.41 40.99,45.25 40.98,45.07C40.98,44.9 40.99,44.77 41.02,44.59C41.05,44.42 41.1,44.22 41.16,44.02C41.22,43.82 41.3,43.6 41.38,43.39C41.47,43.17 41.56,42.96 41.66,42.74C41.76,42.53 41.86,42.32 41.96,42.11C42.06,41.9 42.16,41.7 42.25,41.5C42.34,41.3 42.44,41.09 42.5,40.91C42.57,40.73 42.63,40.77 42.66,40.42C42.69,40.06 42.8,39.29 42.66,38.78C42.52,38.27 42.21,37.73 41.84,37.36C41.46,36.98 40.93,36.68 40.42,36.54C39.91,36.4 39.29,36.4 38.78,36.54C38.27,36.68 37.73,36.99 37.36,37.36C36.98,37.74 36.69,38.49 36.54,38.78Z"/><path d="M38.34,51.31C38.27,51.6 38.32,51.65 38.33,51.85C38.33,52.06 38.36,52.32 38.37,52.54C38.38,52.75 38.4,52.98 38.4,53.16C38.4,53.35 38.4,53.54 38.39,53.65C38.39,53.76 38.36,53.83 38.39,53.82C38.42,53.81 38.55,53.63 38.6,53.58C38.64,53.53 38.72,53.5 38.65,53.52C38.58,53.54 38.37,53.63 38.15,53.69C37.94,53.76 37.64,53.83 37.36,53.89C37.08,53.94 36.77,54 36.48,54.05C36.19,54.1 35.88,54.14 35.64,54.19C35.39,54.23 35.3,54.2 35.02,54.3C34.74,54.4 34.26,54.55 33.98,54.78C33.69,55.02 33.44,55.38 33.32,55.72C33.19,56.07 33.15,56.5 33.22,56.87C33.28,57.23 33.46,57.62 33.7,57.91C33.94,58.19 34.29,58.44 34.64,58.57C34.98,58.7 35.5,58.67 35.78,58.67C36.06,58.67 36.08,58.62 36.3,58.59C36.53,58.56 36.81,58.54 37.12,58.5C37.43,58.47 37.8,58.43 38.16,58.37C38.53,58.32 38.92,58.26 39.31,58.16C39.71,58.07 40.11,57.99 40.52,57.79C40.94,57.6 41.44,57.34 41.8,56.99C42.17,56.64 42.5,56.1 42.71,55.68C42.92,55.25 42.99,54.83 43.07,54.44C43.15,54.06 43.17,53.7 43.2,53.37C43.23,53.05 43.23,52.73 43.23,52.48C43.24,52.23 43.23,52.02 43.24,51.85C43.24,51.69 43.31,51.76 43.26,51.49C43.22,51.22 43.17,50.61 42.98,50.25C42.79,49.88 42.46,49.53 42.11,49.31C41.76,49.09 41.3,48.95 40.89,48.94C40.48,48.92 40.01,49.03 39.65,49.22C39.28,49.41 38.93,49.74 38.71,50.09C38.49,50.44 38.4,51.02 38.34,51.31Z"/><path d="M58.86,40.14C58.74,40.71 58.54,41.29 58.28,41.8C58.03,42.31 57.69,42.81 57.31,43.21C56.93,43.61 56.49,43.96 56.03,44.22C55.58,44.48 55.07,44.66 54.58,44.74C54.08,44.82 53.56,44.82 53.08,44.72C52.6,44.62 52.12,44.43 51.7,44.16C51.28,43.89 50.88,43.52 50.56,43.11C50.24,42.7 49.96,42.2 49.77,41.68C49.59,41.16 49.46,40.58 49.42,40.01C49.39,39.44 49.43,38.82 49.54,38.26C49.66,37.69 49.86,37.11 50.12,36.6C50.37,36.09 50.71,35.59 51.09,35.19C51.47,34.79 51.91,34.44 52.37,34.18C52.82,33.92 53.33,33.74 53.82,33.66C54.32,33.58 54.84,33.58 55.32,33.68C55.8,33.78 56.28,33.97 56.7,34.24C57.12,34.51 57.52,34.88 57.84,35.29C58.16,35.7 58.44,36.2 58.63,36.72C58.81,37.24 58.94,37.82 58.98,38.39C59.01,38.96 58.97,39.58 58.86,40.14Z"/><path d="M51.07,37.69C50.82,37.92 50.95,37.88 50.86,38.02C50.76,38.16 50.64,38.33 50.49,38.54C50.34,38.75 50.14,39.01 49.94,39.29C49.75,39.57 49.53,39.87 49.32,40.2C49.11,40.53 48.89,40.88 48.69,41.25C48.49,41.63 48.28,42.02 48.11,42.45C47.95,42.89 47.77,43.35 47.69,43.87C47.61,44.38 47.57,45 47.63,45.53C47.7,46.07 47.9,46.6 48.09,47.07C48.29,47.54 48.55,47.95 48.81,48.35C49.07,48.76 49.36,49.14 49.66,49.51C49.95,49.88 50.26,50.24 50.56,50.58C50.86,50.93 51.18,51.26 51.46,51.57C51.74,51.87 52.03,52.17 52.27,52.42C52.51,52.68 52.73,52.9 52.9,53.09C53.07,53.29 53.06,53.37 53.31,53.58C53.55,53.78 53.96,54.17 54.35,54.31C54.73,54.45 55.21,54.5 55.62,54.43C56.02,54.36 56.46,54.16 56.78,53.89C57.09,53.63 57.37,53.24 57.51,52.85C57.65,52.47 57.7,51.99 57.63,51.58C57.56,51.18 57.26,50.71 57.09,50.42C56.93,50.13 56.81,50.06 56.61,49.84C56.42,49.62 56.18,49.35 55.94,49.08C55.7,48.81 55.44,48.52 55.18,48.22C54.93,47.93 54.66,47.62 54.41,47.32C54.17,47.01 53.91,46.7 53.7,46.41C53.49,46.13 53.29,45.83 53.14,45.6C53,45.36 52.89,45.13 52.82,45C52.76,44.88 52.77,44.88 52.77,44.87C52.76,44.86 52.77,44.97 52.8,44.94C52.84,44.92 52.88,44.83 52.97,44.71C53.05,44.6 53.18,44.44 53.33,44.28C53.48,44.12 53.67,43.93 53.85,43.75C54.04,43.57 54.26,43.37 54.46,43.19C54.67,43 54.89,42.81 55.1,42.62C55.3,42.43 55.53,42.21 55.7,42.03C55.88,41.84 55.96,41.85 56.13,41.51C56.3,41.17 56.68,40.51 56.74,39.99C56.81,39.46 56.72,38.85 56.52,38.36C56.31,37.88 55.93,37.39 55.51,37.07C55.09,36.75 54.51,36.52 53.99,36.46C53.46,36.39 52.85,36.48 52.36,36.68C51.88,36.89 51.32,37.47 51.07,37.69Z"/><path d="M53.34,51.31C53.27,51.6 53.32,51.65 53.33,51.85C53.33,52.06 53.36,52.32 53.37,52.54C53.38,52.75 53.4,52.98 53.4,53.16C53.4,53.35 53.4,53.54 53.39,53.65C53.39,53.76 53.36,53.83 53.39,53.82C53.42,53.81 53.55,53.63 53.6,53.58C53.64,53.53 53.72,53.5 53.65,53.52C53.58,53.54 53.37,53.63 53.15,53.69C52.94,53.76 52.64,53.83 52.36,53.89C52.08,53.94 51.77,54 51.48,54.05C51.19,54.1 50.88,54.14 50.64,54.19C50.39,54.23 50.3,54.2 50.02,54.3C49.74,54.4 49.26,54.55 48.98,54.78C48.69,55.02 48.44,55.38 48.32,55.72C48.19,56.07 48.15,56.5 48.22,56.87C48.28,57.23 48.46,57.62 48.7,57.91C48.94,58.19 49.29,58.44 49.64,58.57C49.98,58.7 50.5,58.67 50.78,58.67C51.06,58.67 51.08,58.62 51.3,58.59C51.53,58.56 51.81,58.54 52.12,58.5C52.43,58.47 52.8,58.43 53.16,58.37C53.53,58.32 53.92,58.26 54.31,58.16C54.71,58.07 55.11,57.99 55.52,57.79C55.94,57.6 56.44,57.34 56.8,56.99C57.17,56.64 57.5,56.1 57.71,55.68C57.92,55.25 57.99,54.83 58.07,54.44C58.15,54.06 58.17,53.7 58.2,53.37C58.23,53.05 58.23,52.73 58.23,52.48C58.24,52.23 58.23,52.02 58.24,51.85C58.24,51.69 58.31,51.76 58.26,51.49C58.22,51.22 58.17,50.61 57.98,50.25C57.79,49.88 57.46,49.53 57.11,49.31C56.76,49.09 56.3,48.95 55.89,48.94C55.48,48.92 55.01,49.03 54.65,49.22C54.28,49.41 53.93,49.74 53.71,50.09C53.49,50.44 53.4,51.02 53.34,51.31Z"/></clipPath></defs><g opacity="0.78"><path d="M44.13,38.73C44.19,39.3 44.17,39.92 44.07,40.48C43.98,41.04 43.8,41.61 43.56,42.11C43.32,42.61 42.99,43.08 42.63,43.45C42.27,43.83 41.84,44.16 41.4,44.38C40.95,44.61 40.45,44.75 39.96,44.8C39.48,44.85 38.95,44.81 38.47,44.68C37.99,44.54 37.5,44.31 37.08,44.01C36.65,43.71 36.24,43.32 35.91,42.88C35.57,42.44 35.28,41.92 35.08,41.38C34.87,40.85 34.73,40.25 34.67,39.67C34.61,39.1 34.63,38.48 34.73,37.92C34.82,37.36 35,36.79 35.24,36.29C35.48,35.79 35.81,35.32 36.17,34.95C36.53,34.57 36.96,34.24 37.4,34.02C37.85,33.79 38.35,33.65 38.84,33.6C39.32,33.55 39.85,33.59 40.33,33.72C40.81,33.86 41.3,34.09 41.72,34.39C42.15,34.69 42.56,35.08 42.89,35.52C43.23,35.96 43.52,36.48 43.72,37.02C43.93,37.55 44.07,38.15 44.13,38.73Z" fill="#101010" stroke="#101010" stroke-width="1.7" stroke-linejoin="round" stroke-linecap="round"/><path d="M36.54,38.78C36.39,39.08 36.5,39 36.47,39.14C36.44,39.29 36.41,39.45 36.38,39.66C36.34,39.86 36.3,40.11 36.25,40.37C36.21,40.62 36.16,40.91 36.11,41.21C36.07,41.5 36.02,41.82 35.98,42.14C35.94,42.47 35.9,42.81 35.87,43.15C35.85,43.5 35.82,43.85 35.81,44.22C35.8,44.58 35.79,44.95 35.82,45.33C35.84,45.7 35.88,46.07 35.94,46.44C36,46.81 36.09,47.18 36.18,47.55C36.27,47.91 36.37,48.28 36.48,48.64C36.58,48.99 36.7,49.35 36.81,49.69C36.92,50.03 37.04,50.36 37.14,50.66C37.25,50.97 37.36,51.27 37.45,51.52C37.54,51.78 37.62,52.01 37.69,52.21C37.75,52.41 37.7,52.44 37.84,52.71C37.98,52.97 38.21,53.51 38.51,53.79C38.81,54.07 39.23,54.3 39.63,54.4C40.03,54.49 40.51,54.48 40.91,54.36C41.3,54.24 41.71,53.99 41.99,53.69C42.27,53.39 42.5,52.97 42.6,52.57C42.69,52.17 42.59,51.6 42.56,51.29C42.53,50.99 42.46,50.94 42.4,50.73C42.33,50.51 42.25,50.24 42.17,49.98C42.08,49.71 41.99,49.42 41.91,49.13C41.82,48.83 41.73,48.52 41.64,48.21C41.55,47.91 41.47,47.59 41.39,47.28C41.32,46.98 41.24,46.68 41.18,46.4C41.13,46.13 41.08,45.86 41.04,45.63C41.01,45.41 40.99,45.25 40.98,45.07C40.98,44.9 40.99,44.77 41.02,44.59C41.05,44.42 41.1,44.22 41.16,44.02C41.22,43.82 41.3,43.6 41.38,43.39C41.47,43.17 41.56,42.96 41.66,42.74C41.76,42.53 41.86,42.32 41.96,42.11C42.06,41.9 42.16,41.7 42.25,41.5C42.34,41.3 42.44,41.09 42.5,40.91C42.57,40.73 42.63,40.77 42.66,40.42C42.69,40.06 42.8,39.29 42.66,38.78C42.52,38.27 42.21,37.73 41.84,37.36C41.46,36.98 40.93,36.68 40.42,36.54C39.91,36.4 39.29,36.4 38.78,36.54C38.27,36.68 37.73,36.99 37.36,37.36C36.98,37.74 36.69,38.49 36.54,38.78Z" fill="#101010" stroke="#101010" stroke-width="1.7" stroke-linejoin="round" stroke-linecap="round"/><path d="M38.34,51.31C38.27,51.6 38.32,51.65 38.33,51.85C38.33,52.06 38.36,52.32 38.37,52.54C38.38,52.75 38.4,52.98 38.4,53.16C38.4,53.35 38.4,53.54 38.39,53.65C38.39,53.76 38.36,53.83 38.39,53.82C38.42,53.81 38.55,53.63 38.6,53.58C38.64,53.53 38.72,53.5 38.65,53.52C38.58,53.54 38.37,53.63 38.15,53.69C37.94,53.76 37.64,53.83 37.36,53.89C37.08,53.94 36.77,54 36.48,54.05C36.19,54.1 35.88,54.14 35.64,54.19C35.39,54.23 35.3,54.2 35.02,54.3C34.74,54.4 34.26,54.55 33.98,54.78C33.69,55.02 33.44,55.38 33.32,55.72C33.19,56.07 33.15,56.5 33.22,56.87C33.28,57.23 33.46,57.62 33.7,57.91C33.94,58.19 34.29,58.44 34.64,58.57C34.98,58.7 35.5,58.67 35.78,58.67C36.06,58.67 36.08,58.62 36.3,58.59C36.53,58.56 36.81,58.54 37.12,58.5C37.43,58.47 37.8,58.43 38.16,58.37C38.53,58.32 38.92,58.26 39.31,58.16C39.71,58.07 40.11,57.99 40.52,57.79C40.94,57.6 41.44,57.34 41.8,56.99C42.17,56.64 42.5,56.1 42.71,55.68C42.92,55.25 42.99,54.83 43.07,54.44C43.15,54.06 43.17,53.7 43.2,53.37C43.23,53.05 43.23,52.73 43.23,52.48C43.24,52.23 43.23,52.02 43.24,51.85C43.24,51.69 43.31,51.76 43.26,51.49C43.22,51.22 43.17,50.61 42.98,50.25C42.79,49.88 42.46,49.53 42.11,49.31C41.76,49.09 41.3,48.95 40.89,48.94C40.48,48.92 40.01,49.03 39.65,49.22C39.28,49.41 38.93,49.74 38.71,50.09C38.49,50.44 38.4,51.02 38.34,51.31Z" fill="#101010" stroke="#101010" stroke-width="1.7" stroke-linejoin="round" stroke-linecap="round"/><path d="M58.86,40.14C58.74,40.71 58.54,41.29 58.28,41.8C58.03,42.31 57.69,42.81 57.31,43.21C56.93,43.61 56.49,43.96 56.03,44.22C55.58,44.48 55.07,44.66 54.58,44.74C54.08,44.82 53.56,44.82 53.08,44.72C52.6,44.62 52.12,44.43 51.7,44.16C51.28,43.89 50.88,43.52 50.56,43.11C50.24,42.7 49.96,42.2 49.77,41.68C49.59,41.16 49.46,40.58 49.42,40.01C49.39,39.44 49.43,38.82 49.54,38.26C49.66,37.69 49.86,37.11 50.12,36.6C50.37,36.09 50.71,35.59 51.09,35.19C51.47,34.79 51.91,34.44 52.37,34.18C52.82,33.92 53.33,33.74 53.82,33.66C54.32,33.58 54.84,33.58 55.32,33.68C55.8,33.78 56.28,33.97 56.7,34.24C57.12,34.51 57.52,34.88 57.84,35.29C58.16,35.7 58.44,36.2 58.63,36.72C58.81,37.24 58.94,37.82 58.98,38.39C59.01,38.96 58.97,39.58 58.86,40.14Z" fill="#101010" stroke="#101010" stroke-width="1.7" stroke-linejoin="round" stroke-linecap="round"/><path d="M51.07,37.69C50.82,37.92 50.95,37.88 50.86,38.02C50.76,38.16 50.64,38.33 50.49,38.54C50.34,38.75 50.14,39.01 49.94,39.29C49.75,39.57 49.53,39.87 49.32,40.2C49.11,40.53 48.89,40.88 48.69,41.25C48.49,41.63 48.28,42.02 48.11,42.45C47.95,42.89 47.77,43.35 47.69,43.87C47.61,44.38 47.57,45 47.63,45.53C47.7,46.07 47.9,46.6 48.09,47.07C48.29,47.54 48.55,47.95 48.81,48.35C49.07,48.76 49.36,49.14 49.66,49.51C49.95,49.88 50.26,50.24 50.56,50.58C50.86,50.93 51.18,51.26 51.46,51.57C51.74,51.87 52.03,52.17 52.27,52.42C52.51,52.68 52.73,52.9 52.9,53.09C53.07,53.29 53.06,53.37 53.31,53.58C53.55,53.78 53.96,54.17 54.35,54.31C54.73,54.45 55.21,54.5 55.62,54.43C56.02,54.36 56.46,54.16 56.78,53.89C57.09,53.63 57.37,53.24 57.51,52.85C57.65,52.47 57.7,51.99 57.63,51.58C57.56,51.18 57.26,50.71 57.09,50.42C56.93,50.13 56.81,50.06 56.61,49.84C56.42,49.62 56.18,49.35 55.94,49.08C55.7,48.81 55.44,48.52 55.18,48.22C54.93,47.93 54.66,47.62 54.41,47.32C54.17,47.01 53.91,46.7 53.7,46.41C53.49,46.13 53.29,45.83 53.14,45.6C53,45.36 52.89,45.13 52.82,45C52.76,44.88 52.77,44.88 52.77,44.87C52.76,44.86 52.77,44.97 52.8,44.94C52.84,44.92 52.88,44.83 52.97,44.71C53.05,44.6 53.18,44.44 53.33,44.28C53.48,44.12 53.67,43.93 53.85,43.75C54.04,43.57 54.26,43.37 54.46,43.19C54.67,43 54.89,42.81 55.1,42.62C55.3,42.43 55.53,42.21 55.7,42.03C55.88,41.84 55.96,41.85 56.13,41.51C56.3,41.17 56.68,40.51 56.74,39.99C56.81,39.46 56.72,38.85 56.52,38.36C56.31,37.88 55.93,37.39 55.51,37.07C55.09,36.75 54.51,36.52 53.99,36.46C53.46,36.39 52.85,36.48 52.36,36.68C51.88,36.89 51.32,37.47 51.07,37.69Z" fill="#101010" stroke="#101010" stroke-width="1.7" stroke-linejoin="round" stroke-linecap="round"/><path d="M53.34,51.31C53.27,51.6 53.32,51.65 53.33,51.85C53.33,52.06 53.36,52.32 53.37,52.54C53.38,52.75 53.4,52.98 53.4,53.16C53.4,53.35 53.4,53.54 53.39,53.65C53.39,53.76 53.36,53.83 53.39,53.82C53.42,53.81 53.55,53.63 53.6,53.58C53.64,53.53 53.72,53.5 53.65,53.52C53.58,53.54 53.37,53.63 53.15,53.69C52.94,53.76 52.64,53.83 52.36,53.89C52.08,53.94 51.77,54 51.48,54.05C51.19,54.1 50.88,54.14 50.64,54.19C50.39,54.23 50.3,54.2 50.02,54.3C49.74,54.4 49.26,54.55 48.98,54.78C48.69,55.02 48.44,55.38 48.32,55.72C48.19,56.07 48.15,56.5 48.22,56.87C48.28,57.23 48.46,57.62 48.7,57.91C48.94,58.19 49.29,58.44 49.64,58.57C49.98,58.7 50.5,58.67 50.78,58.67C51.06,58.67 51.08,58.62 51.3,58.59C51.53,58.56 51.81,58.54 52.12,58.5C52.43,58.47 52.8,58.43 53.16,58.37C53.53,58.32 53.92,58.26 54.31,58.16C54.71,58.07 55.11,57.99 55.52,57.79C55.94,57.6 56.44,57.34 56.8,56.99C57.17,56.64 57.5,56.1 57.71,55.68C57.92,55.25 57.99,54.83 58.07,54.44C58.15,54.06 58.17,53.7 58.2,53.37C58.23,53.05 58.23,52.73 58.23,52.48C58.24,52.23 58.23,52.02 58.24,51.85C58.24,51.69 58.31,51.76 58.26,51.49C58.22,51.22 58.17,50.61 57.98,50.25C57.79,49.88 57.46,49.53 57.11,49.31C56.76,49.09 56.3,48.95 55.89,48.94C55.48,48.92 55.01,49.03 54.65,49.22C54.28,49.41 53.93,49.74 53.71,50.09C53.49,50.44 53.4,51.02 53.34,51.31Z" fill="#101010" stroke="#101010" stroke-width="1.7" stroke-linejoin="round" stroke-linecap="round"/><path d="M44.13,38.73C44.19,39.3 44.17,39.92 44.07,40.48C43.98,41.04 43.8,41.61 43.56,42.11C43.32,42.61 42.99,43.08 42.63,43.45C42.27,43.83 41.84,44.16 41.4,44.38C40.95,44.61 40.45,44.75 39.96,44.8C39.48,44.85 38.95,44.81 38.47,44.68C37.99,44.54 37.5,44.31 37.08,44.01C36.65,43.71 36.24,43.32 35.91,42.88C35.57,42.44 35.28,41.92 35.08,41.38C34.87,40.85 34.73,40.25 34.67,39.67C34.61,39.1 34.63,38.48 34.73,37.92C34.82,37.36 35,36.79 35.24,36.29C35.48,35.79 35.81,35.32 36.17,34.95C36.53,34.57 36.96,34.24 37.4,34.02C37.85,33.79 38.35,33.65 38.84,33.6C39.32,33.55 39.85,33.59 40.33,33.72C40.81,33.86 41.3,34.09 41.72,34.39C42.15,34.69 42.56,35.08 42.89,35.52C43.23,35.96 43.52,36.48 43.72,37.02C43.93,37.55 44.07,38.15 44.13,38.73Z" fill="#5d5d5d"/><path d="M36.54,38.78C36.39,39.08 36.5,39 36.47,39.14C36.44,39.29 36.41,39.45 36.38,39.66C36.34,39.86 36.3,40.11 36.25,40.37C36.21,40.62 36.16,40.91 36.11,41.21C36.07,41.5 36.02,41.82 35.98,42.14C35.94,42.47 35.9,42.81 35.87,43.15C35.85,43.5 35.82,43.85 35.81,44.22C35.8,44.58 35.79,44.95 35.82,45.33C35.84,45.7 35.88,46.07 35.94,46.44C36,46.81 36.09,47.18 36.18,47.55C36.27,47.91 36.37,48.28 36.48,48.64C36.58,48.99 36.7,49.35 36.81,49.69C36.92,50.03 37.04,50.36 37.14,50.66C37.25,50.97 37.36,51.27 37.45,51.52C37.54,51.78 37.62,52.01 37.69,52.21C37.75,52.41 37.7,52.44 37.84,52.71C37.98,52.97 38.21,53.51 38.51,53.79C38.81,54.07 39.23,54.3 39.63,54.4C40.03,54.49 40.51,54.48 40.91,54.36C41.3,54.24 41.71,53.99 41.99,53.69C42.27,53.39 42.5,52.97 42.6,52.57C42.69,52.17 42.59,51.6 42.56,51.29C42.53,50.99 42.46,50.94 42.4,50.73C42.33,50.51 42.25,50.24 42.17,49.98C42.08,49.71 41.99,49.42 41.91,49.13C41.82,48.83 41.73,48.52 41.64,48.21C41.55,47.91 41.47,47.59 41.39,47.28C41.32,46.98 41.24,46.68 41.18,46.4C41.13,46.13 41.08,45.86 41.04,45.63C41.01,45.41 40.99,45.25 40.98,45.07C40.98,44.9 40.99,44.77 41.02,44.59C41.05,44.42 41.1,44.22 41.16,44.02C41.22,43.82 41.3,43.6 41.38,43.39C41.47,43.17 41.56,42.96 41.66,42.74C41.76,42.53 41.86,42.32 41.96,42.11C42.06,41.9 42.16,41.7 42.25,41.5C42.34,41.3 42.44,41.09 42.5,40.91C42.57,40.73 42.63,40.77 42.66,40.42C42.69,40.06 42.8,39.29 42.66,38.78C42.52,38.27 42.21,37.73 41.84,37.36C41.46,36.98 40.93,36.68 40.42,36.54C39.91,36.4 39.29,36.4 38.78,36.54C38.27,36.68 37.73,36.99 37.36,37.36C36.98,37.74 36.69,38.49 36.54,38.78Z" fill="#5d5d5d"/><path d="M38.34,51.31C38.27,51.6 38.32,51.65 38.33,51.85C38.33,52.06 38.36,52.32 38.37,52.54C38.38,52.75 38.4,52.98 38.4,53.16C38.4,53.35 38.4,53.54 38.39,53.65C38.39,53.76 38.36,53.83 38.39,53.82C38.42,53.81 38.55,53.63 38.6,53.58C38.64,53.53 38.72,53.5 38.65,53.52C38.58,53.54 38.37,53.63 38.15,53.69C37.94,53.76 37.64,53.83 37.36,53.89C37.08,53.94 36.77,54 36.48,54.05C36.19,54.1 35.88,54.14 35.64,54.19C35.39,54.23 35.3,54.2 35.02,54.3C34.74,54.4 34.26,54.55 33.98,54.78C33.69,55.02 33.44,55.38 33.32,55.72C33.19,56.07 33.15,56.5 33.22,56.87C33.28,57.23 33.46,57.62 33.7,57.91C33.94,58.19 34.29,58.44 34.64,58.57C34.98,58.7 35.5,58.67 35.78,58.67C36.06,58.67 36.08,58.62 36.3,58.59C36.53,58.56 36.81,58.54 37.12,58.5C37.43,58.47 37.8,58.43 38.16,58.37C38.53,58.32 38.92,58.26 39.31,58.16C39.71,58.07 40.11,57.99 40.52,57.79C40.94,57.6 41.44,57.34 41.8,56.99C42.17,56.64 42.5,56.1 42.71,55.68C42.92,55.25 42.99,54.83 43.07,54.44C43.15,54.06 43.17,53.7 43.2,53.37C43.23,53.05 43.23,52.73 43.23,52.48C43.24,52.23 43.23,52.02 43.24,51.85C43.24,51.69 43.31,51.76 43.26,51.49C43.22,51.22 43.17,50.61 42.98,50.25C42.79,49.88 42.46,49.53 42.11,49.31C41.76,49.09 41.3,48.95 40.89,48.94C40.48,48.92 40.01,49.03 39.65,49.22C39.28,49.41 38.93,49.74 38.71,50.09C38.49,50.44 38.4,51.02 38.34,51.31Z" fill="#5d5d5d"/><path d="M58.86,40.14C58.74,40.71 58.54,41.29 58.28,41.8C58.03,42.31 57.69,42.81 57.31,43.21C56.93,43.61 56.49,43.96 56.03,44.22C55.58,44.48 55.07,44.66 54.58,44.74C54.08,44.82 53.56,44.82 53.08,44.72C52.6,44.62 52.12,44.43 51.7,44.16C51.28,43.89 50.88,43.52 50.56,43.11C50.24,42.7 49.96,42.2 49.77,41.68C49.59,41.16 49.46,40.58 49.42,40.01C49.39,39.44 49.43,38.82 49.54,38.26C49.66,37.69 49.86,37.11 50.12,36.6C50.37,36.09 50.71,35.59 51.09,35.19C51.47,34.79 51.91,34.44 52.37,34.18C52.82,33.92 53.33,33.74 53.82,33.66C54.32,33.58 54.84,33.58 55.32,33.68C55.8,33.78 56.28,33.97 56.7,34.24C57.12,34.51 57.52,34.88 57.84,35.29C58.16,35.7 58.44,36.2 58.63,36.72C58.81,37.24 58.94,37.82 58.98,38.39C59.01,38.96 58.97,39.58 58.86,40.14Z" fill="#5d5d5d"/><path d="M51.07,37.69C50.82,37.92 50.95,37.88 50.86,38.02C50.76,38.16 50.64,38.33 50.49,38.54C50.34,38.75 50.14,39.01 49.94,39.29C49.75,39.57 49.53,39.87 49.32,40.2C49.11,40.53 48.89,40.88 48.69,41.25C48.49,41.63 48.28,42.02 48.11,42.45C47.95,42.89 47.77,43.35 47.69,43.87C47.61,44.38 47.57,45 47.63,45.53C47.7,46.07 47.9,46.6 48.09,47.07C48.29,47.54 48.55,47.95 48.81,48.35C49.07,48.76 49.36,49.14 49.66,49.51C49.95,49.88 50.26,50.24 50.56,50.58C50.86,50.93 51.18,51.26 51.46,51.57C51.74,51.87 52.03,52.17 52.27,52.42C52.51,52.68 52.73,52.9 52.9,53.09C53.07,53.29 53.06,53.37 53.31,53.58C53.55,53.78 53.96,54.17 54.35,54.31C54.73,54.45 55.21,54.5 55.62,54.43C56.02,54.36 56.46,54.16 56.78,53.89C57.09,53.63 57.37,53.24 57.51,52.85C57.65,52.47 57.7,51.99 57.63,51.58C57.56,51.18 57.26,50.71 57.09,50.42C56.93,50.13 56.81,50.06 56.61,49.84C56.42,49.62 56.18,49.35 55.94,49.08C55.7,48.81 55.44,48.52 55.18,48.22C54.93,47.93 54.66,47.62 54.41,47.32C54.17,47.01 53.91,46.7 53.7,46.41C53.49,46.13 53.29,45.83 53.14,45.6C53,45.36 52.89,45.13 52.82,45C52.76,44.88 52.77,44.88 52.77,44.87C52.76,44.86 52.77,44.97 52.8,44.94C52.84,44.92 52.88,44.83 52.97,44.71C53.05,44.6 53.18,44.44 53.33,44.28C53.48,44.12 53.67,43.93 53.85,43.75C54.04,43.57 54.26,43.37 54.46,43.19C54.67,43 54.89,42.81 55.1,42.62C55.3,42.43 55.53,42.21 55.7,42.03C55.88,41.84 55.96,41.85 56.13,41.51C56.3,41.17 56.68,40.51 56.74,39.99C56.81,39.46 56.72,38.85 56.52,38.36C56.31,37.88 55.93,37.39 55.51,37.07C55.09,36.75 54.51,36.52 53.99,36.46C53.46,36.39 52.85,36.48 52.36,36.68C51.88,36.89 51.32,37.47 51.07,37.69Z" fill="#5d5d5d"/><path d="M53.34,51.31C53.27,51.6 53.32,51.65 53.33,51.85C53.33,52.06 53.36,52.32 53.37,52.54C53.38,52.75 53.4,52.98 53.4,53.16C53.4,53.35 53.4,53.54 53.39,53.65C53.39,53.76 53.36,53.83 53.39,53.82C53.42,53.81 53.55,53.63 53.6,53.58C53.64,53.53 53.72,53.5 53.65,53.52C53.58,53.54 53.37,53.63 53.15,53.69C52.94,53.76 52.64,53.83 52.36,53.89C52.08,53.94 51.77,54 51.48,54.05C51.19,54.1 50.88,54.14 50.64,54.19C50.39,54.23 50.3,54.2 50.02,54.3C49.74,54.4 49.26,54.55 48.98,54.78C48.69,55.02 48.44,55.38 48.32,55.72C48.19,56.07 48.15,56.5 48.22,56.87C48.28,57.23 48.46,57.62 48.7,57.91C48.94,58.19 49.29,58.44 49.64,58.57C49.98,58.7 50.5,58.67 50.78,58.67C51.06,58.67 51.08,58.62 51.3,58.59C51.53,58.56 51.81,58.54 52.12,58.5C52.43,58.47 52.8,58.43 53.16,58.37C53.53,58.32 53.92,58.26 54.31,58.16C54.71,58.07 55.11,57.99 55.52,57.79C55.94,57.6 56.44,57.34 56.8,56.99C57.17,56.64 57.5,56.1 57.71,55.68C57.92,55.25 57.99,54.83 58.07,54.44C58.15,54.06 58.17,53.7 58.2,53.37C58.23,53.05 58.23,52.73 58.23,52.48C58.24,52.23 58.23,52.02 58.24,51.85C58.24,51.69 58.31,51.76 58.26,51.49C58.22,51.22 58.17,50.61 57.98,50.25C57.79,49.88 57.46,49.53 57.11,49.31C56.76,49.09 56.3,48.95 55.89,48.94C55.48,48.92 55.01,49.03 54.65,49.22C54.28,49.41 53.93,49.74 53.71,50.09C53.49,50.44 53.4,51.02 53.34,51.31Z" fill="#5d5d5d"/><g opacity="0.7"><path d="M35.66,55Q33.67,55.67 33.4,58.19Q34.37,56.42 36.74,56.17Z" fill="#101010" stroke="#101010" stroke-width="0.7" stroke-linejoin="round" stroke-linecap="round"/><path d="M35.66,55Q33.67,55.67 33.4,58.19Q34.37,56.42 36.74,56.17Z" fill="#fbfbfb"/><path d="M37.56,55.3Q35.57,55.97 35.3,58.49Q36.27,56.72 38.64,56.47Z" fill="#101010" stroke="#101010" stroke-width="0.7" stroke-linejoin="round" stroke-linecap="round"/><path d="M37.56,55.3Q35.57,55.97 35.3,58.49Q36.27,56.72 38.64,56.47Z" fill="#fbfbfb"/><path d="M39.46,55Q37.47,55.67 37.2,58.19Q38.17,56.42 40.54,56.17Z" fill="#101010" stroke="#101010" stroke-width="0.7" stroke-linejoin="round" stroke-linecap="round"/><path d="M39.46,55Q37.47,55.67 37.2,58.19Q38.17,56.42 40.54,56.17Z" fill="#fbfbfb"/><path d="M40.84,47.2Q42.03,45.45 43.56,44.16Q41.41,44.63 39.88,45.92Z" fill="#101010" stroke="#101010" stroke-width="0.9" stroke-linejoin="round" stroke-linecap="round"/><path d="M40.84,47.2Q42.03,45.45 43.56,44.16Q41.41,44.63 39.88,45.92Z" fill="#bdbdbd"/><path d="M41.38,49.24Q42.57,47.49 44.1,46.2Q41.95,46.67 40.42,47.96Z" fill="#101010" stroke="#101010" stroke-width="0.9" stroke-linejoin="round" stroke-linecap="round"/><path d="M41.38,49.24Q42.57,47.49 44.1,46.2Q41.95,46.67 40.42,47.96Z" fill="#bdbdbd"/><path d="M41.92,51.28Q43.11,49.53 44.64,48.24Q42.49,48.71 40.96,50Z" fill="#101010" stroke="#101010" stroke-width="0.9" stroke-linejoin="round" stroke-linecap="round"/><path d="M41.92,51.28Q43.11,49.53 44.64,48.24Q42.49,48.71 40.96,50Z" fill="#bdbdbd"/><path d="M43.59,39.41Q44.91,37.46 46.6,36Q44.17,36.42 42.41,37.79Z" fill="#101010" stroke="#101010" stroke-width="0.9" stroke-linejoin="round" stroke-linecap="round"/><path d="M43.59,39.41Q44.91,37.46 46.6,36Q44.17,36.42 42.41,37.79Z" fill="#bdbdbd"/><path d="M50.66,55Q48.67,55.67 48.4,58.19Q49.37,56.42 51.74,56.17Z" fill="#101010" stroke="#101010" stroke-width="0.7" stroke-linejoin="round" stroke-linecap="round"/><path d="M50.66,55Q48.67,55.67 48.4,58.19Q49.37,56.42 51.74,56.17Z" fill="#fbfbfb"/><path d="M52.56,55.3Q50.57,55.97 50.3,58.49Q51.27,56.72 53.64,56.47Z" fill="#101010" stroke="#101010" stroke-width="0.7" stroke-linejoin="round" stroke-linecap="round"/><path d="M52.56,55.3Q50.57,55.97 50.3,58.49Q51.27,56.72 53.64,56.47Z" fill="#fbfbfb"/><path d="M54.46,55Q52.47,55.67 52.2,58.19Q53.17,56.42 55.54,56.17Z" fill="#101010" stroke="#101010" stroke-width="0.7" stroke-linejoin="round" stroke-linecap="round"/><path d="M54.46,55Q52.47,55.67 52.2,58.19Q53.17,56.42 55.54,56.17Z" fill="#fbfbfb"/><path d="M53.28,47.2Q54.47,45.45 56,44.16Q53.85,44.63 52.32,45.92Z" fill="#101010" stroke="#101010" stroke-width="0.9" stroke-linejoin="round" stroke-linecap="round"/><path d="M53.28,47.2Q54.47,45.45 56,44.16Q53.85,44.63 52.32,45.92Z" fill="#bdbdbd"/><path d="M54.78,49.24Q55.97,47.49 57.5,46.2Q55.35,46.67 53.82,47.96Z" fill="#101010" stroke="#101010" stroke-width="0.9" stroke-linejoin="round" stroke-linecap="round"/><path d="M54.78,49.24Q55.97,47.49 57.5,46.2Q55.35,46.67 53.82,47.96Z" fill="#bdbdbd"/><path d="M56.28,51.28Q57.47,49.53 59,48.24Q56.85,48.71 55.32,50Z" fill="#101010" stroke="#101010" stroke-width="0.9" stroke-linejoin="round" stroke-linecap="round"/><path d="M56.28,51.28Q57.47,49.53 59,48.24Q56.85,48.71 55.32,50Z" fill="#bdbdbd"/><path d="M57.59,39.41Q58.91,37.46 60.6,36Q58.17,36.42 56.41,37.79Z" fill="#101010" stroke="#101010" stroke-width="0.9" stroke-linejoin="round" stroke-linecap="round"/><path d="M57.59,39.41Q58.91,37.46 60.6,36Q58.17,36.42 56.41,37.79Z" fill="#bdbdbd"/></g></g><defs><path id="l15-s0" d="M41.17,40.06C41.24,40.72 41.22,41.41 41.11,42.06C41,42.7 40.79,43.34 40.52,43.91C40.25,44.47 39.88,45 39.48,45.43C39.07,45.87 38.57,46.23 38.07,46.49C37.56,46.75 36.99,46.91 36.44,46.97C35.89,47.02 35.29,46.97 34.75,46.82C34.2,46.67 33.65,46.41 33.16,46.07C32.67,45.73 32.21,45.28 31.83,44.78C31.45,44.28 31.12,43.69 30.89,43.08C30.65,42.47 30.49,41.8 30.43,41.14C30.36,40.48 30.38,39.79 30.49,39.14C30.6,38.5 30.81,37.86 31.08,37.29C31.35,36.73 31.72,36.2 32.12,35.77C32.53,35.33 33.03,34.97 33.53,34.71C34.04,34.45 34.61,34.29 35.16,34.23C35.71,34.18 36.31,34.23 36.85,34.38C37.4,34.53 37.95,34.79 38.44,35.13C38.93,35.47 39.39,35.92 39.77,36.42C40.15,36.92 40.48,37.51 40.71,38.12C40.95,38.73 41.11,39.4 41.17,40.06Z"/><path id="l15-s1" d="M32.52,40.07C32.36,40.4 32.48,40.28 32.46,40.42C32.43,40.56 32.41,40.73 32.38,40.93C32.35,41.13 32.3,41.38 32.26,41.65C32.22,41.91 32.18,42.2 32.14,42.5C32.09,42.81 32.05,43.13 32.01,43.46C31.98,43.79 31.94,44.14 31.91,44.49C31.89,44.85 31.86,45.21 31.85,45.59C31.85,45.96 31.84,46.36 31.86,46.74C31.89,47.13 31.93,47.52 32,47.9C32.06,48.28 32.15,48.66 32.24,49.03C32.33,49.4 32.44,49.77 32.54,50.13C32.65,50.49 32.77,50.85 32.88,51.19C32.99,51.53 33.11,51.86 33.22,52.17C33.33,52.48 33.43,52.77 33.52,53.03C33.62,53.29 33.7,53.51 33.76,53.71C33.83,53.91 33.77,53.91 33.92,54.2C34.07,54.49 34.34,55.12 34.68,55.44C35.02,55.76 35.5,56.02 35.95,56.12C36.41,56.23 36.96,56.22 37.4,56.08C37.85,55.95 38.32,55.66 38.64,55.32C38.96,54.98 39.22,54.5 39.32,54.05C39.43,53.59 39.32,52.93 39.28,52.6C39.25,52.26 39.18,52.25 39.12,52.02C39.05,51.8 38.97,51.54 38.89,51.27C38.81,51 38.72,50.71 38.63,50.42C38.55,50.13 38.45,49.82 38.37,49.51C38.29,49.21 38.2,48.89 38.13,48.59C38.05,48.29 37.98,47.99 37.93,47.72C37.87,47.45 37.82,47.19 37.79,46.98C37.76,46.77 37.74,46.62 37.74,46.46C37.73,46.3 37.74,46.18 37.78,46.02C37.81,45.86 37.86,45.67 37.92,45.48C37.98,45.29 38.07,45.08 38.15,44.87C38.24,44.67 38.34,44.45 38.44,44.25C38.54,44.04 38.65,43.83 38.75,43.63C38.85,43.42 38.96,43.23 39.05,43.03C39.14,42.83 39.24,42.61 39.32,42.43C39.39,42.24 39.45,42.32 39.48,41.93C39.51,41.53 39.63,40.64 39.48,40.06C39.32,39.49 38.97,38.88 38.54,38.45C38.12,38.03 37.51,37.68 36.93,37.52C36.35,37.37 35.64,37.37 35.06,37.52C34.49,37.68 33.88,38.03 33.45,38.46C33.03,38.88 32.69,39.74 32.52,40.07Z"/><path id="l15-s2" d="M34.4,52.67C34.33,52.98 34.39,52.98 34.39,53.15C34.4,53.32 34.42,53.53 34.44,53.69C34.45,53.84 34.46,53.98 34.47,54.07C34.48,54.16 34.48,54.24 34.5,54.25C34.52,54.25 34.53,54.18 34.61,54.09C34.68,54 34.9,53.77 34.97,53.7C35.04,53.63 35.1,53.63 35.02,53.65C34.94,53.68 34.7,53.77 34.48,53.84C34.25,53.9 33.95,53.98 33.67,54.05C33.38,54.11 33.06,54.18 32.77,54.23C32.49,54.29 32.18,54.35 31.94,54.4C31.69,54.45 31.62,54.41 31.32,54.53C31.03,54.64 30.47,54.82 30.15,55.09C29.83,55.37 29.56,55.78 29.42,56.17C29.28,56.57 29.25,57.06 29.33,57.48C29.4,57.89 29.62,58.33 29.89,58.65C30.17,58.97 30.58,59.24 30.97,59.38C31.37,59.52 31.97,59.47 32.28,59.47C32.58,59.48 32.58,59.42 32.81,59.38C33.03,59.35 33.32,59.32 33.63,59.28C33.93,59.23 34.3,59.19 34.66,59.13C35.02,59.07 35.4,59.01 35.79,58.92C36.17,58.83 36.55,58.75 36.96,58.58C37.37,58.41 37.84,58.22 38.23,57.9C38.62,57.58 39.04,57.07 39.29,56.65C39.55,56.23 39.66,55.78 39.77,55.4C39.87,55.02 39.89,54.68 39.93,54.38C39.96,54.08 39.96,53.81 39.96,53.6C39.97,53.4 39.97,53.26 39.97,53.15C39.98,53.04 40.04,53.21 40,52.93C39.95,52.66 39.9,51.93 39.69,51.52C39.48,51.1 39.11,50.7 38.71,50.45C38.32,50.19 37.8,50.03 37.33,50C36.87,49.98 36.33,50.1 35.92,50.31C35.5,50.52 35.1,50.89 34.85,51.29C34.59,51.68 34.48,52.36 34.4,52.67Z"/><path id="l15-s3" d="M55.89,41.67C55.76,42.32 55.53,42.98 55.24,43.56C54.95,44.14 54.56,44.7 54.13,45.15C53.71,45.61 53.2,46.01 52.68,46.31C52.16,46.6 51.59,46.8 51.03,46.9C50.47,46.99 49.87,46.98 49.33,46.87C48.78,46.76 48.23,46.54 47.76,46.23C47.28,45.93 46.82,45.51 46.46,45.04C46.1,44.57 45.79,44.01 45.57,43.42C45.36,42.83 45.22,42.17 45.17,41.52C45.13,40.87 45.18,40.17 45.31,39.53C45.44,38.88 45.67,38.22 45.96,37.64C46.25,37.06 46.64,36.5 47.07,36.05C47.49,35.59 48,35.19 48.52,34.89C49.04,34.6 49.61,34.4 50.17,34.3C50.73,34.21 51.33,34.22 51.87,34.33C52.42,34.44 52.97,34.66 53.44,34.97C53.92,35.27 54.38,35.69 54.74,36.16C55.1,36.63 55.41,37.19 55.63,37.78C55.84,38.37 55.98,39.03 56.03,39.68C56.07,40.33 56.02,41.03 55.89,41.67Z"/><path id="l15-s4" d="M47.13,38.83C46.85,39.08 47.02,39.01 46.93,39.15C46.83,39.29 46.72,39.45 46.58,39.66C46.43,39.87 46.23,40.14 46.04,40.42C45.84,40.71 45.62,41.02 45.41,41.36C45.2,41.7 44.98,42.06 44.77,42.45C44.57,42.84 44.35,43.24 44.18,43.7C44.01,44.16 43.82,44.65 43.74,45.19C43.66,45.74 43.61,46.41 43.68,46.98C43.76,47.55 43.96,48.12 44.17,48.62C44.37,49.11 44.65,49.52 44.91,49.94C45.18,50.36 45.48,50.74 45.78,51.12C46.08,51.5 46.4,51.86 46.7,52.21C47,52.55 47.32,52.89 47.61,53.2C47.89,53.5 48.18,53.8 48.42,54.05C48.66,54.31 48.88,54.53 49.05,54.72C49.22,54.91 49.18,54.97 49.45,55.19C49.71,55.41 50.19,55.87 50.63,56.03C51.07,56.19 51.61,56.24 52.07,56.16C52.53,56.08 53.03,55.85 53.39,55.55C53.75,55.25 54.07,54.81 54.23,54.37C54.39,53.93 54.44,53.39 54.36,52.93C54.28,52.47 53.93,51.93 53.75,51.61C53.57,51.29 53.46,51.24 53.27,51.02C53.07,50.79 52.83,50.52 52.59,50.25C52.35,49.98 52.09,49.69 51.84,49.39C51.59,49.1 51.32,48.79 51.08,48.49C50.83,48.19 50.59,47.88 50.38,47.6C50.17,47.32 49.98,47.03 49.84,46.81C49.7,46.59 49.6,46.36 49.55,46.26C49.49,46.17 49.51,46.2 49.52,46.22C49.52,46.25 49.52,46.41 49.55,46.41C49.58,46.42 49.62,46.36 49.7,46.27C49.78,46.18 49.9,46.03 50.05,45.88C50.19,45.74 50.38,45.56 50.56,45.39C50.75,45.22 50.97,45.03 51.17,44.85C51.38,44.67 51.6,44.49 51.81,44.3C52.02,44.11 52.26,43.89 52.43,43.7C52.61,43.51 52.68,43.54 52.87,43.17C53.06,42.79 53.5,42.04 53.57,41.44C53.65,40.85 53.55,40.15 53.31,39.6C53.08,39.04 52.65,38.49 52.17,38.13C51.69,37.76 51.04,37.5 50.44,37.43C49.85,37.35 49.15,37.45 48.6,37.69C48.04,37.92 47.4,38.59 47.13,38.83Z"/><path id="l15-s5" d="M49.4,52.67C49.33,52.98 49.39,52.98 49.39,53.15C49.4,53.32 49.42,53.53 49.44,53.69C49.45,53.84 49.46,53.98 49.47,54.07C49.48,54.16 49.48,54.24 49.5,54.25C49.52,54.25 49.53,54.18 49.61,54.09C49.68,54 49.9,53.77 49.97,53.7C50.04,53.63 50.1,53.63 50.02,53.65C49.94,53.68 49.7,53.77 49.48,53.84C49.25,53.9 48.95,53.98 48.67,54.05C48.38,54.11 48.06,54.18 47.77,54.23C47.49,54.29 47.18,54.35 46.94,54.4C46.69,54.45 46.62,54.41 46.32,54.53C46.03,54.64 45.47,54.82 45.15,55.09C44.83,55.37 44.56,55.78 44.42,56.17C44.28,56.57 44.25,57.06 44.33,57.48C44.4,57.89 44.62,58.33 44.89,58.65C45.17,58.97 45.58,59.24 45.97,59.38C46.37,59.52 46.97,59.47 47.28,59.47C47.58,59.48 47.58,59.42 47.81,59.38C48.03,59.35 48.32,59.32 48.63,59.28C48.93,59.23 49.3,59.19 49.66,59.13C50.02,59.07 50.4,59.01 50.79,58.92C51.17,58.83 51.55,58.75 51.96,58.58C52.37,58.41 52.84,58.22 53.23,57.9C53.62,57.58 54.04,57.07 54.29,56.65C54.55,56.23 54.66,55.78 54.77,55.4C54.87,55.02 54.89,54.68 54.93,54.38C54.96,54.08 54.96,53.81 54.96,53.6C54.97,53.4 54.97,53.26 54.97,53.15C54.98,53.04 55.04,53.21 55,52.93C54.95,52.66 54.9,51.93 54.69,51.52C54.48,51.1 54.11,50.7 53.71,50.45C53.32,50.19 52.8,50.03 52.33,50C51.87,49.98 51.33,50.1 50.92,50.31C50.5,50.52 50.1,50.89 49.85,51.29C49.59,51.68 49.48,52.36 49.4,52.67Z"/><clipPath id="l15-clip"><use href="#l15-s0" /><use href="#l15-s1" /><use href="#l15-s2" /><use href="#l15-s3" /><use href="#l15-s4" /><use href="#l15-s5" /></clipPath><mask id="l15-rim" maskUnits="userSpaceOnUse" x="0" y="0" width="64" height="64"><rect width="64" height="64" fill="#000"/><use href="#l15-s0" fill="#fff"/><use href="#l15-s1" fill="#fff"/><use href="#l15-s2" fill="#fff"/><use href="#l15-s3" fill="#fff"/><use href="#l15-s4" fill="#fff"/><use href="#l15-s5" fill="#fff"/><g transform="translate(1.9,2.4)"><use href="#l15-s0" fill="#000"/><use href="#l15-s1" fill="#000"/><use href="#l15-s2" fill="#000"/><use href="#l15-s3" fill="#000"/><use href="#l15-s4" fill="#000"/><use href="#l15-s5" fill="#000"/></g></mask><mask id="l15-core" maskUnits="userSpaceOnUse" x="0" y="0" width="64" height="64"><rect width="64" height="64" fill="#000"/><use href="#l15-s0" fill="#fff"/><use href="#l15-s1" fill="#fff"/><use href="#l15-s2" fill="#fff"/><use href="#l15-s3" fill="#fff"/><use href="#l15-s4" fill="#fff"/><use href="#l15-s5" fill="#fff"/><g transform="translate(-3.2,-4)"><use href="#l15-s0" fill="#000"/><use href="#l15-s1" fill="#000"/><use href="#l15-s2" fill="#000"/><use href="#l15-s3" fill="#000"/><use href="#l15-s4" fill="#000"/><use href="#l15-s5" fill="#000"/></g></mask></defs><use href="#l15-s0" fill="#101010" stroke="#101010" stroke-width="1.9" stroke-linejoin="round" stroke-linecap="round"/><use href="#l15-s1" fill="#101010" stroke="#101010" stroke-width="1.9" stroke-linejoin="round" stroke-linecap="round"/><use href="#l15-s2" fill="#101010" stroke="#101010" stroke-width="1.9" stroke-linejoin="round" stroke-linecap="round"/><use href="#l15-s3" fill="#101010" stroke="#101010" stroke-width="1.9" stroke-linejoin="round" stroke-linecap="round"/><use href="#l15-s4" fill="#101010" stroke="#101010" stroke-width="1.9" stroke-linejoin="round" stroke-linecap="round"/><use href="#l15-s5" fill="#101010" stroke="#101010" stroke-width="1.9" stroke-linejoin="round" stroke-linecap="round"/><use href="#l15-s0" fill="url(#l15-volV)"/><use href="#l15-s1" fill="url(#l15-volV)"/><use href="#l15-s2" fill="url(#l15-volV)"/><use href="#l15-s3" fill="url(#l15-volV)"/><use href="#l15-s4" fill="url(#l15-volV)"/><use href="#l15-s5" fill="url(#l15-volV)"/><g clip-path="url(#l15-clip)"><g transform="translate(3.4,4.0)" opacity="0.26"><use href="#l15-s0" fill="#3b3b3b"/><use href="#l15-s1" fill="#3b3b3b"/><use href="#l15-s2" fill="#3b3b3b"/><use href="#l15-s3" fill="#3b3b3b"/><use href="#l15-s4" fill="#3b3b3b"/><use href="#l15-s5" fill="#3b3b3b"/></g><g transform="translate(6.6,7.6)" opacity="0.13"><use href="#l15-s0" fill="#101010"/><use href="#l15-s1" fill="#101010"/><use href="#l15-s2" fill="#101010"/><use href="#l15-s3" fill="#101010"/><use href="#l15-s4" fill="#101010"/><use href="#l15-s5" fill="#101010"/></g></g><g mask="url(#l15-core)" opacity="0.2"><rect width="64" height="64" fill="#101010"/></g><g mask="url(#l15-rim)" opacity="0.52"><rect width="64" height="64" fill="#fbfbfb"/></g><g clip-path="url(#l15-clip)"><path d="M32.2,46.6q2.6,1.6 5.2,-0.4" fill="none" stroke="#3b3b3b" stroke-width="0.7" opacity="0.4" stroke-linecap="round" stroke-linejoin="round"/><path d="M44,46.6q2.6,1.6 5.2,-0.4" fill="none" stroke="#3b3b3b" stroke-width="0.7" opacity="0.4" stroke-linecap="round" stroke-linejoin="round"/></g><path d="M32.06,55.51Q30.07,56.18 29.8,58.7Q30.77,56.94 33.14,56.69Z" fill="#101010" stroke="#101010" stroke-width="0.7" stroke-linejoin="round" stroke-linecap="round"/><path d="M32.06,55.51Q30.07,56.18 29.8,58.7Q30.77,56.94 33.14,56.69Z" fill="#fbfbfb"/><path d="M33.96,55.81Q31.97,56.48 31.7,59Q32.67,57.24 35.04,56.99Z" fill="#101010" stroke="#101010" stroke-width="0.7" stroke-linejoin="round" stroke-linecap="round"/><path d="M33.96,55.81Q31.97,56.48 31.7,59Q32.67,57.24 35.04,56.99Z" fill="#fbfbfb"/><path d="M35.86,55.51Q33.87,56.18 33.6,58.7Q34.57,56.94 36.94,56.69Z" fill="#101010" stroke="#101010" stroke-width="0.7" stroke-linejoin="round" stroke-linecap="round"/><path d="M35.86,55.51Q33.87,56.18 33.6,58.7Q34.57,56.94 36.94,56.69Z" fill="#fbfbfb"/><path d="M37.24,48.6Q38.43,46.85 39.96,45.56Q37.81,46.03 36.28,47.32Z" fill="#101010" stroke="#101010" stroke-width="0.9" stroke-linejoin="round" stroke-linecap="round"/><path d="M37.24,48.6Q38.43,46.85 39.96,45.56Q37.81,46.03 36.28,47.32Z" fill="#bdbdbd"/><path d="M37.78,50.64Q38.97,48.89 40.5,47.6Q38.35,48.07 36.82,49.36Z" fill="#101010" stroke="#101010" stroke-width="0.9" stroke-linejoin="round" stroke-linecap="round"/><path d="M37.78,50.64Q38.97,48.89 40.5,47.6Q38.35,48.07 36.82,49.36Z" fill="#bdbdbd"/><path d="M38.32,52.68Q39.51,50.93 41.04,49.64Q38.89,50.11 37.36,51.4Z" fill="#101010" stroke="#101010" stroke-width="0.9" stroke-linejoin="round" stroke-linecap="round"/><path d="M38.32,52.68Q39.51,50.93 41.04,49.64Q38.89,50.11 37.36,51.4Z" fill="#bdbdbd"/><path d="M39.99,40.81Q41.31,38.86 43,37.4Q40.57,37.82 38.81,39.19Z" fill="#101010" stroke="#101010" stroke-width="0.9" stroke-linejoin="round" stroke-linecap="round"/><path d="M39.99,40.81Q41.31,38.86 43,37.4Q40.57,37.82 38.81,39.19Z" fill="#bdbdbd"/><path d="M47.06,55.51Q45.07,56.18 44.8,58.7Q45.77,56.94 48.14,56.69Z" fill="#101010" stroke="#101010" stroke-width="0.7" stroke-linejoin="round" stroke-linecap="round"/><path d="M47.06,55.51Q45.07,56.18 44.8,58.7Q45.77,56.94 48.14,56.69Z" fill="#fbfbfb"/><path d="M48.96,55.81Q46.97,56.48 46.7,59Q47.67,57.24 50.04,56.99Z" fill="#101010" stroke="#101010" stroke-width="0.7" stroke-linejoin="round" stroke-linecap="round"/><path d="M48.96,55.81Q46.97,56.48 46.7,59Q47.67,57.24 50.04,56.99Z" fill="#fbfbfb"/><path d="M50.86,55.51Q48.87,56.18 48.6,58.7Q49.57,56.94 51.94,56.69Z" fill="#101010" stroke="#101010" stroke-width="0.7" stroke-linejoin="round" stroke-linecap="round"/><path d="M50.86,55.51Q48.87,56.18 48.6,58.7Q49.57,56.94 51.94,56.69Z" fill="#fbfbfb"/><path d="M49.68,48.6Q50.87,46.85 52.4,45.56Q50.25,46.03 48.72,47.32Z" fill="#101010" stroke="#101010" stroke-width="0.9" stroke-linejoin="round" stroke-linecap="round"/><path d="M49.68,48.6Q50.87,46.85 52.4,45.56Q50.25,46.03 48.72,47.32Z" fill="#bdbdbd"/><path d="M51.18,50.64Q52.37,48.89 53.9,47.6Q51.75,48.07 50.22,49.36Z" fill="#101010" stroke="#101010" stroke-width="0.9" stroke-linejoin="round" stroke-linecap="round"/><path d="M51.18,50.64Q52.37,48.89 53.9,47.6Q51.75,48.07 50.22,49.36Z" fill="#bdbdbd"/><path d="M52.68,52.68Q53.87,50.93 55.4,49.64Q53.25,50.11 51.72,51.4Z" fill="#101010" stroke="#101010" stroke-width="0.9" stroke-linejoin="round" stroke-linecap="round"/><path d="M52.68,52.68Q53.87,50.93 55.4,49.64Q53.25,50.11 51.72,51.4Z" fill="#bdbdbd"/><path d="M53.99,40.81Q55.31,38.86 57,37.4Q54.57,37.82 52.81,39.19Z" fill="#101010" stroke="#101010" stroke-width="0.9" stroke-linejoin="round" stroke-linecap="round"/><path d="M53.99,40.81Q55.31,38.86 57,37.4Q54.57,37.82 52.81,39.19Z" fill="#bdbdbd"/></g>
</svg>