<svg xmlns="http://www.w3.org/2000/svg" viewBox="0 0 64 64" width="512" height="512"
     shape-rendering="geometricPrecision">
<defs>
  <!-- Lagy tonusatmenet. Szandekosan nem megy le a legsotetebb arnyekig:
       a kemeny sotet foltok a format nem terfogatosnak, hanem koszosnak
       mutatjak. A melyebb arnyekot kulon retegek adjak. -->
  <linearGradient id="l13-vol" x1="0.18" y1="0.02" x2="0.82" y2="1">
    <stop offset="0"    stop-color="#e2e2e2"/>
    <stop offset="0.30" stop-color="#bdbdbd"/>
    <stop offset="0.66" stop-color="#8f8f8f"/>
    <stop offset="1"    stop-color="#5d5d5d"/>
  </linearGradient>
  <!-- Fuggoleges valtozat. Hosszukas alakzatoknal (fej, lab) a ferde
       atmenet ugy hat, mintha sotet sapka lenne rajtuk; a felulrol jovo
       fenyhez a fuggoleges a termeszetes. -->
  <linearGradient id="l13-volV" x1="0.42" y1="0" x2="0.58" y2="1">
    <stop offset="0"    stop-color="#e2e2e2"/>
    <stop offset="0.34" stop-color="#bdbdbd"/>
    <stop offset="0.74" stop-color="#8f8f8f"/>
    <stop offset="1"    stop-color="#5d5d5d"/>
  </linearGradient>
  <linearGradient id="l13-vol2" x1="0.2" y1="0" x2="0.8" y2="1">
    <stop offset="0"    stop-color="#bdbdbd"/>
    <stop offset="0.5"  stop-color="#5d5d5d"/>
    <stop offset="1"    stop-color="#3b3b3b"/>
  </linearGradient>
  <!-- A membran a test fenyiranyat koveti: bal-felul vilagos. Forditva
       (sotet tetovel) a szarny fekete folttal ult a vilagos sarkanyon. -->
  <linearGradient id="l13-membrane" x1="0.12" y1="0" x2="0.78" y2="1">
    <stop offset="0"    stop-color="#bdbdbd"/>
    <stop offset="0.45" stop-color="#8f8f8f"/>
    <stop offset="1"    stop-color="#5d5d5d"/>
  </linearGradient>
  <radialGradient id="l13-sheen" cx="0.34" cy="0.24" r="0.95">
    <stop offset="0"    stop-color="#fbfbfb" stop-opacity="0.62"/>
    <stop offset="0.38" stop-color="#fbfbfb" stop-opacity="0.22"/>
    <stop offset="1"    stop-color="#fbfbfb" stop-opacity="0"/>
  </radialGradient>

</defs>
<g id="l13"><defs><clipPath id="l13-far-clip"><path d="M43.42,38.8C43.47,39.29 43.45,39.81 43.37,40.29C43.29,40.77 43.14,41.25 42.93,41.67C42.73,42.09 42.45,42.49 42.15,42.82C41.84,43.14 41.47,43.41 41.1,43.61C40.72,43.8 40.29,43.92 39.88,43.96C39.46,44 39.02,43.97 38.61,43.85C38.2,43.74 37.79,43.55 37.42,43.29C37.06,43.04 36.71,42.7 36.43,42.33C36.15,41.95 35.9,41.51 35.73,41.06C35.55,40.6 35.43,40.09 35.38,39.6C35.33,39.11 35.35,38.59 35.43,38.11C35.51,37.63 35.66,37.15 35.87,36.73C36.07,36.31 36.35,35.91 36.65,35.58C36.96,35.26 37.33,34.99 37.7,34.79C38.08,34.6 38.51,34.48 38.92,34.44C39.34,34.4 39.78,34.43 40.19,34.55C40.6,34.66 41.01,34.85 41.38,35.11C41.74,35.36 42.09,35.7 42.37,36.07C42.65,36.45 42.9,36.89 43.07,37.34C43.25,37.8 43.37,38.31 43.42,38.8Z"/><path d="M36.85,38.87C36.72,39.14 36.81,39.09 36.77,39.24C36.74,39.38 36.7,39.55 36.65,39.75C36.6,39.95 36.54,40.2 36.49,40.45C36.43,40.7 36.36,40.99 36.31,41.28C36.25,41.57 36.19,41.88 36.13,42.19C36.08,42.51 36.03,42.84 35.99,43.18C35.95,43.52 35.91,43.87 35.89,44.23C35.88,44.59 35.87,44.96 35.89,45.32C35.91,45.69 35.96,46.06 36.02,46.42C36.08,46.79 36.16,47.15 36.25,47.51C36.34,47.86 36.45,48.22 36.55,48.57C36.66,48.91 36.77,49.26 36.89,49.59C37,49.92 37.11,50.24 37.22,50.53C37.32,50.83 37.43,51.12 37.52,51.37C37.61,51.61 37.69,51.84 37.76,52.03C37.82,52.22 37.78,52.25 37.91,52.51C38.05,52.76 38.28,53.28 38.57,53.56C38.87,53.83 39.28,54.05 39.67,54.13C40.06,54.22 40.53,54.2 40.91,54.09C41.29,53.97 41.68,53.72 41.96,53.43C42.23,53.13 42.45,52.72 42.53,52.33C42.62,51.94 42.52,51.39 42.49,51.09C42.45,50.8 42.39,50.75 42.32,50.54C42.26,50.33 42.17,50.07 42.09,49.82C42.01,49.56 41.92,49.28 41.83,48.99C41.74,48.71 41.65,48.41 41.56,48.11C41.48,47.82 41.39,47.51 41.32,47.22C41.24,46.92 41.17,46.63 41.11,46.36C41.05,46.1 41,45.84 40.97,45.62C40.94,45.41 40.92,45.25 40.91,45.08C40.9,44.91 40.91,44.78 40.94,44.6C40.96,44.42 41,44.22 41.05,44.01C41.1,43.81 41.16,43.59 41.23,43.37C41.3,43.15 41.39,42.92 41.47,42.7C41.55,42.48 41.64,42.26 41.73,42.04C41.81,41.83 41.9,41.62 41.98,41.41C42.06,41.21 42.14,41 42.2,40.82C42.26,40.63 42.32,40.66 42.35,40.33C42.37,40 42.47,39.32 42.34,38.86C42.22,38.4 41.94,37.92 41.61,37.59C41.27,37.25 40.79,36.97 40.33,36.85C39.87,36.73 39.32,36.73 38.86,36.86C38.4,36.98 37.92,37.26 37.59,37.59C37.25,37.93 36.99,38.6 36.85,38.87Z"/><path d="M41.49,54.12C41.49,54.39 41.45,54.67 41.36,54.92C41.28,55.18 41.14,55.43 40.98,55.65C40.82,55.87 40.61,56.07 40.38,56.22C40.16,56.38 39.9,56.51 39.63,56.59C39.37,56.68 39.08,56.72 38.8,56.72C38.52,56.72 38.23,56.68 37.97,56.59C37.7,56.51 37.44,56.38 37.22,56.22C36.99,56.07 36.78,55.87 36.62,55.65C36.46,55.43 36.32,55.18 36.24,54.92C36.15,54.67 36.11,54.39 36.11,54.12C36.11,53.85 36.15,53.57 36.24,53.32C36.32,53.06 36.46,52.81 36.62,52.59C36.78,52.38 36.99,52.18 37.22,52.02C37.44,51.86 37.7,51.73 37.97,51.65C38.23,51.57 38.52,51.52 38.8,51.52C39.08,51.52 39.37,51.57 39.63,51.65C39.9,51.73 40.16,51.86 40.38,52.02C40.61,52.18 40.82,52.38 40.98,52.59C41.14,52.81 41.28,53.06 41.36,53.32C41.45,53.57 41.49,53.85 41.49,54.12Z"/><path d="M38.36,52.61C38.13,52.67 37.92,52.79 37.62,52.93C37.32,53.07 36.92,53.25 36.55,53.43C36.18,53.6 35.76,53.8 35.42,53.97C35.08,54.14 34.76,54.29 34.5,54.46C34.24,54.63 34.03,54.8 33.86,54.98C33.7,55.15 33.59,55.37 33.51,55.53C33.43,55.69 33.41,55.83 33.38,55.93C33.34,56.03 33.33,56.03 33.3,56.13C33.27,56.24 33.2,56.4 33.2,56.54C33.2,56.67 33.25,56.82 33.31,56.93C33.38,57.05 33.5,57.16 33.61,57.22C33.73,57.29 33.88,57.32 34.01,57.32C34.15,57.32 34.3,57.28 34.41,57.21C34.53,57.14 34.63,56.99 34.7,56.91C34.77,56.82 34.8,56.77 34.85,56.7C34.9,56.64 34.96,56.57 35.02,56.51C35.07,56.46 35.12,56.43 35.2,56.38C35.28,56.33 35.33,56.27 35.5,56.19C35.68,56.1 35.95,55.97 36.26,55.85C36.57,55.73 37.01,55.59 37.38,55.47C37.74,55.34 38.17,55.21 38.48,55.11C38.79,55 39.03,54.94 39.24,54.84C39.45,54.73 39.62,54.62 39.74,54.47C39.87,54.31 39.96,54.09 39.99,53.9C40.02,53.7 39.99,53.46 39.92,53.28C39.84,53.09 39.7,52.9 39.54,52.78C39.39,52.66 39.17,52.56 38.97,52.53C38.78,52.51 38.58,52.54 38.36,52.61Z"/><path d="M37.38,52.77C37.12,52.82 36.84,52.93 36.47,53.05C36.11,53.17 35.61,53.34 35.16,53.49C34.71,53.64 34.2,53.82 33.78,53.97C33.37,54.13 32.99,54.25 32.68,54.41C32.37,54.57 32.13,54.74 31.94,54.93C31.75,55.12 31.62,55.38 31.54,55.55C31.45,55.73 31.45,55.89 31.43,55.99C31.4,56.1 31.39,56.09 31.37,56.19C31.35,56.29 31.29,56.47 31.3,56.6C31.32,56.73 31.37,56.88 31.45,56.99C31.53,57.1 31.65,57.2 31.77,57.25C31.89,57.31 32.05,57.33 32.18,57.32C32.31,57.3 32.46,57.25 32.57,57.17C32.67,57.09 32.76,56.94 32.83,56.85C32.9,56.76 32.92,56.69 32.96,56.63C33.01,56.56 33.05,56.5 33.09,56.46C33.13,56.42 33.14,56.43 33.21,56.39C33.28,56.35 33.32,56.31 33.52,56.23C33.72,56.15 34.05,56.04 34.43,55.93C34.8,55.83 35.32,55.71 35.77,55.6C36.21,55.5 36.73,55.39 37.1,55.3C37.48,55.22 37.78,55.17 38.02,55.08C38.27,54.99 38.42,54.9 38.56,54.76C38.7,54.62 38.81,54.41 38.86,54.22C38.91,54.02 38.91,53.79 38.86,53.6C38.8,53.4 38.68,53.2 38.54,53.06C38.39,52.92 38.19,52.81 38,52.76C37.8,52.71 37.63,52.72 37.38,52.77Z"/><path d="M36.32,52.95C36.07,52.99 35.79,53.1 35.42,53.2C35.05,53.3 34.55,53.44 34.1,53.58C33.65,53.71 33.14,53.86 32.72,54C32.31,54.14 31.92,54.25 31.61,54.4C31.29,54.55 31.04,54.72 30.84,54.91C30.65,55.1 30.52,55.37 30.43,55.55C30.35,55.73 30.35,55.89 30.32,55.99C30.3,56.1 30.29,56.1 30.27,56.2C30.25,56.3 30.19,56.47 30.2,56.61C30.22,56.74 30.28,56.89 30.35,56.99C30.43,57.1 30.55,57.2 30.68,57.25C30.8,57.31 30.95,57.33 31.09,57.32C31.22,57.3 31.36,57.25 31.47,57.17C31.58,57.09 31.67,56.94 31.73,56.84C31.8,56.75 31.82,56.68 31.87,56.62C31.91,56.55 31.95,56.48 31.99,56.45C32.03,56.41 32.04,56.42 32.1,56.39C32.17,56.35 32.2,56.31 32.39,56.24C32.59,56.17 32.92,56.07 33.29,55.98C33.66,55.9 34.18,55.8 34.62,55.71C35.07,55.63 35.58,55.55 35.96,55.47C36.33,55.4 36.63,55.37 36.88,55.29C37.12,55.21 37.28,55.13 37.42,54.99C37.57,54.86 37.69,54.66 37.75,54.47C37.81,54.27 37.81,54.04 37.77,53.85C37.72,53.65 37.61,53.44 37.47,53.3C37.34,53.15 37.14,53.03 36.94,52.97C36.75,52.91 36.58,52.92 36.32,52.95Z"/><path d="M35.23,53.15C35,53.18 34.79,53.27 34.49,53.36C34.18,53.45 33.78,53.56 33.4,53.68C33.03,53.79 32.61,53.92 32.25,54.04C31.9,54.17 31.56,54.27 31.28,54.41C31.01,54.56 30.76,54.73 30.58,54.91C30.4,55.1 30.28,55.34 30.2,55.51C30.11,55.68 30.1,55.83 30.07,55.94C30.03,56.04 30.02,56.05 29.99,56.15C29.96,56.26 29.89,56.42 29.9,56.56C29.91,56.69 29.95,56.84 30.03,56.95C30.1,57.07 30.21,57.17 30.33,57.23C30.45,57.29 30.6,57.33 30.74,57.32C30.87,57.31 31.02,57.27 31.13,57.2C31.24,57.12 31.34,56.98 31.41,56.89C31.48,56.8 31.51,56.74 31.56,56.67C31.61,56.59 31.67,56.51 31.73,56.46C31.78,56.41 31.81,56.39 31.88,56.36C31.94,56.32 31.96,56.29 32.12,56.23C32.28,56.18 32.53,56.09 32.83,56.02C33.13,55.95 33.56,55.88 33.92,55.82C34.29,55.75 34.71,55.69 35.01,55.64C35.32,55.58 35.56,55.56 35.77,55.49C35.99,55.42 36.17,55.33 36.32,55.2C36.47,55.06 36.59,54.86 36.65,54.67C36.71,54.48 36.71,54.24 36.67,54.05C36.62,53.85 36.51,53.65 36.38,53.5C36.24,53.35 36.04,53.23 35.85,53.17C35.66,53.11 35.45,53.12 35.23,53.15Z"/><path d="M58.16,40C58.06,40.49 57.89,40.98 57.67,41.41C57.45,41.85 57.16,42.26 56.84,42.61C56.52,42.95 56.14,43.25 55.76,43.47C55.37,43.68 54.94,43.84 54.52,43.91C54.1,43.98 53.66,43.97 53.25,43.89C52.84,43.81 52.43,43.64 52.07,43.41C51.71,43.19 51.38,42.87 51.1,42.52C50.83,42.17 50.6,41.75 50.44,41.31C50.28,40.87 50.17,40.37 50.14,39.89C50.11,39.4 50.14,38.88 50.24,38.4C50.34,37.91 50.51,37.42 50.73,36.99C50.95,36.55 51.24,36.14 51.56,35.79C51.88,35.45 52.26,35.15 52.64,34.93C53.03,34.72 53.46,34.56 53.88,34.49C54.3,34.42 54.74,34.43 55.15,34.51C55.56,34.59 55.97,34.76 56.33,34.99C56.69,35.21 57.02,35.53 57.3,35.88C57.57,36.23 57.8,36.65 57.96,37.09C58.12,37.53 58.23,38.03 58.26,38.51C58.29,39 58.26,39.52 58.16,40Z"/><path d="M51.33,37.89C51.1,38.1 51.2,38.09 51.1,38.23C50.99,38.37 50.86,38.53 50.7,38.74C50.54,38.94 50.33,39.2 50.13,39.46C49.92,39.73 49.69,40.03 49.48,40.34C49.26,40.66 49.03,40.99 48.82,41.35C48.61,41.71 48.39,42.09 48.22,42.51C48.04,42.94 47.86,43.39 47.77,43.89C47.69,44.39 47.64,45 47.71,45.53C47.77,46.05 47.97,46.59 48.17,47.05C48.36,47.51 48.63,47.9 48.89,48.3C49.15,48.7 49.44,49.06 49.74,49.42C50.03,49.79 50.34,50.14 50.64,50.47C50.94,50.8 51.26,51.12 51.54,51.42C51.83,51.72 52.11,52 52.35,52.25C52.59,52.49 52.81,52.71 52.98,52.89C53.15,53.08 53.15,53.17 53.38,53.36C53.62,53.55 54.03,53.93 54.41,54.06C54.78,54.19 55.25,54.23 55.64,54.15C56.03,54.08 56.46,53.88 56.76,53.62C57.06,53.36 57.33,52.97 57.46,52.59C57.59,52.22 57.63,51.75 57.55,51.36C57.48,50.97 57.19,50.52 57.02,50.24C56.85,49.96 56.73,49.89 56.53,49.67C56.34,49.46 56.1,49.2 55.86,48.93C55.62,48.67 55.36,48.39 55.1,48.11C54.85,47.83 54.58,47.52 54.33,47.23C54.09,46.94 53.83,46.64 53.62,46.36C53.41,46.08 53.21,45.8 53.06,45.57C52.92,45.34 52.81,45.11 52.75,45C52.68,44.88 52.7,44.88 52.69,44.87C52.69,44.86 52.69,44.97 52.72,44.94C52.75,44.91 52.78,44.81 52.86,44.68C52.94,44.56 53.06,44.38 53.2,44.21C53.34,44.03 53.52,43.83 53.7,43.63C53.88,43.44 54.09,43.23 54.28,43.03C54.48,42.83 54.69,42.63 54.89,42.43C55.08,42.23 55.3,42.01 55.47,41.82C55.63,41.63 55.71,41.62 55.87,41.31C56.03,41 56.36,40.41 56.42,39.94C56.48,39.47 56.4,38.92 56.22,38.49C56.03,38.05 55.69,37.61 55.31,37.33C54.93,37.04 54.41,36.84 53.94,36.78C53.47,36.72 52.92,36.8 52.49,36.98C52.05,37.17 51.56,37.68 51.33,37.89Z"/><path d="M56.49,54.12C56.49,54.39 56.45,54.67 56.36,54.92C56.28,55.18 56.14,55.43 55.98,55.65C55.82,55.87 55.61,56.07 55.38,56.22C55.16,56.38 54.9,56.51 54.63,56.59C54.37,56.68 54.08,56.72 53.8,56.72C53.52,56.72 53.23,56.68 52.97,56.59C52.7,56.51 52.44,56.38 52.22,56.22C51.99,56.07 51.78,55.87 51.62,55.65C51.46,55.43 51.32,55.18 51.24,54.92C51.15,54.67 51.11,54.39 51.11,54.12C51.11,53.85 51.15,53.57 51.24,53.32C51.32,53.06 51.46,52.81 51.62,52.59C51.78,52.38 51.99,52.18 52.22,52.02C52.44,51.86 52.7,51.73 52.97,51.65C53.23,51.57 53.52,51.52 53.8,51.52C54.08,51.52 54.37,51.57 54.63,51.65C54.9,51.73 55.16,51.86 55.38,52.02C55.61,52.18 55.82,52.38 55.98,52.59C56.14,52.81 56.28,53.06 56.36,53.32C56.45,53.57 56.49,53.85 56.49,54.12Z"/><path d="M53.36,52.61C53.13,52.67 52.92,52.79 52.62,52.93C52.32,53.07 51.92,53.25 51.55,53.43C51.18,53.6 50.76,53.8 50.42,53.97C50.08,54.14 49.76,54.29 49.5,54.46C49.24,54.63 49.03,54.8 48.86,54.98C48.7,55.15 48.59,55.37 48.51,55.53C48.43,55.69 48.41,55.83 48.38,55.93C48.34,56.03 48.33,56.03 48.3,56.13C48.27,56.24 48.2,56.4 48.2,56.54C48.2,56.67 48.25,56.82 48.31,56.93C48.38,57.05 48.5,57.16 48.61,57.22C48.73,57.29 48.88,57.32 49.01,57.32C49.15,57.32 49.3,57.28 49.41,57.21C49.53,57.14 49.63,56.99 49.7,56.91C49.77,56.82 49.8,56.77 49.85,56.7C49.9,56.64 49.96,56.57 50.02,56.51C50.07,56.46 50.12,56.43 50.2,56.38C50.28,56.33 50.33,56.27 50.5,56.19C50.68,56.1 50.95,55.97 51.26,55.85C51.57,55.73 52.01,55.59 52.38,55.47C52.74,55.34 53.17,55.21 53.48,55.11C53.79,55 54.03,54.94 54.24,54.84C54.45,54.73 54.62,54.62 54.74,54.47C54.87,54.31 54.96,54.09 54.99,53.9C55.02,53.7 54.99,53.46 54.92,53.28C54.84,53.09 54.7,52.9 54.54,52.78C54.39,52.66 54.17,52.56 53.97,52.53C53.78,52.51 53.58,52.54 53.36,52.61Z"/><path d="M52.38,52.77C52.12,52.82 51.84,52.93 51.47,53.05C51.11,53.17 50.61,53.34 50.16,53.49C49.71,53.64 49.2,53.82 48.78,53.97C48.37,54.13 47.99,54.25 47.68,54.41C47.37,54.57 47.13,54.74 46.94,54.93C46.75,55.12 46.62,55.38 46.54,55.55C46.45,55.73 46.45,55.89 46.43,55.99C46.4,56.1 46.39,56.09 46.37,56.19C46.35,56.29 46.29,56.47 46.3,56.6C46.32,56.73 46.37,56.88 46.45,56.99C46.53,57.1 46.65,57.2 46.77,57.25C46.89,57.31 47.05,57.33 47.18,57.32C47.31,57.3 47.46,57.25 47.57,57.17C47.67,57.09 47.76,56.94 47.83,56.85C47.9,56.76 47.92,56.69 47.96,56.63C48.01,56.56 48.05,56.5 48.09,56.46C48.13,56.42 48.14,56.43 48.21,56.39C48.28,56.35 48.32,56.31 48.52,56.23C48.72,56.15 49.05,56.04 49.43,55.93C49.8,55.83 50.32,55.71 50.77,55.6C51.21,55.5 51.73,55.39 52.1,55.3C52.48,55.22 52.78,55.17 53.02,55.08C53.27,54.99 53.42,54.9 53.56,54.76C53.7,54.62 53.81,54.41 53.86,54.22C53.91,54.02 53.91,53.79 53.86,53.6C53.8,53.4 53.68,53.2 53.54,53.06C53.39,52.92 53.19,52.81 53,52.76C52.8,52.71 52.63,52.72 52.38,52.77Z"/><path d="M51.32,52.95C51.07,52.99 50.79,53.1 50.42,53.2C50.05,53.3 49.55,53.44 49.1,53.58C48.65,53.71 48.14,53.86 47.72,54C47.31,54.14 46.92,54.25 46.61,54.4C46.29,54.55 46.04,54.72 45.84,54.91C45.65,55.1 45.52,55.37 45.43,55.55C45.35,55.73 45.35,55.89 45.32,55.99C45.3,56.1 45.29,56.1 45.27,56.2C45.25,56.3 45.19,56.47 45.2,56.61C45.22,56.74 45.28,56.89 45.35,56.99C45.43,57.1 45.55,57.2 45.68,57.25C45.8,57.31 45.95,57.33 46.09,57.32C46.22,57.3 46.36,57.25 46.47,57.17C46.58,57.09 46.67,56.94 46.73,56.84C46.8,56.75 46.82,56.68 46.87,56.62C46.91,56.55 46.95,56.48 46.99,56.45C47.03,56.41 47.04,56.42 47.1,56.39C47.17,56.35 47.2,56.31 47.39,56.24C47.59,56.17 47.92,56.07 48.29,55.98C48.66,55.9 49.18,55.8 49.62,55.71C50.07,55.63 50.58,55.55 50.96,55.47C51.33,55.4 51.63,55.37 51.88,55.29C52.12,55.21 52.28,55.13 52.42,54.99C52.57,54.86 52.69,54.66 52.75,54.47C52.81,54.27 52.81,54.04 52.77,53.85C52.72,53.65 52.61,53.44 52.47,53.3C52.34,53.15 52.14,53.03 51.94,52.97C51.75,52.91 51.58,52.92 51.32,52.95Z"/><path d="M50.23,53.15C50,53.18 49.79,53.27 49.49,53.36C49.18,53.45 48.78,53.56 48.4,53.68C48.03,53.79 47.61,53.92 47.25,54.04C46.9,54.17 46.56,54.27 46.28,54.41C46.01,54.56 45.76,54.73 45.58,54.91C45.4,55.1 45.28,55.34 45.2,55.51C45.11,55.68 45.1,55.83 45.07,55.94C45.03,56.04 45.02,56.05 44.99,56.15C44.96,56.26 44.89,56.42 44.9,56.56C44.91,56.69 44.95,56.84 45.03,56.95C45.1,57.07 45.21,57.17 45.33,57.23C45.45,57.29 45.6,57.33 45.74,57.32C45.87,57.31 46.02,57.27 46.13,57.2C46.24,57.12 46.34,56.98 46.41,56.89C46.48,56.8 46.51,56.74 46.56,56.67C46.61,56.59 46.67,56.51 46.73,56.46C46.78,56.41 46.81,56.39 46.88,56.36C46.94,56.32 46.96,56.29 47.12,56.23C47.28,56.18 47.53,56.09 47.83,56.02C48.13,55.95 48.56,55.88 48.92,55.82C49.29,55.75 49.71,55.69 50.01,55.64C50.32,55.58 50.56,55.56 50.77,55.49C50.99,55.42 51.17,55.33 51.32,55.2C51.47,55.06 51.59,54.86 51.65,54.67C51.71,54.48 51.71,54.24 51.67,54.05C51.62,53.85 51.51,53.65 51.38,53.5C51.24,53.35 51.04,53.23 50.85,53.17C50.66,53.11 50.45,53.12 50.23,53.15Z"/></clipPath></defs><g opacity="0.78"><path d="M43.42,38.8C43.47,39.29 43.45,39.81 43.37,40.29C43.29,40.77 43.14,41.25 42.93,41.67C42.73,42.09 42.45,42.49 42.15,42.82C41.84,43.14 41.47,43.41 41.1,43.61C40.72,43.8 40.29,43.92 39.88,43.96C39.46,44 39.02,43.97 38.61,43.85C38.2,43.74 37.79,43.55 37.42,43.29C37.06,43.04 36.71,42.7 36.43,42.33C36.15,41.95 35.9,41.51 35.73,41.06C35.55,40.6 35.43,40.09 35.38,39.6C35.33,39.11 35.35,38.59 35.43,38.11C35.51,37.63 35.66,37.15 35.87,36.73C36.07,36.31 36.35,35.91 36.65,35.58C36.96,35.26 37.33,34.99 37.7,34.79C38.08,34.6 38.51,34.48 38.92,34.44C39.34,34.4 39.78,34.43 40.19,34.55C40.6,34.66 41.01,34.85 41.38,35.11C41.74,35.36 42.09,35.7 42.37,36.07C42.65,36.45 42.9,36.89 43.07,37.34C43.25,37.8 43.37,38.31 43.42,38.8Z" fill="#101010" stroke="#101010" stroke-width="1.7" stroke-linejoin="round" stroke-linecap="round"/><path d="M36.85,38.87C36.72,39.14 36.81,39.09 36.77,39.24C36.74,39.38 36.7,39.55 36.65,39.75C36.6,39.95 36.54,40.2 36.49,40.45C36.43,40.7 36.36,40.99 36.31,41.28C36.25,41.57 36.19,41.88 36.13,42.19C36.08,42.51 36.03,42.84 35.99,43.18C35.95,43.52 35.91,43.87 35.89,44.23C35.88,44.59 35.87,44.96 35.89,45.32C35.91,45.69 35.96,46.06 36.02,46.42C36.08,46.79 36.16,47.15 36.25,47.51C36.34,47.86 36.45,48.22 36.55,48.57C36.66,48.91 36.77,49.26 36.89,49.59C37,49.92 37.11,50.24 37.22,50.53C37.32,50.83 37.43,51.12 37.52,51.37C37.61,51.61 37.69,51.84 37.76,52.03C37.82,52.22 37.78,52.25 37.91,52.51C38.05,52.76 38.28,53.28 38.57,53.56C38.87,53.83 39.28,54.05 39.67,54.13C40.06,54.22 40.53,54.2 40.91,54.09C41.29,53.97 41.68,53.72 41.96,53.43C42.23,53.13 42.45,52.72 42.53,52.33C42.62,51.94 42.52,51.39 42.49,51.09C42.45,50.8 42.39,50.75 42.32,50.54C42.26,50.33 42.17,50.07 42.09,49.82C42.01,49.56 41.92,49.28 41.83,48.99C41.74,48.71 41.65,48.41 41.56,48.11C41.48,47.82 41.39,47.51 41.32,47.22C41.24,46.92 41.17,46.63 41.11,46.36C41.05,46.1 41,45.84 40.97,45.62C40.94,45.41 40.92,45.25 40.91,45.08C40.9,44.91 40.91,44.78 40.94,44.6C40.96,44.42 41,44.22 41.05,44.01C41.1,43.81 41.16,43.59 41.23,43.37C41.3,43.15 41.39,42.92 41.47,42.7C41.55,42.48 41.64,42.26 41.73,42.04C41.81,41.83 41.9,41.62 41.98,41.41C42.06,41.21 42.14,41 42.2,40.82C42.26,40.63 42.32,40.66 42.35,40.33C42.37,40 42.47,39.32 42.34,38.86C42.22,38.4 41.94,37.92 41.61,37.59C41.27,37.25 40.79,36.97 40.33,36.85C39.87,36.73 39.32,36.73 38.86,36.86C38.4,36.98 37.92,37.26 37.59,37.59C37.25,37.93 36.99,38.6 36.85,38.87Z" fill="#101010" stroke="#101010" stroke-width="1.7" stroke-linejoin="round" stroke-linecap="round"/><path d="M41.49,54.12C41.49,54.39 41.45,54.67 41.36,54.92C41.28,55.18 41.14,55.43 40.98,55.65C40.82,55.87 40.61,56.07 40.38,56.22C40.16,56.38 39.9,56.51 39.63,56.59C39.37,56.68 39.08,56.72 38.8,56.72C38.52,56.72 38.23,56.68 37.97,56.59C37.7,56.51 37.44,56.38 37.22,56.22C36.99,56.07 36.78,55.87 36.62,55.65C36.46,55.43 36.32,55.18 36.24,54.92C36.15,54.67 36.11,54.39 36.11,54.12C36.11,53.85 36.15,53.57 36.24,53.32C36.32,53.06 36.46,52.81 36.62,52.59C36.78,52.38 36.99,52.18 37.22,52.02C37.44,51.86 37.7,51.73 37.97,51.65C38.23,51.57 38.52,51.52 38.8,51.52C39.08,51.52 39.37,51.57 39.63,51.65C39.9,51.73 40.16,51.86 40.38,52.02C40.61,52.18 40.82,52.38 40.98,52.59C41.14,52.81 41.28,53.06 41.36,53.32C41.45,53.57 41.49,53.85 41.49,54.12Z" fill="#101010" stroke="#101010" stroke-width="1.7" stroke-linejoin="round" stroke-linecap="round"/><path d="M38.36,52.61C38.13,52.67 37.92,52.79 37.62,52.93C37.32,53.07 36.92,53.25 36.55,53.43C36.18,53.6 35.76,53.8 35.42,53.97C35.08,54.14 34.76,54.29 34.5,54.46C34.24,54.63 34.03,54.8 33.86,54.98C33.7,55.15 33.59,55.37 33.51,55.53C33.43,55.69 33.41,55.83 33.38,55.93C33.34,56.03 33.33,56.03 33.3,56.13C33.27,56.24 33.2,56.4 33.2,56.54C33.2,56.67 33.25,56.82 33.31,56.93C33.38,57.05 33.5,57.16 33.61,57.22C33.73,57.29 33.88,57.32 34.01,57.32C34.15,57.32 34.3,57.28 34.41,57.21C34.53,57.14 34.63,56.99 34.7,56.91C34.77,56.82 34.8,56.77 34.85,56.7C34.9,56.64 34.96,56.57 35.02,56.51C35.07,56.46 35.12,56.43 35.2,56.38C35.28,56.33 35.33,56.27 35.5,56.19C35.68,56.1 35.95,55.97 36.26,55.85C36.57,55.73 37.01,55.59 37.38,55.47C37.74,55.34 38.17,55.21 38.48,55.11C38.79,55 39.03,54.94 39.24,54.84C39.45,54.73 39.62,54.62 39.74,54.47C39.87,54.31 39.96,54.09 39.99,53.9C40.02,53.7 39.99,53.46 39.92,53.28C39.84,53.09 39.7,52.9 39.54,52.78C39.39,52.66 39.17,52.56 38.97,52.53C38.78,52.51 38.58,52.54 38.36,52.61Z" fill="#101010" stroke="#101010" stroke-width="1.7" stroke-linejoin="round" stroke-linecap="round"/><path d="M37.38,52.77C37.12,52.82 36.84,52.93 36.47,53.05C36.11,53.17 35.61,53.34 35.16,53.49C34.71,53.64 34.2,53.82 33.78,53.97C33.37,54.13 32.99,54.25 32.68,54.41C32.37,54.57 32.13,54.74 31.94,54.93C31.75,55.12 31.62,55.38 31.54,55.55C31.45,55.73 31.45,55.89 31.43,55.99C31.4,56.1 31.39,56.09 31.37,56.19C31.35,56.29 31.29,56.47 31.3,56.6C31.32,56.73 31.37,56.88 31.45,56.99C31.53,57.1 31.65,57.2 31.77,57.25C31.89,57.31 32.05,57.33 32.18,57.32C32.31,57.3 32.46,57.25 32.57,57.17C32.67,57.09 32.76,56.94 32.83,56.85C32.9,56.76 32.92,56.69 32.96,56.63C33.01,56.56 33.05,56.5 33.09,56.46C33.13,56.42 33.14,56.43 33.21,56.39C33.28,56.35 33.32,56.31 33.52,56.23C33.72,56.15 34.05,56.04 34.43,55.93C34.8,55.83 35.32,55.71 35.77,55.6C36.21,55.5 36.73,55.39 37.1,55.3C37.48,55.22 37.78,55.17 38.02,55.08C38.27,54.99 38.42,54.9 38.56,54.76C38.7,54.62 38.81,54.41 38.86,54.22C38.91,54.02 38.91,53.79 38.86,53.6C38.8,53.4 38.68,53.2 38.54,53.06C38.39,52.92 38.19,52.81 38,52.76C37.8,52.71 37.63,52.72 37.38,52.77Z" fill="#101010" stroke="#101010" stroke-width="1.7" stroke-linejoin="round" stroke-linecap="round"/><path d="M36.32,52.95C36.07,52.99 35.79,53.1 35.42,53.2C35.05,53.3 34.55,53.44 34.1,53.58C33.65,53.71 33.14,53.86 32.72,54C32.31,54.14 31.92,54.25 31.61,54.4C31.29,54.55 31.04,54.72 30.84,54.91C30.65,55.1 30.52,55.37 30.43,55.55C30.35,55.73 30.35,55.89 30.32,55.99C30.3,56.1 30.29,56.1 30.27,56.2C30.25,56.3 30.19,56.47 30.2,56.61C30.22,56.74 30.28,56.89 30.35,56.99C30.43,57.1 30.55,57.2 30.68,57.25C30.8,57.31 30.95,57.33 31.09,57.32C31.22,57.3 31.36,57.25 31.47,57.17C31.58,57.09 31.67,56.94 31.73,56.84C31.8,56.75 31.82,56.68 31.87,56.62C31.91,56.55 31.95,56.48 31.99,56.45C32.03,56.41 32.04,56.42 32.1,56.39C32.17,56.35 32.2,56.31 32.39,56.24C32.59,56.17 32.92,56.07 33.29,55.98C33.66,55.9 34.18,55.8 34.62,55.71C35.07,55.63 35.58,55.55 35.96,55.47C36.33,55.4 36.63,55.37 36.88,55.29C37.12,55.21 37.28,55.13 37.42,54.99C37.57,54.86 37.69,54.66 37.75,54.47C37.81,54.27 37.81,54.04 37.77,53.85C37.72,53.65 37.61,53.44 37.47,53.3C37.34,53.15 37.14,53.03 36.94,52.97C36.75,52.91 36.58,52.92 36.32,52.95Z" fill="#101010" stroke="#101010" stroke-width="1.7" stroke-linejoin="round" stroke-linecap="round"/><path d="M35.23,53.15C35,53.18 34.79,53.27 34.49,53.36C34.18,53.45 33.78,53.56 33.4,53.68C33.03,53.79 32.61,53.92 32.25,54.04C31.9,54.17 31.56,54.27 31.28,54.41C31.01,54.56 30.76,54.73 30.58,54.91C30.4,55.1 30.28,55.34 30.2,55.51C30.11,55.68 30.1,55.83 30.07,55.94C30.03,56.04 30.02,56.05 29.99,56.15C29.96,56.26 29.89,56.42 29.9,56.56C29.91,56.69 29.95,56.84 30.03,56.95C30.1,57.07 30.21,57.17 30.33,57.23C30.45,57.29 30.6,57.33 30.74,57.32C30.87,57.31 31.02,57.27 31.13,57.2C31.24,57.12 31.34,56.98 31.41,56.89C31.48,56.8 31.51,56.74 31.56,56.67C31.61,56.59 31.67,56.51 31.73,56.46C31.78,56.41 31.81,56.39 31.88,56.36C31.94,56.32 31.96,56.29 32.12,56.23C32.28,56.18 32.53,56.09 32.83,56.02C33.13,55.95 33.56,55.88 33.92,55.82C34.29,55.75 34.71,55.69 35.01,55.64C35.32,55.58 35.56,55.56 35.77,55.49C35.99,55.42 36.17,55.33 36.32,55.2C36.47,55.06 36.59,54.86 36.65,54.67C36.71,54.48 36.71,54.24 36.67,54.05C36.62,53.85 36.51,53.65 36.38,53.5C36.24,53.35 36.04,53.23 35.85,53.17C35.66,53.11 35.45,53.12 35.23,53.15Z" fill="#101010" stroke="#101010" stroke-width="1.7" stroke-linejoin="round" stroke-linecap="round"/><path d="M58.16,40C58.06,40.49 57.89,40.98 57.67,41.41C57.45,41.85 57.16,42.26 56.84,42.61C56.52,42.95 56.14,43.25 55.76,43.47C55.37,43.68 54.94,43.84 54.52,43.91C54.1,43.98 53.66,43.97 53.25,43.89C52.84,43.81 52.43,43.64 52.07,43.41C51.71,43.19 51.38,42.87 51.1,42.52C50.83,42.17 50.6,41.75 50.44,41.31C50.28,40.87 50.17,40.37 50.14,39.89C50.11,39.4 50.14,38.88 50.24,38.4C50.34,37.91 50.51,37.42 50.73,36.99C50.95,36.55 51.24,36.14 51.56,35.79C51.88,35.45 52.26,35.15 52.64,34.93C53.03,34.72 53.46,34.56 53.88,34.49C54.3,34.42 54.74,34.43 55.15,34.51C55.56,34.59 55.97,34.76 56.33,34.99C56.69,35.21 57.02,35.53 57.3,35.88C57.57,36.23 57.8,36.65 57.96,37.09C58.12,37.53 58.23,38.03 58.26,38.51C58.29,39 58.26,39.52 58.16,40Z" fill="#101010" stroke="#101010" stroke-width="1.7" stroke-linejoin="round" stroke-linecap="round"/><path d="M51.33,37.89C51.1,38.1 51.2,38.09 51.1,38.23C50.99,38.37 50.86,38.53 50.7,38.74C50.54,38.94 50.33,39.2 50.13,39.46C49.92,39.73 49.69,40.03 49.48,40.34C49.26,40.66 49.03,40.99 48.82,41.35C48.61,41.71 48.39,42.09 48.22,42.51C48.04,42.94 47.86,43.39 47.77,43.89C47.69,44.39 47.64,45 47.71,45.53C47.77,46.05 47.97,46.59 48.17,47.05C48.36,47.51 48.63,47.9 48.89,48.3C49.15,48.7 49.44,49.06 49.74,49.42C50.03,49.79 50.34,50.14 50.64,50.47C50.94,50.8 51.26,51.12 51.54,51.42C51.83,51.72 52.11,52 52.35,52.25C52.59,52.49 52.81,52.71 52.98,52.89C53.15,53.08 53.15,53.17 53.38,53.36C53.62,53.55 54.03,53.93 54.41,54.06C54.78,54.19 55.25,54.23 55.64,54.15C56.03,54.08 56.46,53.88 56.76,53.62C57.06,53.36 57.33,52.97 57.46,52.59C57.59,52.22 57.63,51.75 57.55,51.36C57.48,50.97 57.19,50.52 57.02,50.24C56.85,49.96 56.73,49.89 56.53,49.67C56.34,49.46 56.1,49.2 55.86,48.93C55.62,48.67 55.36,48.39 55.1,48.11C54.85,47.83 54.58,47.52 54.33,47.23C54.09,46.94 53.83,46.64 53.62,46.36C53.41,46.08 53.21,45.8 53.06,45.57C52.92,45.34 52.81,45.11 52.75,45C52.68,44.88 52.7,44.88 52.69,44.87C52.69,44.86 52.69,44.97 52.72,44.94C52.75,44.91 52.78,44.81 52.86,44.68C52.94,44.56 53.06,44.38 53.2,44.21C53.34,44.03 53.52,43.83 53.7,43.63C53.88,43.44 54.09,43.23 54.28,43.03C54.48,42.83 54.69,42.63 54.89,42.43C55.08,42.23 55.3,42.01 55.47,41.82C55.63,41.63 55.71,41.62 55.87,41.31C56.03,41 56.36,40.41 56.42,39.94C56.48,39.47 56.4,38.92 56.22,38.49C56.03,38.05 55.69,37.61 55.31,37.33C54.93,37.04 54.41,36.84 53.94,36.78C53.47,36.72 52.92,36.8 52.49,36.98C52.05,37.17 51.56,37.68 51.33,37.89Z" fill="#101010" stroke="#101010" stroke-width="1.7" stroke-linejoin="round" stroke-linecap="round"/><path d="M56.49,54.12C56.49,54.39 56.45,54.67 56.36,54.92C56.28,55.18 56.14,55.43 55.98,55.65C55.82,55.87 55.61,56.07 55.38,56.22C55.16,56.38 54.9,56.51 54.63,56.59C54.37,56.68 54.08,56.72 53.8,56.72C53.52,56.72 53.23,56.68 52.97,56.59C52.7,56.51 52.44,56.38 52.22,56.22C51.99,56.07 51.78,55.87 51.62,55.65C51.46,55.43 51.32,55.18 51.24,54.92C51.15,54.67 51.11,54.39 51.11,54.12C51.11,53.85 51.15,53.57 51.24,53.32C51.32,53.06 51.46,52.81 51.62,52.59C51.78,52.38 51.99,52.18 52.22,52.02C52.44,51.86 52.7,51.73 52.97,51.65C53.23,51.57 53.52,51.52 53.8,51.52C54.08,51.52 54.37,51.57 54.63,51.65C54.9,51.73 55.16,51.86 55.38,52.02C55.61,52.18 55.82,52.38 55.98,52.59C56.14,52.81 56.28,53.06 56.36,53.32C56.45,53.57 56.49,53.85 56.49,54.12Z" fill="#101010" stroke="#101010" stroke-width="1.7" stroke-linejoin="round" stroke-linecap="round"/><path d="M53.36,52.61C53.13,52.67 52.92,52.79 52.62,52.93C52.32,53.07 51.92,53.25 51.55,53.43C51.18,53.6 50.76,53.8 50.42,53.97C50.08,54.14 49.76,54.29 49.5,54.46C49.24,54.63 49.03,54.8 48.86,54.98C48.7,55.15 48.59,55.37 48.51,55.53C48.43,55.69 48.41,55.83 48.38,55.93C48.34,56.03 48.33,56.03 48.3,56.13C48.27,56.24 48.2,56.4 48.2,56.54C48.2,56.67 48.25,56.82 48.31,56.93C48.38,57.05 48.5,57.16 48.61,57.22C48.73,57.29 48.88,57.32 49.01,57.32C49.15,57.32 49.3,57.28 49.41,57.21C49.53,57.14 49.63,56.99 49.7,56.91C49.77,56.82 49.8,56.77 49.85,56.7C49.9,56.64 49.96,56.57 50.02,56.51C50.07,56.46 50.12,56.43 50.2,56.38C50.28,56.33 50.33,56.27 50.5,56.19C50.68,56.1 50.95,55.97 51.26,55.85C51.57,55.73 52.01,55.59 52.38,55.47C52.74,55.34 53.17,55.21 53.48,55.11C53.79,55 54.03,54.94 54.24,54.84C54.45,54.73 54.62,54.62 54.74,54.47C54.87,54.31 54.96,54.09 54.99,53.9C55.02,53.7 54.99,53.46 54.92,53.28C54.84,53.09 54.7,52.9 54.54,52.78C54.39,52.66 54.17,52.56 53.97,52.53C53.78,52.51 53.58,52.54 53.36,52.61Z" fill="#101010" stroke="#101010" stroke-width="1.7" stroke-linejoin="round" stroke-linecap="round"/><path d="M52.38,52.77C52.12,52.82 51.84,52.93 51.47,53.05C51.11,53.17 50.61,53.34 50.16,53.49C49.71,53.64 49.2,53.82 48.78,53.97C48.37,54.13 47.99,54.25 47.68,54.41C47.37,54.57 47.13,54.74 46.94,54.93C46.75,55.12 46.62,55.38 46.54,55.55C46.45,55.73 46.45,55.89 46.43,55.99C46.4,56.1 46.39,56.09 46.37,56.19C46.35,56.29 46.29,56.47 46.3,56.6C46.32,56.73 46.37,56.88 46.45,56.99C46.53,57.1 46.65,57.2 46.77,57.25C46.89,57.31 47.05,57.33 47.18,57.32C47.31,57.3 47.46,57.25 47.57,57.17C47.67,57.09 47.76,56.94 47.83,56.85C47.9,56.76 47.92,56.69 47.96,56.63C48.01,56.56 48.05,56.5 48.09,56.46C48.13,56.42 48.14,56.43 48.21,56.39C48.28,56.35 48.32,56.31 48.52,56.23C48.72,56.15 49.05,56.04 49.43,55.93C49.8,55.83 50.32,55.71 50.77,55.6C51.21,55.5 51.73,55.39 52.1,55.3C52.48,55.22 52.78,55.17 53.02,55.08C53.27,54.99 53.42,54.9 53.56,54.76C53.7,54.62 53.81,54.41 53.86,54.22C53.91,54.02 53.91,53.79 53.86,53.6C53.8,53.4 53.68,53.2 53.54,53.06C53.39,52.92 53.19,52.81 53,52.76C52.8,52.71 52.63,52.72 52.38,52.77Z" fill="#101010" stroke="#101010" stroke-width="1.7" stroke-linejoin="round" stroke-linecap="round"/><path d="M51.32,52.95C51.07,52.99 50.79,53.1 50.42,53.2C50.05,53.3 49.55,53.44 49.1,53.58C48.65,53.71 48.14,53.86 47.72,54C47.31,54.14 46.92,54.25 46.61,54.4C46.29,54.55 46.04,54.72 45.84,54.91C45.65,55.1 45.52,55.37 45.43,55.55C45.35,55.73 45.35,55.89 45.32,55.99C45.3,56.1 45.29,56.1 45.27,56.2C45.25,56.3 45.19,56.47 45.2,56.61C45.22,56.74 45.28,56.89 45.35,56.99C45.43,57.1 45.55,57.2 45.68,57.25C45.8,57.31 45.95,57.33 46.09,57.32C46.22,57.3 46.36,57.25 46.47,57.17C46.58,57.09 46.67,56.94 46.73,56.84C46.8,56.75 46.82,56.68 46.87,56.62C46.91,56.55 46.95,56.48 46.99,56.45C47.03,56.41 47.04,56.42 47.1,56.39C47.17,56.35 47.2,56.31 47.39,56.24C47.59,56.17 47.92,56.07 48.29,55.98C48.66,55.9 49.18,55.8 49.62,55.71C50.07,55.63 50.58,55.55 50.96,55.47C51.33,55.4 51.63,55.37 51.88,55.29C52.12,55.21 52.28,55.13 52.42,54.99C52.57,54.86 52.69,54.66 52.75,54.47C52.81,54.27 52.81,54.04 52.77,53.85C52.72,53.65 52.61,53.44 52.47,53.3C52.34,53.15 52.14,53.03 51.94,52.97C51.75,52.91 51.58,52.92 51.32,52.95Z" fill="#101010" stroke="#101010" stroke-width="1.7" stroke-linejoin="round" stroke-linecap="round"/><path d="M50.23,53.15C50,53.18 49.79,53.27 49.49,53.36C49.18,53.45 48.78,53.56 48.4,53.68C48.03,53.79 47.61,53.92 47.25,54.04C46.9,54.17 46.56,54.27 46.28,54.41C46.01,54.56 45.76,54.73 45.58,54.91C45.4,55.1 45.28,55.34 45.2,55.51C45.11,55.68 45.1,55.83 45.07,55.94C45.03,56.04 45.02,56.05 44.99,56.15C44.96,56.26 44.89,56.42 44.9,56.56C44.91,56.69 44.95,56.84 45.03,56.95C45.1,57.07 45.21,57.17 45.33,57.23C45.45,57.29 45.6,57.33 45.74,57.32C45.87,57.31 46.02,57.27 46.13,57.2C46.24,57.12 46.34,56.98 46.41,56.89C46.48,56.8 46.51,56.74 46.56,56.67C46.61,56.59 46.67,56.51 46.73,56.46C46.78,56.41 46.81,56.39 46.88,56.36C46.94,56.32 46.96,56.29 47.12,56.23C47.28,56.18 47.53,56.09 47.83,56.02C48.13,55.95 48.56,55.88 48.92,55.82C49.29,55.75 49.71,55.69 50.01,55.64C50.32,55.58 50.56,55.56 50.77,55.49C50.99,55.42 51.17,55.33 51.32,55.2C51.47,55.06 51.59,54.86 51.65,54.67C51.71,54.48 51.71,54.24 51.67,54.05C51.62,53.85 51.51,53.65 51.38,53.5C51.24,53.35 51.04,53.23 50.85,53.17C50.66,53.11 50.45,53.12 50.23,53.15Z" fill="#101010" stroke="#101010" stroke-width="1.7" stroke-linejoin="round" stroke-linecap="round"/><path d="M43.42,38.8C43.47,39.29 43.45,39.81 43.37,40.29C43.29,40.77 43.14,41.25 42.93,41.67C42.73,42.09 42.45,42.49 42.15,42.82C41.84,43.14 41.47,43.41 41.1,43.61C40.72,43.8 40.29,43.92 39.88,43.96C39.46,44 39.02,43.97 38.61,43.85C38.2,43.74 37.79,43.55 37.42,43.29C37.06,43.04 36.71,42.7 36.43,42.33C36.15,41.95 35.9,41.51 35.73,41.06C35.55,40.6 35.43,40.09 35.38,39.6C35.33,39.11 35.35,38.59 35.43,38.11C35.51,37.63 35.66,37.15 35.87,36.73C36.07,36.31 36.35,35.91 36.65,35.58C36.96,35.26 37.33,34.99 37.7,34.79C38.08,34.6 38.51,34.48 38.92,34.44C39.34,34.4 39.78,34.43 40.19,34.55C40.6,34.66 41.01,34.85 41.38,35.11C41.74,35.36 42.09,35.7 42.37,36.07C42.65,36.45 42.9,36.89 43.07,37.34C43.25,37.8 43.37,38.31 43.42,38.8Z" fill="#5d5d5d"/><path d="M36.85,38.87C36.72,39.14 36.81,39.09 36.77,39.24C36.74,39.38 36.7,39.55 36.65,39.75C36.6,39.95 36.54,40.2 36.49,40.45C36.43,40.7 36.36,40.99 36.31,41.28C36.25,41.57 36.19,41.88 36.13,42.19C36.08,42.51 36.03,42.84 35.99,43.18C35.95,43.52 35.91,43.87 35.89,44.23C35.88,44.59 35.87,44.96 35.89,45.32C35.91,45.69 35.96,46.06 36.02,46.42C36.08,46.79 36.16,47.15 36.25,47.51C36.34,47.86 36.45,48.22 36.55,48.57C36.66,48.91 36.77,49.26 36.89,49.59C37,49.92 37.11,50.24 37.22,50.53C37.32,50.83 37.43,51.12 37.52,51.37C37.61,51.61 37.69,51.84 37.76,52.03C37.82,52.22 37.78,52.25 37.91,52.51C38.05,52.76 38.28,53.28 38.57,53.56C38.87,53.83 39.28,54.05 39.67,54.13C40.06,54.22 40.53,54.2 40.91,54.09C41.29,53.97 41.68,53.72 41.96,53.43C42.23,53.13 42.45,52.72 42.53,52.33C42.62,51.94 42.52,51.39 42.49,51.09C42.45,50.8 42.39,50.75 42.32,50.54C42.26,50.33 42.17,50.07 42.09,49.82C42.01,49.56 41.92,49.28 41.83,48.99C41.74,48.71 41.65,48.41 41.56,48.11C41.48,47.82 41.39,47.51 41.32,47.22C41.24,46.92 41.17,46.63 41.11,46.36C41.05,46.1 41,45.84 40.97,45.62C40.94,45.41 40.92,45.25 40.91,45.08C40.9,44.91 40.91,44.78 40.94,44.6C40.96,44.42 41,44.22 41.05,44.01C41.1,43.81 41.16,43.59 41.23,43.37C41.3,43.15 41.39,42.92 41.47,42.7C41.55,42.48 41.64,42.26 41.73,42.04C41.81,41.83 41.9,41.62 41.98,41.41C42.06,41.21 42.14,41 42.2,40.82C42.26,40.63 42.32,40.66 42.35,40.33C42.37,40 42.47,39.32 42.34,38.86C42.22,38.4 41.94,37.92 41.61,37.59C41.27,37.25 40.79,36.97 40.33,36.85C39.87,36.73 39.32,36.73 38.86,36.86C38.4,36.98 37.92,37.26 37.59,37.59C37.25,37.93 36.99,38.6 36.85,38.87Z" fill="#5d5d5d"/><path d="M41.49,54.12C41.49,54.39 41.45,54.67 41.36,54.92C41.28,55.18 41.14,55.43 40.98,55.65C40.82,55.87 40.61,56.07 40.38,56.22C40.16,56.38 39.9,56.51 39.63,56.59C39.37,56.68 39.08,56.72 38.8,56.72C38.52,56.72 38.23,56.68 37.97,56.59C37.7,56.51 37.44,56.38 37.22,56.22C36.99,56.07 36.78,55.87 36.62,55.65C36.46,55.43 36.32,55.18 36.24,54.92C36.15,54.67 36.11,54.39 36.11,54.12C36.11,53.85 36.15,53.57 36.24,53.32C36.32,53.06 36.46,52.81 36.62,52.59C36.78,52.38 36.99,52.18 37.22,52.02C37.44,51.86 37.7,51.73 37.97,51.65C38.23,51.57 38.52,51.52 38.8,51.52C39.08,51.52 39.37,51.57 39.63,51.65C39.9,51.73 40.16,51.86 40.38,52.02C40.61,52.18 40.82,52.38 40.98,52.59C41.14,52.81 41.28,53.06 41.36,53.32C41.45,53.57 41.49,53.85 41.49,54.12Z" fill="#5d5d5d"/><path d="M38.36,52.61C38.13,52.67 37.92,52.79 37.62,52.93C37.32,53.07 36.92,53.25 36.55,53.43C36.18,53.6 35.76,53.8 35.42,53.97C35.08,54.14 34.76,54.29 34.5,54.46C34.24,54.63 34.03,54.8 33.86,54.98C33.7,55.15 33.59,55.37 33.51,55.53C33.43,55.69 33.41,55.83 33.38,55.93C33.34,56.03 33.33,56.03 33.3,56.13C33.27,56.24 33.2,56.4 33.2,56.54C33.2,56.67 33.25,56.82 33.31,56.93C33.38,57.05 33.5,57.16 33.61,57.22C33.73,57.29 33.88,57.32 34.01,57.32C34.15,57.32 34.3,57.28 34.41,57.21C34.53,57.14 34.63,56.99 34.7,56.91C34.77,56.82 34.8,56.77 34.85,56.7C34.9,56.64 34.96,56.57 35.02,56.51C35.07,56.46 35.12,56.43 35.2,56.38C35.28,56.33 35.33,56.27 35.5,56.19C35.68,56.1 35.95,55.97 36.26,55.85C36.57,55.73 37.01,55.59 37.38,55.47C37.74,55.34 38.17,55.21 38.48,55.11C38.79,55 39.03,54.94 39.24,54.84C39.45,54.73 39.62,54.62 39.74,54.47C39.87,54.31 39.96,54.09 39.99,53.9C40.02,53.7 39.99,53.46 39.92,53.28C39.84,53.09 39.7,52.9 39.54,52.78C39.39,52.66 39.17,52.56 38.97,52.53C38.78,52.51 38.58,52.54 38.36,52.61Z" fill="#5d5d5d"/><path d="M37.38,52.77C37.12,52.82 36.84,52.93 36.47,53.05C36.11,53.17 35.61,53.34 35.16,53.49C34.71,53.64 34.2,53.82 33.78,53.97C33.37,54.13 32.99,54.25 32.68,54.41C32.37,54.57 32.13,54.74 31.94,54.93C31.75,55.12 31.62,55.38 31.54,55.55C31.45,55.73 31.45,55.89 31.43,55.99C31.4,56.1 31.39,56.09 31.37,56.19C31.35,56.29 31.29,56.47 31.3,56.6C31.32,56.73 31.37,56.88 31.45,56.99C31.53,57.1 31.65,57.2 31.77,57.25C31.89,57.31 32.05,57.33 32.18,57.32C32.31,57.3 32.46,57.25 32.57,57.17C32.67,57.09 32.76,56.94 32.83,56.85C32.9,56.76 32.92,56.69 32.96,56.63C33.01,56.56 33.05,56.5 33.09,56.46C33.13,56.42 33.14,56.43 33.21,56.39C33.28,56.35 33.32,56.31 33.52,56.23C33.72,56.15 34.05,56.04 34.43,55.93C34.8,55.83 35.32,55.71 35.77,55.6C36.21,55.5 36.73,55.39 37.1,55.3C37.48,55.22 37.78,55.17 38.02,55.08C38.27,54.99 38.42,54.9 38.56,54.76C38.7,54.62 38.81,54.41 38.86,54.22C38.91,54.02 38.91,53.79 38.86,53.6C38.8,53.4 38.68,53.2 38.54,53.06C38.39,52.92 38.19,52.81 38,52.76C37.8,52.71 37.63,52.72 37.38,52.77Z" fill="#5d5d5d"/><path d="M36.32,52.95C36.07,52.99 35.79,53.1 35.42,53.2C35.05,53.3 34.55,53.44 34.1,53.58C33.65,53.71 33.14,53.86 32.72,54C32.31,54.14 31.92,54.25 31.61,54.4C31.29,54.55 31.04,54.72 30.84,54.91C30.65,55.1 30.52,55.37 30.43,55.55C30.35,55.73 30.35,55.89 30.32,55.99C30.3,56.1 30.29,56.1 30.27,56.2C30.25,56.3 30.19,56.47 30.2,56.61C30.22,56.74 30.28,56.89 30.35,56.99C30.43,57.1 30.55,57.2 30.68,57.25C30.8,57.31 30.95,57.33 31.09,57.32C31.22,57.3 31.36,57.25 31.47,57.17C31.58,57.09 31.67,56.94 31.73,56.84C31.8,56.75 31.82,56.68 31.87,56.62C31.91,56.55 31.95,56.48 31.99,56.45C32.03,56.41 32.04,56.42 32.1,56.39C32.17,56.35 32.2,56.31 32.39,56.24C32.59,56.17 32.92,56.07 33.29,55.98C33.66,55.9 34.18,55.8 34.62,55.71C35.07,55.63 35.58,55.55 35.96,55.47C36.33,55.4 36.63,55.37 36.88,55.29C37.12,55.21 37.28,55.13 37.42,54.99C37.57,54.86 37.69,54.66 37.75,54.47C37.81,54.27 37.81,54.04 37.77,53.85C37.72,53.65 37.61,53.44 37.47,53.3C37.34,53.15 37.14,53.03 36.94,52.97C36.75,52.91 36.58,52.92 36.32,52.95Z" fill="#5d5d5d"/><path d="M35.23,53.15C35,53.18 34.79,53.27 34.49,53.36C34.18,53.45 33.78,53.56 33.4,53.68C33.03,53.79 32.61,53.92 32.25,54.04C31.9,54.17 31.56,54.27 31.28,54.41C31.01,54.56 30.76,54.73 30.58,54.91C30.4,55.1 30.28,55.34 30.2,55.51C30.11,55.68 30.1,55.83 30.07,55.94C30.03,56.04 30.02,56.05 29.99,56.15C29.96,56.26 29.89,56.42 29.9,56.56C29.91,56.69 29.95,56.84 30.03,56.95C30.1,57.07 30.21,57.17 30.33,57.23C30.45,57.29 30.6,57.33 30.74,57.32C30.87,57.31 31.02,57.27 31.13,57.2C31.24,57.12 31.34,56.98 31.41,56.89C31.48,56.8 31.51,56.74 31.56,56.67C31.61,56.59 31.67,56.51 31.73,56.46C31.78,56.41 31.81,56.39 31.88,56.36C31.94,56.32 31.96,56.29 32.12,56.23C32.28,56.18 32.53,56.09 32.83,56.02C33.13,55.95 33.56,55.88 33.92,55.82C34.29,55.75 34.71,55.69 35.01,55.64C35.32,55.58 35.56,55.56 35.77,55.49C35.99,55.42 36.17,55.33 36.32,55.2C36.47,55.06 36.59,54.86 36.65,54.67C36.71,54.48 36.71,54.24 36.67,54.05C36.62,53.85 36.51,53.65 36.38,53.5C36.24,53.35 36.04,53.23 35.85,53.17C35.66,53.11 35.45,53.12 35.23,53.15Z" fill="#5d5d5d"/><path d="M58.16,40C58.06,40.49 57.89,40.98 57.67,41.41C57.45,41.85 57.16,42.26 56.84,42.61C56.52,42.95 56.14,43.25 55.76,43.47C55.37,43.68 54.94,43.84 54.52,43.91C54.1,43.98 53.66,43.97 53.25,43.89C52.84,43.81 52.43,43.64 52.07,43.41C51.71,43.19 51.38,42.87 51.1,42.52C50.83,42.17 50.6,41.75 50.44,41.31C50.28,40.87 50.17,40.37 50.14,39.89C50.11,39.4 50.14,38.88 50.24,38.4C50.34,37.91 50.51,37.42 50.73,36.99C50.95,36.55 51.24,36.14 51.56,35.79C51.88,35.45 52.26,35.15 52.64,34.93C53.03,34.72 53.46,34.56 53.88,34.49C54.3,34.42 54.74,34.43 55.15,34.51C55.56,34.59 55.97,34.76 56.33,34.99C56.69,35.21 57.02,35.53 57.3,35.88C57.57,36.23 57.8,36.65 57.96,37.09C58.12,37.53 58.23,38.03 58.26,38.51C58.29,39 58.26,39.52 58.16,40Z" fill="#5d5d5d"/><path d="M51.33,37.89C51.1,38.1 51.2,38.09 51.1,38.23C50.99,38.37 50.86,38.53 50.7,38.74C50.54,38.94 50.33,39.2 50.13,39.46C49.92,39.73 49.69,40.03 49.48,40.34C49.26,40.66 49.03,40.99 48.82,41.35C48.61,41.71 48.39,42.09 48.22,42.51C48.04,42.94 47.86,43.39 47.77,43.89C47.69,44.39 47.64,45 47.71,45.53C47.77,46.05 47.97,46.59 48.17,47.05C48.36,47.51 48.63,47.9 48.89,48.3C49.15,48.7 49.44,49.06 49.74,49.42C50.03,49.79 50.34,50.14 50.64,50.47C50.94,50.8 51.26,51.12 51.54,51.42C51.83,51.72 52.11,52 52.35,52.25C52.59,52.49 52.81,52.71 52.98,52.89C53.15,53.08 53.15,53.17 53.38,53.36C53.62,53.55 54.03,53.93 54.41,54.06C54.78,54.19 55.25,54.23 55.64,54.15C56.03,54.08 56.46,53.88 56.76,53.62C57.06,53.36 57.33,52.97 57.46,52.59C57.59,52.22 57.63,51.75 57.55,51.36C57.48,50.97 57.19,50.52 57.02,50.24C56.85,49.96 56.73,49.89 56.53,49.67C56.34,49.46 56.1,49.2 55.86,48.93C55.62,48.67 55.36,48.39 55.1,48.11C54.85,47.83 54.58,47.52 54.33,47.23C54.09,46.94 53.83,46.64 53.62,46.36C53.41,46.08 53.21,45.8 53.06,45.57C52.92,45.34 52.81,45.11 52.75,45C52.68,44.88 52.7,44.88 52.69,44.87C52.69,44.86 52.69,44.97 52.72,44.94C52.75,44.91 52.78,44.81 52.86,44.68C52.94,44.56 53.06,44.38 53.2,44.21C53.34,44.03 53.52,43.83 53.7,43.63C53.88,43.44 54.09,43.23 54.28,43.03C54.48,42.83 54.69,42.63 54.89,42.43C55.08,42.23 55.3,42.01 55.47,41.82C55.63,41.63 55.71,41.62 55.87,41.31C56.03,41 56.36,40.41 56.42,39.94C56.48,39.47 56.4,38.92 56.22,38.49C56.03,38.05 55.69,37.61 55.31,37.33C54.93,37.04 54.41,36.84 53.94,36.78C53.47,36.72 52.92,36.8 52.49,36.98C52.05,37.17 51.56,37.68 51.33,37.89Z" fill="#5d5d5d"/><path d="M56.49,54.12C56.49,54.39 56.45,54.67 56.36,54.92C56.28,55.18 56.14,55.43 55.98,55.65C55.82,55.87 55.61,56.07 55.38,56.22C55.16,56.38 54.9,56.51 54.63,56.59C54.37,56.68 54.08,56.72 53.8,56.72C53.52,56.72 53.23,56.68 52.97,56.59C52.7,56.51 52.44,56.38 52.22,56.22C51.99,56.07 51.78,55.87 51.62,55.65C51.46,55.43 51.32,55.18 51.24,54.92C51.15,54.67 51.11,54.39 51.11,54.12C51.11,53.85 51.15,53.57 51.24,53.32C51.32,53.06 51.46,52.81 51.62,52.59C51.78,52.38 51.99,52.18 52.22,52.02C52.44,51.86 52.7,51.73 52.97,51.65C53.23,51.57 53.52,51.52 53.8,51.52C54.08,51.52 54.37,51.57 54.63,51.65C54.9,51.73 55.16,51.86 55.38,52.02C55.61,52.18 55.82,52.38 55.98,52.59C56.14,52.81 56.28,53.06 56.36,53.32C56.45,53.57 56.49,53.85 56.49,54.12Z" fill="#5d5d5d"/><path d="M53.36,52.61C53.13,52.67 52.92,52.79 52.62,52.93C52.32,53.07 51.92,53.25 51.55,53.43C51.18,53.6 50.76,53.8 50.42,53.97C50.08,54.14 49.76,54.29 49.5,54.46C49.24,54.63 49.03,54.8 48.86,54.98C48.7,55.15 48.59,55.37 48.51,55.53C48.43,55.69 48.41,55.83 48.38,55.93C48.34,56.03 48.33,56.03 48.3,56.13C48.27,56.24 48.2,56.4 48.2,56.54C48.2,56.67 48.25,56.82 48.31,56.93C48.38,57.05 48.5,57.16 48.61,57.22C48.73,57.29 48.88,57.32 49.01,57.32C49.15,57.32 49.3,57.28 49.41,57.21C49.53,57.14 49.63,56.99 49.7,56.91C49.77,56.82 49.8,56.77 49.85,56.7C49.9,56.64 49.96,56.57 50.02,56.51C50.07,56.46 50.12,56.43 50.2,56.38C50.28,56.33 50.33,56.27 50.5,56.19C50.68,56.1 50.95,55.97 51.26,55.85C51.57,55.73 52.01,55.59 52.38,55.47C52.74,55.34 53.17,55.21 53.48,55.11C53.79,55 54.03,54.94 54.24,54.84C54.45,54.73 54.62,54.62 54.74,54.47C54.87,54.31 54.96,54.09 54.99,53.9C55.02,53.7 54.99,53.46 54.92,53.28C54.84,53.09 54.7,52.9 54.54,52.78C54.39,52.66 54.17,52.56 53.97,52.53C53.78,52.51 53.58,52.54 53.36,52.61Z" fill="#5d5d5d"/><path d="M52.38,52.77C52.12,52.82 51.84,52.93 51.47,53.05C51.11,53.17 50.61,53.34 50.16,53.49C49.71,53.64 49.2,53.82 48.78,53.97C48.37,54.13 47.99,54.25 47.68,54.41C47.37,54.57 47.13,54.74 46.94,54.93C46.75,55.12 46.62,55.38 46.54,55.55C46.45,55.73 46.45,55.89 46.43,55.99C46.4,56.1 46.39,56.09 46.37,56.19C46.35,56.29 46.29,56.47 46.3,56.6C46.32,56.73 46.37,56.88 46.45,56.99C46.53,57.1 46.65,57.2 46.77,57.25C46.89,57.31 47.05,57.33 47.18,57.32C47.31,57.3 47.46,57.25 47.57,57.17C47.67,57.09 47.76,56.94 47.83,56.85C47.9,56.76 47.92,56.69 47.96,56.63C48.01,56.56 48.05,56.5 48.09,56.46C48.13,56.42 48.14,56.43 48.21,56.39C48.28,56.35 48.32,56.31 48.52,56.23C48.72,56.15 49.05,56.04 49.43,55.93C49.8,55.83 50.32,55.71 50.77,55.6C51.21,55.5 51.73,55.39 52.1,55.3C52.48,55.22 52.78,55.17 53.02,55.08C53.27,54.99 53.42,54.9 53.56,54.76C53.7,54.62 53.81,54.41 53.86,54.22C53.91,54.02 53.91,53.79 53.86,53.6C53.8,53.4 53.68,53.2 53.54,53.06C53.39,52.92 53.19,52.81 53,52.76C52.8,52.71 52.63,52.72 52.38,52.77Z" fill="#5d5d5d"/><path d="M51.32,52.95C51.07,52.99 50.79,53.1 50.42,53.2C50.05,53.3 49.55,53.44 49.1,53.58C48.65,53.71 48.14,53.86 47.72,54C47.31,54.14 46.92,54.25 46.61,54.4C46.29,54.55 46.04,54.72 45.84,54.91C45.65,55.1 45.52,55.37 45.43,55.55C45.35,55.73 45.35,55.89 45.32,55.99C45.3,56.1 45.29,56.1 45.27,56.2C45.25,56.3 45.19,56.47 45.2,56.61C45.22,56.74 45.28,56.89 45.35,56.99C45.43,57.1 45.55,57.2 45.68,57.25C45.8,57.31 45.95,57.33 46.09,57.32C46.22,57.3 46.36,57.25 46.47,57.17C46.58,57.09 46.67,56.94 46.73,56.84C46.8,56.75 46.82,56.68 46.87,56.62C46.91,56.55 46.95,56.48 46.99,56.45C47.03,56.41 47.04,56.42 47.1,56.39C47.17,56.35 47.2,56.31 47.39,56.24C47.59,56.17 47.92,56.07 48.29,55.98C48.66,55.9 49.18,55.8 49.62,55.71C50.07,55.63 50.58,55.55 50.96,55.47C51.33,55.4 51.63,55.37 51.88,55.29C52.12,55.21 52.28,55.13 52.42,54.99C52.57,54.86 52.69,54.66 52.75,54.47C52.81,54.27 52.81,54.04 52.77,53.85C52.72,53.65 52.61,53.44 52.47,53.3C52.34,53.15 52.14,53.03 51.94,52.97C51.75,52.91 51.58,52.92 51.32,52.95Z" fill="#5d5d5d"/><path d="M50.23,53.15C50,53.18 49.79,53.27 49.49,53.36C49.18,53.45 48.78,53.56 48.4,53.68C48.03,53.79 47.61,53.92 47.25,54.04C46.9,54.17 46.56,54.27 46.28,54.41C46.01,54.56 45.76,54.73 45.58,54.91C45.4,55.1 45.28,55.34 45.2,55.51C45.11,55.68 45.1,55.83 45.07,55.94C45.03,56.04 45.02,56.05 44.99,56.15C44.96,56.26 44.89,56.42 44.9,56.56C44.91,56.69 44.95,56.84 45.03,56.95C45.1,57.07 45.21,57.17 45.33,57.23C45.45,57.29 45.6,57.33 45.74,57.32C45.87,57.31 46.02,57.27 46.13,57.2C46.24,57.12 46.34,56.98 46.41,56.89C46.48,56.8 46.51,56.74 46.56,56.67C46.61,56.59 46.67,56.51 46.73,56.46C46.78,56.41 46.81,56.39 46.88,56.36C46.94,56.32 46.96,56.29 47.12,56.23C47.28,56.18 47.53,56.09 47.83,56.02C48.13,55.95 48.56,55.88 48.92,55.82C49.29,55.75 49.71,55.69 50.01,55.64C50.32,55.58 50.56,55.56 50.77,55.49C50.99,55.42 51.17,55.33 51.32,55.2C51.47,55.06 51.59,54.86 51.65,54.67C51.71,54.48 51.71,54.24 51.67,54.05C51.62,53.85 51.51,53.65 51.38,53.5C51.24,53.35 51.04,53.23 50.85,53.17C50.66,53.11 50.45,53.12 50.23,53.15Z" fill="#5d5d5d"/><g opacity="0.7"><path d="M34.02,55.39Q31.75,55.26 30.81,57.72Q32.1,55.94 34.58,56.45Z" fill="#101010" stroke="#101010" stroke-width="0.7" stroke-linejoin="round" stroke-linecap="round"/><path d="M34.02,55.39Q31.75,55.26 30.81,57.72Q32.1,55.94 34.58,56.45Z" fill="#fbfbfb"/><path d="M32.12,55.39Q29.85,55.26 28.91,57.72Q30.2,55.94 32.68,56.45Z" fill="#101010" stroke="#101010" stroke-width="0.7" stroke-linejoin="round" stroke-linecap="round"/><path d="M32.12,55.39Q29.85,55.26 28.91,57.72Q30.2,55.94 32.68,56.45Z" fill="#fbfbfb"/><path d="M31.02,55.39Q28.75,55.26 27.81,57.72Q29.1,55.94 31.58,56.45Z" fill="#101010" stroke="#101010" stroke-width="0.7" stroke-linejoin="round" stroke-linecap="round"/><path d="M31.02,55.39Q28.75,55.26 27.81,57.72Q29.1,55.94 31.58,56.45Z" fill="#fbfbfb"/><path d="M30.72,55.39Q28.45,55.26 27.51,57.72Q28.8,55.94 31.28,56.45Z" fill="#101010" stroke="#101010" stroke-width="0.7" stroke-linejoin="round" stroke-linecap="round"/><path d="M30.72,55.39Q28.45,55.26 27.51,57.72Q28.8,55.94 31.28,56.45Z" fill="#fbfbfb"/><path d="M49.02,55.39Q46.75,55.26 45.81,57.72Q47.1,55.94 49.58,56.45Z" fill="#101010" stroke="#101010" stroke-width="0.7" stroke-linejoin="round" stroke-linecap="round"/><path d="M49.02,55.39Q46.75,55.26 45.81,57.72Q47.1,55.94 49.58,56.45Z" fill="#fbfbfb"/><path d="M47.12,55.39Q44.85,55.26 43.91,57.72Q45.2,55.94 47.68,56.45Z" fill="#101010" stroke="#101010" stroke-width="0.7" stroke-linejoin="round" stroke-linecap="round"/><path d="M47.12,55.39Q44.85,55.26 43.91,57.72Q45.2,55.94 47.68,56.45Z" fill="#fbfbfb"/><path d="M46.02,55.39Q43.75,55.26 42.81,57.72Q44.1,55.94 46.58,56.45Z" fill="#101010" stroke="#101010" stroke-width="0.7" stroke-linejoin="round" stroke-linecap="round"/><path d="M46.02,55.39Q43.75,55.26 42.81,57.72Q44.1,55.94 46.58,56.45Z" fill="#fbfbfb"/><path d="M45.72,55.39Q43.45,55.26 42.51,57.72Q43.8,55.94 46.28,56.45Z" fill="#101010" stroke="#101010" stroke-width="0.7" stroke-linejoin="round" stroke-linecap="round"/><path d="M45.72,55.39Q43.45,55.26 42.51,57.72Q43.8,55.94 46.28,56.45Z" fill="#fbfbfb"/></g></g><defs><path id="l13-s0" d="M40.37,40.14C40.42,40.7 40.4,41.29 40.31,41.84C40.22,42.38 40.05,42.93 39.81,43.41C39.58,43.89 39.27,44.34 38.92,44.71C38.58,45.08 38.16,45.39 37.73,45.61C37.3,45.82 36.81,45.97 36.34,46.01C35.87,46.06 35.37,46.02 34.91,45.89C34.44,45.76 33.97,45.54 33.55,45.25C33.14,44.96 32.75,44.58 32.42,44.15C32.1,43.73 31.82,43.22 31.62,42.71C31.43,42.19 31.29,41.62 31.23,41.06C31.18,40.5 31.2,39.91 31.29,39.36C31.38,38.82 31.55,38.27 31.79,37.79C32.02,37.31 32.33,36.86 32.68,36.49C33.02,36.12 33.44,35.81 33.87,35.59C34.3,35.38 34.79,35.23 35.26,35.19C35.73,35.14 36.23,35.18 36.69,35.31C37.16,35.44 37.63,35.66 38.05,35.95C38.46,36.24 38.85,36.62 39.18,37.05C39.5,37.47 39.78,37.98 39.98,38.49C40.17,39.01 40.31,39.58 40.37,40.14Z"/><path id="l13-s1" d="M32.88,40.17C32.73,40.47 32.83,40.38 32.8,40.53C32.77,40.67 32.73,40.84 32.69,41.04C32.64,41.24 32.58,41.48 32.53,41.74C32.47,42 32.41,42.28 32.35,42.58C32.3,42.87 32.24,43.19 32.18,43.51C32.13,43.84 32.08,44.18 32.04,44.53C32,44.87 31.97,45.24 31.95,45.6C31.93,45.97 31.93,46.36 31.95,46.74C31.97,47.12 32.02,47.5 32.08,47.88C32.14,48.25 32.23,48.62 32.32,48.98C32.41,49.35 32.52,49.71 32.63,50.06C32.74,50.41 32.85,50.76 32.97,51.09C33.08,51.42 33.2,51.74 33.3,52.04C33.41,52.34 33.52,52.62 33.61,52.87C33.7,53.12 33.78,53.34 33.85,53.53C33.91,53.72 33.85,53.72 34,54C34.15,54.28 34.42,54.89 34.75,55.19C35.08,55.5 35.55,55.75 36,55.85C36.44,55.95 36.97,55.93 37.4,55.8C37.84,55.67 38.29,55.38 38.59,55.05C38.9,54.72 39.15,54.25 39.25,53.8C39.35,53.36 39.24,52.72 39.2,52.4C39.16,52.07 39.1,52.05 39.03,51.84C38.97,51.63 38.88,51.37 38.8,51.11C38.72,50.85 38.63,50.57 38.55,50.29C38.46,50.01 38.37,49.71 38.28,49.41C38.2,49.12 38.11,48.81 38.04,48.52C37.97,48.24 37.9,47.94 37.84,47.68C37.78,47.42 37.74,47.17 37.71,46.97C37.68,46.76 37.66,46.62 37.65,46.46C37.65,46.3 37.66,46.19 37.68,46.02C37.7,45.86 37.74,45.67 37.79,45.47C37.84,45.27 37.91,45.06 37.98,44.85C38.05,44.63 38.14,44.41 38.22,44.2C38.3,43.98 38.4,43.76 38.48,43.55C38.57,43.34 38.66,43.13 38.74,42.93C38.82,42.72 38.91,42.51 38.97,42.32C39.04,42.14 39.1,42.19 39.12,41.83C39.15,41.47 39.26,40.68 39.12,40.16C38.98,39.64 38.66,39.09 38.28,38.71C37.9,38.33 37.35,38.02 36.83,37.88C36.31,37.74 35.68,37.74 35.16,37.88C34.64,38.02 34.09,38.34 33.71,38.72C33.33,39.1 33.03,39.87 32.88,40.17Z"/><path id="l13-s2" d="M38.26,54.6C38.26,54.87 38.21,55.15 38.11,55.4C38.01,55.66 37.86,55.91 37.68,56.13C37.49,56.34 37.25,56.55 37,56.7C36.74,56.86 36.45,56.99 36.15,57.07C35.85,57.16 35.52,57.2 35.2,57.2C34.88,57.2 34.55,57.16 34.25,57.07C33.95,56.99 33.66,56.86 33.4,56.7C33.15,56.55 32.91,56.34 32.72,56.13C32.54,55.91 32.39,55.66 32.29,55.4C32.19,55.15 32.14,54.87 32.14,54.6C32.14,54.33 32.19,54.05 32.29,53.8C32.39,53.54 32.54,53.29 32.72,53.07C32.91,52.86 33.15,52.65 33.4,52.5C33.66,52.34 33.95,52.21 34.25,52.13C34.55,52.04 34.88,52 35.2,52C35.52,52 35.85,52.04 36.15,52.13C36.45,52.21 36.74,52.34 37,52.5C37.25,52.65 37.49,52.86 37.68,53.07C37.86,53.29 38.01,53.54 38.11,53.8C38.21,54.05 38.26,54.33 38.26,54.6Z"/><path id="l13-s3" d="M34.76,53.08C34.53,53.15 34.32,53.27 34.02,53.41C33.72,53.55 33.32,53.73 32.95,53.91C32.58,54.08 32.16,54.28 31.82,54.45C31.48,54.62 31.16,54.77 30.9,54.94C30.64,55.1 30.43,55.27 30.26,55.45C30.1,55.63 29.99,55.85 29.91,56.01C29.83,56.17 29.81,56.31 29.78,56.41C29.74,56.51 29.73,56.51 29.7,56.61C29.67,56.71 29.6,56.88 29.6,57.01C29.6,57.15 29.65,57.3 29.71,57.41C29.78,57.53 29.9,57.64 30.01,57.7C30.13,57.76 30.28,57.8 30.41,57.8C30.55,57.8 30.7,57.75 30.81,57.69C30.93,57.62 31.03,57.47 31.1,57.39C31.17,57.3 31.2,57.25 31.25,57.18C31.3,57.11 31.36,57.05 31.42,56.99C31.47,56.94 31.52,56.91 31.6,56.86C31.68,56.8 31.73,56.75 31.9,56.66C32.08,56.58 32.35,56.45 32.66,56.33C32.97,56.21 33.41,56.07 33.78,55.94C34.14,55.82 34.57,55.69 34.88,55.58C35.19,55.48 35.43,55.42 35.64,55.32C35.85,55.21 36.02,55.1 36.14,54.94C36.27,54.79 36.36,54.57 36.39,54.37C36.42,54.18 36.39,53.94 36.32,53.76C36.24,53.57 36.1,53.38 35.94,53.26C35.79,53.13 35.57,53.04 35.37,53.01C35.18,52.98 34.98,53.02 34.76,53.08Z"/><path id="l13-s4" d="M33.78,53.24C33.52,53.29 33.24,53.41 32.87,53.53C32.51,53.65 32.01,53.81 31.56,53.97C31.11,54.12 30.6,54.3 30.18,54.45C29.77,54.61 29.39,54.73 29.08,54.89C28.77,55.05 28.53,55.22 28.34,55.41C28.15,55.6 28.02,55.86 27.94,56.03C27.85,56.21 27.85,56.36 27.83,56.47C27.8,56.58 27.79,56.57 27.77,56.67C27.75,56.77 27.69,56.95 27.7,57.08C27.72,57.21 27.77,57.36 27.85,57.47C27.93,57.57 28.05,57.67 28.17,57.73C28.29,57.78 28.45,57.81 28.58,57.8C28.71,57.78 28.86,57.73 28.97,57.65C29.07,57.57 29.16,57.42 29.23,57.33C29.3,57.24 29.32,57.17 29.36,57.11C29.41,57.04 29.45,56.98 29.49,56.94C29.53,56.9 29.54,56.91 29.61,56.87C29.68,56.83 29.72,56.78 29.92,56.71C30.12,56.63 30.45,56.52 30.83,56.41C31.2,56.31 31.72,56.19 32.17,56.08C32.61,55.98 33.13,55.87 33.5,55.78C33.88,55.69 34.18,55.65 34.42,55.56C34.67,55.46 34.82,55.38 34.96,55.24C35.1,55.09 35.21,54.89 35.26,54.7C35.31,54.5 35.31,54.27 35.26,54.08C35.2,53.88 35.08,53.68 34.94,53.54C34.79,53.4 34.59,53.29 34.4,53.24C34.2,53.19 34.03,53.2 33.78,53.24Z"/><path id="l13-s5" d="M32.72,53.43C32.47,53.47 32.19,53.57 31.82,53.68C31.45,53.78 30.95,53.92 30.5,54.06C30.05,54.19 29.54,54.34 29.12,54.48C28.71,54.62 28.32,54.73 28.01,54.88C27.69,55.03 27.44,55.2 27.24,55.39C27.05,55.58 26.92,55.85 26.83,56.03C26.75,56.21 26.75,56.36 26.72,56.47C26.7,56.58 26.69,56.57 26.67,56.68C26.65,56.78 26.59,56.95 26.6,57.09C26.62,57.22 26.68,57.36 26.75,57.47C26.83,57.58 26.95,57.68 27.08,57.73C27.2,57.79 27.35,57.81 27.49,57.8C27.62,57.78 27.76,57.72 27.87,57.65C27.98,57.57 28.07,57.42 28.13,57.32C28.2,57.23 28.22,57.16 28.27,57.1C28.31,57.03 28.35,56.96 28.39,56.92C28.43,56.89 28.44,56.9 28.5,56.86C28.57,56.83 28.6,56.79 28.79,56.72C28.99,56.65 29.32,56.55 29.69,56.46C30.06,56.38 30.58,56.28 31.02,56.19C31.47,56.11 31.98,56.02 32.36,55.95C32.73,55.88 33.03,55.85 33.28,55.77C33.52,55.69 33.68,55.61 33.82,55.47C33.97,55.34 34.09,55.14 34.15,54.94C34.21,54.75 34.21,54.52 34.17,54.32C34.12,54.13 34.01,53.92 33.87,53.78C33.74,53.63 33.54,53.51 33.34,53.45C33.15,53.39 32.98,53.39 32.72,53.43Z"/><path id="l13-s6" d="M31.63,53.63C31.4,53.66 31.19,53.75 30.89,53.84C30.58,53.92 30.18,54.04 29.8,54.16C29.43,54.27 29.01,54.4 28.65,54.52C28.3,54.65 27.96,54.75 27.68,54.89C27.41,55.04 27.16,55.21 26.98,55.39C26.8,55.58 26.68,55.82 26.6,55.99C26.51,56.16 26.5,56.31 26.47,56.41C26.43,56.52 26.42,56.53 26.39,56.63C26.36,56.74 26.29,56.9 26.3,57.04C26.31,57.17 26.35,57.32 26.43,57.43C26.5,57.54 26.61,57.65 26.73,57.71C26.85,57.77 27,57.81 27.14,57.8C27.27,57.79 27.42,57.75 27.53,57.67C27.64,57.6 27.74,57.46 27.81,57.37C27.88,57.28 27.91,57.22 27.96,57.14C28.01,57.07 28.07,56.99 28.13,56.94C28.18,56.89 28.21,56.87 28.28,56.83C28.34,56.8 28.36,56.76 28.52,56.71C28.68,56.65 28.93,56.57 29.23,56.5C29.53,56.43 29.96,56.36 30.32,56.29C30.69,56.23 31.11,56.17 31.41,56.11C31.72,56.06 31.96,56.04 32.17,55.97C32.39,55.9 32.57,55.81 32.72,55.68C32.87,55.54 32.99,55.34 33.05,55.15C33.11,54.96 33.11,54.72 33.07,54.53C33.02,54.33 32.91,54.13 32.78,53.98C32.64,53.83 32.44,53.71 32.25,53.65C32.06,53.59 31.85,53.6 31.63,53.63Z"/><path id="l13-s7" d="M55.1,41.51C54.99,42.06 54.79,42.62 54.54,43.11C54.3,43.61 53.97,44.08 53.6,44.47C53.24,44.86 52.81,45.2 52.37,45.45C51.93,45.7 51.44,45.87 50.96,45.95C50.49,46.03 49.98,46.03 49.52,45.93C49.06,45.84 48.59,45.65 48.18,45.39C47.78,45.13 47.39,44.78 47.08,44.38C46.77,43.98 46.51,43.5 46.33,43C46.14,42.5 46.03,41.93 45.99,41.38C45.95,40.83 45.99,40.24 46.1,39.69C46.21,39.14 46.41,38.58 46.66,38.09C46.9,37.59 47.23,37.12 47.6,36.73C47.96,36.34 48.39,36 48.83,35.75C49.27,35.5 49.76,35.33 50.24,35.25C50.71,35.17 51.22,35.17 51.68,35.27C52.14,35.36 52.61,35.55 53.02,35.81C53.42,36.07 53.81,36.42 54.12,36.82C54.43,37.22 54.69,37.7 54.87,38.2C55.06,38.7 55.17,39.27 55.21,39.82C55.25,40.37 55.21,40.96 55.1,41.51Z"/><path id="l13-s8" d="M47.42,39.06C47.16,39.28 47.3,39.25 47.2,39.38C47.1,39.52 46.97,39.68 46.81,39.89C46.65,40.09 46.45,40.35 46.24,40.62C46.04,40.89 45.81,41.19 45.59,41.52C45.37,41.84 45.13,42.18 44.92,42.56C44.7,42.93 44.48,43.32 44.3,43.76C44.12,44.21 43.92,44.68 43.84,45.22C43.75,45.75 43.7,46.41 43.77,46.97C43.84,47.53 44.05,48.1 44.26,48.59C44.46,49.07 44.73,49.48 45,49.89C45.27,50.29 45.57,50.67 45.87,51.03C46.17,51.4 46.49,51.75 46.79,52.09C47.1,52.42 47.41,52.75 47.7,53.05C47.98,53.34 48.27,53.63 48.51,53.87C48.75,54.12 48.97,54.33 49.14,54.51C49.31,54.7 49.28,54.76 49.54,54.97C49.8,55.18 50.27,55.62 50.7,55.77C51.13,55.92 51.66,55.96 52.1,55.87C52.55,55.79 53.03,55.56 53.37,55.26C53.72,54.97 54.02,54.53 54.17,54.1C54.32,53.67 54.36,53.14 54.27,52.7C54.19,52.25 53.85,51.73 53.66,51.43C53.48,51.12 53.37,51.07 53.18,50.85C52.98,50.63 52.74,50.37 52.5,50.11C52.26,49.85 52,49.57 51.75,49.28C51.49,49 51.23,48.7 50.98,48.41C50.74,48.12 50.49,47.82 50.29,47.55C50.08,47.28 49.89,47 49.75,46.78C49.61,46.57 49.51,46.35 49.46,46.26C49.41,46.17 49.43,46.2 49.43,46.23C49.43,46.25 49.43,46.41 49.46,46.41C49.48,46.41 49.51,46.33 49.58,46.23C49.65,46.13 49.77,45.97 49.9,45.8C50.04,45.64 50.21,45.45 50.39,45.26C50.57,45.07 50.77,44.87 50.97,44.67C51.16,44.48 51.37,44.28 51.57,44.08C51.77,43.88 51.99,43.66 52.16,43.47C52.33,43.28 52.41,43.29 52.58,42.94C52.76,42.6 53.14,41.92 53.21,41.39C53.27,40.86 53.18,40.23 52.97,39.73C52.76,39.24 52.37,38.74 51.94,38.42C51.51,38.09 50.92,37.86 50.39,37.79C49.86,37.73 49.23,37.82 48.73,38.03C48.24,38.24 47.67,38.83 47.42,39.06Z"/><path id="l13-s9" d="M53.26,54.6C53.26,54.87 53.21,55.15 53.11,55.4C53.01,55.66 52.86,55.91 52.68,56.13C52.49,56.34 52.25,56.55 52,56.7C51.74,56.86 51.45,56.99 51.15,57.07C50.85,57.16 50.52,57.2 50.2,57.2C49.88,57.2 49.55,57.16 49.25,57.07C48.95,56.99 48.66,56.86 48.4,56.7C48.15,56.55 47.91,56.34 47.72,56.13C47.54,55.91 47.39,55.66 47.29,55.4C47.19,55.15 47.14,54.87 47.14,54.6C47.14,54.33 47.19,54.05 47.29,53.8C47.39,53.54 47.54,53.29 47.72,53.07C47.91,52.86 48.15,52.65 48.4,52.5C48.66,52.34 48.95,52.21 49.25,52.13C49.55,52.04 49.88,52 50.2,52C50.52,52 50.85,52.04 51.15,52.13C51.45,52.21 51.74,52.34 52,52.5C52.25,52.65 52.49,52.86 52.68,53.07C52.86,53.29 53.01,53.54 53.11,53.8C53.21,54.05 53.26,54.33 53.26,54.6Z"/><path id="l13-s10" d="M49.76,53.08C49.53,53.15 49.32,53.27 49.02,53.41C48.72,53.55 48.32,53.73 47.95,53.91C47.58,54.08 47.16,54.28 46.82,54.45C46.48,54.62 46.16,54.77 45.9,54.94C45.64,55.1 45.43,55.27 45.26,55.45C45.1,55.63 44.99,55.85 44.91,56.01C44.83,56.17 44.81,56.31 44.78,56.41C44.74,56.51 44.73,56.51 44.7,56.61C44.67,56.71 44.6,56.88 44.6,57.01C44.6,57.15 44.65,57.3 44.71,57.41C44.78,57.53 44.9,57.64 45.01,57.7C45.13,57.76 45.28,57.8 45.41,57.8C45.55,57.8 45.7,57.75 45.81,57.69C45.93,57.62 46.03,57.47 46.1,57.39C46.17,57.3 46.2,57.25 46.25,57.18C46.3,57.11 46.36,57.05 46.42,56.99C46.47,56.94 46.52,56.91 46.6,56.86C46.68,56.8 46.73,56.75 46.9,56.66C47.08,56.58 47.35,56.45 47.66,56.33C47.97,56.21 48.41,56.07 48.78,55.94C49.14,55.82 49.57,55.69 49.88,55.58C50.19,55.48 50.43,55.42 50.64,55.32C50.85,55.21 51.02,55.1 51.14,54.94C51.27,54.79 51.36,54.57 51.39,54.37C51.42,54.18 51.39,53.94 51.32,53.76C51.24,53.57 51.1,53.38 50.94,53.26C50.79,53.13 50.57,53.04 50.37,53.01C50.18,52.98 49.98,53.02 49.76,53.08Z"/><path id="l13-s11" d="M48.78,53.24C48.52,53.29 48.24,53.41 47.87,53.53C47.51,53.65 47.01,53.81 46.56,53.97C46.11,54.12 45.6,54.3 45.18,54.45C44.77,54.61 44.39,54.73 44.08,54.89C43.77,55.05 43.53,55.22 43.34,55.41C43.15,55.6 43.02,55.86 42.94,56.03C42.85,56.21 42.85,56.36 42.83,56.47C42.8,56.58 42.79,56.57 42.77,56.67C42.75,56.77 42.69,56.95 42.7,57.08C42.72,57.21 42.77,57.36 42.85,57.47C42.93,57.57 43.05,57.67 43.17,57.73C43.29,57.78 43.45,57.81 43.58,57.8C43.71,57.78 43.86,57.73 43.97,57.65C44.07,57.57 44.16,57.42 44.23,57.33C44.3,57.24 44.32,57.17 44.36,57.11C44.41,57.04 44.45,56.98 44.49,56.94C44.53,56.9 44.54,56.91 44.61,56.87C44.68,56.83 44.72,56.78 44.92,56.71C45.12,56.63 45.45,56.52 45.83,56.41C46.2,56.31 46.72,56.19 47.17,56.08C47.61,55.98 48.13,55.87 48.5,55.78C48.88,55.69 49.18,55.65 49.42,55.56C49.67,55.46 49.82,55.38 49.96,55.24C50.1,55.09 50.21,54.89 50.26,54.7C50.31,54.5 50.31,54.27 50.26,54.08C50.2,53.88 50.08,53.68 49.94,53.54C49.79,53.4 49.59,53.29 49.4,53.24C49.2,53.19 49.03,53.2 48.78,53.24Z"/><path id="l13-s12" d="M47.72,53.43C47.47,53.47 47.19,53.57 46.82,53.68C46.45,53.78 45.95,53.92 45.5,54.06C45.05,54.19 44.54,54.34 44.12,54.48C43.71,54.62 43.32,54.73 43.01,54.88C42.69,55.03 42.44,55.2 42.24,55.39C42.05,55.58 41.92,55.85 41.83,56.03C41.75,56.21 41.75,56.36 41.72,56.47C41.7,56.58 41.69,56.57 41.67,56.68C41.65,56.78 41.59,56.95 41.6,57.09C41.62,57.22 41.68,57.36 41.75,57.47C41.83,57.58 41.95,57.68 42.08,57.73C42.2,57.79 42.35,57.81 42.49,57.8C42.62,57.78 42.76,57.72 42.87,57.65C42.98,57.57 43.07,57.42 43.13,57.32C43.2,57.23 43.22,57.16 43.27,57.1C43.31,57.03 43.35,56.96 43.39,56.92C43.43,56.89 43.44,56.9 43.5,56.86C43.57,56.83 43.6,56.79 43.79,56.72C43.99,56.65 44.32,56.55 44.69,56.46C45.06,56.38 45.58,56.28 46.02,56.19C46.47,56.11 46.98,56.02 47.36,55.95C47.73,55.88 48.03,55.85 48.28,55.77C48.52,55.69 48.68,55.61 48.82,55.47C48.97,55.34 49.09,55.14 49.15,54.94C49.21,54.75 49.21,54.52 49.17,54.32C49.12,54.13 49.01,53.92 48.87,53.78C48.74,53.63 48.54,53.51 48.34,53.45C48.15,53.39 47.98,53.39 47.72,53.43Z"/><path id="l13-s13" d="M46.63,53.63C46.4,53.66 46.19,53.75 45.89,53.84C45.58,53.92 45.18,54.04 44.8,54.16C44.43,54.27 44.01,54.4 43.65,54.52C43.3,54.65 42.96,54.75 42.68,54.89C42.41,55.04 42.16,55.21 41.98,55.39C41.8,55.58 41.68,55.82 41.6,55.99C41.51,56.16 41.5,56.31 41.47,56.41C41.43,56.52 41.42,56.53 41.39,56.63C41.36,56.74 41.29,56.9 41.3,57.04C41.31,57.17 41.35,57.32 41.43,57.43C41.5,57.54 41.61,57.65 41.73,57.71C41.85,57.77 42,57.81 42.14,57.8C42.27,57.79 42.42,57.75 42.53,57.67C42.64,57.6 42.74,57.46 42.81,57.37C42.88,57.28 42.91,57.22 42.96,57.14C43.01,57.07 43.07,56.99 43.13,56.94C43.18,56.89 43.21,56.87 43.28,56.83C43.34,56.8 43.36,56.76 43.52,56.71C43.68,56.65 43.93,56.57 44.23,56.5C44.53,56.43 44.96,56.36 45.32,56.29C45.69,56.23 46.11,56.17 46.41,56.11C46.72,56.06 46.96,56.04 47.17,55.97C47.39,55.9 47.57,55.81 47.72,55.68C47.87,55.54 47.99,55.34 48.05,55.15C48.11,54.96 48.11,54.72 48.07,54.53C48.02,54.33 47.91,54.13 47.78,53.98C47.64,53.83 47.44,53.71 47.25,53.65C47.06,53.59 46.85,53.6 46.63,53.63Z"/><clipPath id="l13-clip"><use href="#l13-s0" /><use href="#l13-s1" /><use href="#l13-s2" /><use href="#l13-s3" /><use href="#l13-s4" /><use href="#l13-s5" /><use href="#l13-s6" /><use href="#l13-s7" /><use href="#l13-s8" /><use href="#l13-s9" /><use href="#l13-s10" /><use href="#l13-s11" /><use href="#l13-s12" /><use href="#l13-s13" /></clipPath><mask id="l13-rim" maskUnits="userSpaceOnUse" x="0" y="0" width="64" height="64"><rect width="64" height="64" fill="#000"/><use href="#l13-s0" fill="#fff"/><use href="#l13-s1" fill="#fff"/><use href="#l13-s2" fill="#fff"/><use href="#l13-s3" fill="#fff"/><use href="#l13-s4" fill="#fff"/><use href="#l13-s5" fill="#fff"/><use href="#l13-s6" fill="#fff"/><use href="#l13-s7" fill="#fff"/><use href="#l13-s8" fill="#fff"/><use href="#l13-s9" fill="#fff"/><use href="#l13-s10" fill="#fff"/><use href="#l13-s11" fill="#fff"/><use href="#l13-s12" fill="#fff"/><use href="#l13-s13" fill="#fff"/><g transform="translate(1.9,2.4)"><use href="#l13-s0" fill="#000"/><use href="#l13-s1" fill="#000"/><use href="#l13-s2" fill="#000"/><use href="#l13-s3" fill="#000"/><use href="#l13-s4" fill="#000"/><use href="#l13-s5" fill="#000"/><use href="#l13-s6" fill="#000"/><use href="#l13-s7" fill="#000"/><use href="#l13-s8" fill="#000"/><use href="#l13-s9" fill="#000"/><use href="#l13-s10" fill="#000"/><use href="#l13-s11" fill="#000"/><use href="#l13-s12" fill="#000"/><use href="#l13-s13" fill="#000"/></g></mask><mask id="l13-core" maskUnits="userSpaceOnUse" x="0" y="0" width="64" height="64"><rect width="64" height="64" fill="#000"/><use href="#l13-s0" fill="#fff"/><use href="#l13-s1" fill="#fff"/><use href="#l13-s2" fill="#fff"/><use href="#l13-s3" fill="#fff"/><use href="#l13-s4" fill="#fff"/><use href="#l13-s5" fill="#fff"/><use href="#l13-s6" fill="#fff"/><use href="#l13-s7" fill="#fff"/><use href="#l13-s8" fill="#fff"/><use href="#l13-s9" fill="#fff"/><use href="#l13-s10" fill="#fff"/><use href="#l13-s11" fill="#fff"/><use href="#l13-s12" fill="#fff"/><use href="#l13-s13" fill="#fff"/><g transform="translate(-3.2,-4)"><use href="#l13-s0" fill="#000"/><use href="#l13-s1" fill="#000"/><use href="#l13-s2" fill="#000"/><use href="#l13-s3" fill="#000"/><use href="#l13-s4" fill="#000"/><use href="#l13-s5" fill="#000"/><use href="#l13-s6" fill="#000"/><use href="#l13-s7" fill="#000"/><use href="#l13-s8" fill="#000"/><use href="#l13-s9" fill="#000"/><use href="#l13-s10" fill="#000"/><use href="#l13-s11" fill="#000"/><use href="#l13-s12" fill="#000"/><use href="#l13-s13" fill="#000"/></g></mask></defs><use href="#l13-s0" fill="#101010" stroke="#101010" stroke-width="1.9" stroke-linejoin="round" stroke-linecap="round"/><use href="#l13-s1" fill="#101010" stroke="#101010" stroke-width="1.9" stroke-linejoin="round" stroke-linecap="round"/><use href="#l13-s2" fill="#101010" stroke="#101010" stroke-width="1.9" stroke-linejoin="round" stroke-linecap="round"/><use href="#l13-s3" fill="#101010" stroke="#101010" stroke-width="1.9" stroke-linejoin="round" stroke-linecap="round"/><use href="#l13-s4" fill="#101010" stroke="#101010" stroke-width="1.9" stroke-linejoin="round" stroke-linecap="round"/><use href="#l13-s5" fill="#101010" stroke="#101010" stroke-width="1.9" stroke-linejoin="round" stroke-linecap="round"/><use href="#l13-s6" fill="#101010" stroke="#101010" stroke-width="1.9" stroke-linejoin="round" stroke-linecap="round"/><use href="#l13-s7" fill="#101010" stroke="#101010" stroke-width="1.9" stroke-linejoin="round" stroke-linecap="round"/><use href="#l13-s8" fill="#101010" stroke="#101010" stroke-width="1.9" stroke-linejoin="round" stroke-linecap="round"/><use href="#l13-s9" fill="#101010" stroke="#101010" stroke-width="1.9" stroke-linejoin="round" stroke-linecap="round"/><use href="#l13-s10" fill="#101010" stroke="#101010" stroke-width="1.9" stroke-linejoin="round" stroke-linecap="round"/><use href="#l13-s11" fill="#101010" stroke="#101010" stroke-width="1.9" stroke-linejoin="round" stroke-linecap="round"/><use href="#l13-s12" fill="#101010" stroke="#101010" stroke-width="1.9" stroke-linejoin="round" stroke-linecap="round"/><use href="#l13-s13" fill="#101010" stroke="#101010" stroke-width="1.9" stroke-linejoin="round" stroke-linecap="round"/><use href="#l13-s0" fill="url(#l13-volV)"/><use href="#l13-s1" fill="url(#l13-volV)"/><use href="#l13-s2" fill="url(#l13-volV)"/><use href="#l13-s3" fill="url(#l13-volV)"/><use href="#l13-s4" fill="url(#l13-volV)"/><use href="#l13-s5" fill="url(#l13-volV)"/><use href="#l13-s6" fill="url(#l13-volV)"/><use href="#l13-s7" fill="url(#l13-volV)"/><use href="#l13-s8" fill="url(#l13-volV)"/><use href="#l13-s9" fill="url(#l13-volV)"/><use href="#l13-s10" fill="url(#l13-volV)"/><use href="#l13-s11" fill="url(#l13-volV)"/><use href="#l13-s12" fill="url(#l13-volV)"/><use href="#l13-s13" fill="url(#l13-volV)"/><g clip-path="url(#l13-clip)"><g transform="translate(3.4,4.0)" opacity="0.26"><use href="#l13-s0" fill="#3b3b3b"/><use href="#l13-s1" fill="#3b3b3b"/><use href="#l13-s2" fill="#3b3b3b"/><use href="#l13-s3" fill="#3b3b3b"/><use href="#l13-s4" fill="#3b3b3b"/><use href="#l13-s5" fill="#3b3b3b"/><use href="#l13-s6" fill="#3b3b3b"/><use href="#l13-s7" fill="#3b3b3b"/><use href="#l13-s8" fill="#3b3b3b"/><use href="#l13-s9" fill="#3b3b3b"/><use href="#l13-s10" fill="#3b3b3b"/><use href="#l13-s11" fill="#3b3b3b"/><use href="#l13-s12" fill="#3b3b3b"/><use href="#l13-s13" fill="#3b3b3b"/></g><g transform="translate(6.6,7.6)" opacity="0.13"><use href="#l13-s0" fill="#101010"/><use href="#l13-s1" fill="#101010"/><use href="#l13-s2" fill="#101010"/><use href="#l13-s3" fill="#101010"/><use href="#l13-s4" fill="#101010"/><use href="#l13-s5" fill="#101010"/><use href="#l13-s6" fill="#101010"/><use href="#l13-s7" fill="#101010"/><use href="#l13-s8" fill="#101010"/><use href="#l13-s9" fill="#101010"/><use href="#l13-s10" fill="#101010"/><use href="#l13-s11" fill="#101010"/><use href="#l13-s12" fill="#101010"/><use href="#l13-s13" fill="#101010"/></g></g><g mask="url(#l13-core)" opacity="0.2"><rect width="64" height="64" fill="#101010"/></g><g mask="url(#l13-rim)" opacity="0.52"><rect width="64" height="64" fill="#fbfbfb"/></g><g clip-path="url(#l13-clip)"><path d="M34.6,54.2C34.6,54.26 34.59,54.33 34.56,54.39C34.54,54.44 34.5,54.5 34.45,54.55C34.4,54.6 34.34,54.65 34.27,54.69C34.2,54.72 34.13,54.75 34.05,54.77C33.97,54.79 33.88,54.8 33.8,54.8C33.72,54.8 33.63,54.79 33.55,54.77C33.47,54.75 33.4,54.72 33.33,54.69C33.26,54.65 33.2,54.6 33.15,54.55C33.1,54.5 33.06,54.44 33.04,54.39C33.01,54.33 33,54.26 33,54.2C33,54.14 33.01,54.07 33.04,54.01C33.06,53.96 33.1,53.9 33.15,53.85C33.2,53.8 33.26,53.75 33.33,53.71C33.4,53.68 33.47,53.65 33.55,53.63C33.63,53.61 33.72,53.6 33.8,53.6C33.88,53.6 33.97,53.61 34.05,53.63C34.13,53.65 34.2,53.68 34.27,53.71C34.34,53.75 34.4,53.8 34.45,53.85C34.5,53.9 34.54,53.96 34.56,54.01C34.59,54.07 34.6,54.14 34.6,54.2Z" fill="#fbfbfb" opacity="0.5"/><path d="M33.5,54.2C33.5,54.26 33.49,54.33 33.46,54.39C33.44,54.44 33.4,54.5 33.35,54.55C33.3,54.6 33.24,54.65 33.17,54.69C33.1,54.72 33.03,54.75 32.95,54.77C32.87,54.79 32.78,54.8 32.7,54.8C32.62,54.8 32.53,54.79 32.45,54.77C32.37,54.75 32.3,54.72 32.23,54.69C32.16,54.65 32.1,54.6 32.05,54.55C32,54.5 31.96,54.44 31.94,54.39C31.91,54.33 31.9,54.26 31.9,54.2C31.9,54.14 31.91,54.07 31.94,54.01C31.96,53.96 32,53.9 32.05,53.85C32.1,53.8 32.16,53.75 32.23,53.71C32.3,53.68 32.37,53.65 32.45,53.63C32.53,53.61 32.62,53.6 32.7,53.6C32.78,53.6 32.87,53.61 32.95,53.63C33.03,53.65 33.1,53.68 33.17,53.71C33.24,53.75 33.3,53.8 33.35,53.85C33.4,53.9 33.44,53.96 33.46,54.01C33.49,54.07 33.5,54.14 33.5,54.2Z" fill="#fbfbfb" opacity="0.5"/><path d="M32.4,54.2C32.4,54.26 32.39,54.33 32.36,54.39C32.34,54.44 32.3,54.5 32.25,54.55C32.2,54.6 32.14,54.65 32.07,54.69C32,54.72 31.93,54.75 31.85,54.77C31.77,54.79 31.68,54.8 31.6,54.8C31.52,54.8 31.43,54.79 31.35,54.77C31.27,54.75 31.2,54.72 31.13,54.69C31.06,54.65 31,54.6 30.95,54.55C30.9,54.5 30.86,54.44 30.84,54.39C30.81,54.33 30.8,54.26 30.8,54.2C30.8,54.14 30.81,54.07 30.84,54.01C30.86,53.96 30.9,53.9 30.95,53.85C31,53.8 31.06,53.75 31.13,53.71C31.2,53.68 31.27,53.65 31.35,53.63C31.43,53.61 31.52,53.6 31.6,53.6C31.68,53.6 31.77,53.61 31.85,53.63C31.93,53.65 32,53.68 32.07,53.71C32.14,53.75 32.2,53.8 32.25,53.85C32.3,53.9 32.34,53.96 32.36,54.01C32.39,54.07 32.4,54.14 32.4,54.2Z" fill="#fbfbfb" opacity="0.5"/><path d="M31.3,54.2C31.3,54.26 31.29,54.33 31.26,54.39C31.24,54.44 31.2,54.5 31.15,54.55C31.1,54.6 31.04,54.65 30.97,54.69C30.9,54.72 30.83,54.75 30.75,54.77C30.67,54.79 30.58,54.8 30.5,54.8C30.42,54.8 30.33,54.79 30.25,54.77C30.17,54.75 30.1,54.72 30.03,54.69C29.96,54.65 29.9,54.6 29.85,54.55C29.8,54.5 29.76,54.44 29.74,54.39C29.71,54.33 29.7,54.26 29.7,54.2C29.7,54.14 29.71,54.07 29.74,54.01C29.76,53.96 29.8,53.9 29.85,53.85C29.9,53.8 29.96,53.75 30.03,53.71C30.1,53.68 30.17,53.65 30.25,53.63C30.33,53.61 30.42,53.6 30.5,53.6C30.58,53.6 30.67,53.61 30.75,53.63C30.83,53.65 30.9,53.68 30.97,53.71C31.04,53.75 31.1,53.8 31.15,53.85C31.2,53.9 31.24,53.96 31.26,54.01C31.29,54.07 31.3,54.14 31.3,54.2Z" fill="#fbfbfb" opacity="0.5"/><path d="M32.59,46.6q2.6,1.6 5.2,-0.4" fill="none" stroke="#3b3b3b" stroke-width="0.7" opacity="0.4" stroke-linecap="round" stroke-linejoin="round"/><path d="M49.6,54.2C49.6,54.26 49.59,54.33 49.56,54.39C49.54,54.44 49.5,54.5 49.45,54.55C49.4,54.6 49.34,54.65 49.27,54.69C49.2,54.72 49.13,54.75 49.05,54.77C48.97,54.79 48.88,54.8 48.8,54.8C48.72,54.8 48.63,54.79 48.55,54.77C48.47,54.75 48.4,54.72 48.33,54.69C48.26,54.65 48.2,54.6 48.15,54.55C48.1,54.5 48.06,54.44 48.04,54.39C48.01,54.33 48,54.26 48,54.2C48,54.14 48.01,54.07 48.04,54.01C48.06,53.96 48.1,53.9 48.15,53.85C48.2,53.8 48.26,53.75 48.33,53.71C48.4,53.68 48.47,53.65 48.55,53.63C48.63,53.61 48.72,53.6 48.8,53.6C48.88,53.6 48.97,53.61 49.05,53.63C49.13,53.65 49.2,53.68 49.27,53.71C49.34,53.75 49.4,53.8 49.45,53.85C49.5,53.9 49.54,53.96 49.56,54.01C49.59,54.07 49.6,54.14 49.6,54.2Z" fill="#fbfbfb" opacity="0.5"/><path d="M48.5,54.2C48.5,54.26 48.49,54.33 48.46,54.39C48.44,54.44 48.4,54.5 48.35,54.55C48.3,54.6 48.24,54.65 48.17,54.69C48.1,54.72 48.03,54.75 47.95,54.77C47.87,54.79 47.78,54.8 47.7,54.8C47.62,54.8 47.53,54.79 47.45,54.77C47.37,54.75 47.3,54.72 47.23,54.69C47.16,54.65 47.1,54.6 47.05,54.55C47,54.5 46.96,54.44 46.94,54.39C46.91,54.33 46.9,54.26 46.9,54.2C46.9,54.14 46.91,54.07 46.94,54.01C46.96,53.96 47,53.9 47.05,53.85C47.1,53.8 47.16,53.75 47.23,53.71C47.3,53.68 47.37,53.65 47.45,53.63C47.53,53.61 47.62,53.6 47.7,53.6C47.78,53.6 47.87,53.61 47.95,53.63C48.03,53.65 48.1,53.68 48.17,53.71C48.24,53.75 48.3,53.8 48.35,53.85C48.4,53.9 48.44,53.96 48.46,54.01C48.49,54.07 48.5,54.14 48.5,54.2Z" fill="#fbfbfb" opacity="0.5"/><path d="M47.4,54.2C47.4,54.26 47.39,54.33 47.36,54.39C47.34,54.44 47.3,54.5 47.25,54.55C47.2,54.6 47.14,54.65 47.07,54.69C47,54.72 46.93,54.75 46.85,54.77C46.77,54.79 46.68,54.8 46.6,54.8C46.52,54.8 46.43,54.79 46.35,54.77C46.27,54.75 46.2,54.72 46.13,54.69C46.06,54.65 46,54.6 45.95,54.55C45.9,54.5 45.86,54.44 45.84,54.39C45.81,54.33 45.8,54.26 45.8,54.2C45.8,54.14 45.81,54.07 45.84,54.01C45.86,53.96 45.9,53.9 45.95,53.85C46,53.8 46.06,53.75 46.13,53.71C46.2,53.68 46.27,53.65 46.35,53.63C46.43,53.61 46.52,53.6 46.6,53.6C46.68,53.6 46.77,53.61 46.85,53.63C46.93,53.65 47,53.68 47.07,53.71C47.14,53.75 47.2,53.8 47.25,53.85C47.3,53.9 47.34,53.96 47.36,54.01C47.39,54.07 47.4,54.14 47.4,54.2Z" fill="#fbfbfb" opacity="0.5"/><path d="M46.3,54.2C46.3,54.26 46.29,54.33 46.26,54.39C46.24,54.44 46.2,54.5 46.15,54.55C46.1,54.6 46.04,54.65 45.97,54.69C45.9,54.72 45.83,54.75 45.75,54.77C45.67,54.79 45.58,54.8 45.5,54.8C45.42,54.8 45.33,54.79 45.25,54.77C45.17,54.75 45.1,54.72 45.03,54.69C44.96,54.65 44.9,54.6 44.85,54.55C44.8,54.5 44.76,54.44 44.74,54.39C44.71,54.33 44.7,54.26 44.7,54.2C44.7,54.14 44.71,54.07 44.74,54.01C44.76,53.96 44.8,53.9 44.85,53.85C44.9,53.8 44.96,53.75 45.03,53.71C45.1,53.68 45.17,53.65 45.25,53.63C45.33,53.61 45.42,53.6 45.5,53.6C45.58,53.6 45.67,53.61 45.75,53.63C45.83,53.65 45.9,53.68 45.97,53.71C46.04,53.75 46.1,53.8 46.15,53.85C46.2,53.9 46.24,53.96 46.26,54.01C46.29,54.07 46.3,54.14 46.3,54.2Z" fill="#fbfbfb" opacity="0.5"/><path d="M44.39,46.6q2.6,1.6 5.2,-0.4" fill="none" stroke="#3b3b3b" stroke-width="0.7" opacity="0.4" stroke-linecap="round" stroke-linejoin="round"/></g><path d="M30.42,55.87Q28.15,55.74 27.21,58.2Q28.5,56.42 30.98,56.93Z" fill="#101010" stroke="#101010" stroke-width="0.7" stroke-linejoin="round" stroke-linecap="round"/><path d="M30.42,55.87Q28.15,55.74 27.21,58.2Q28.5,56.42 30.98,56.93Z" fill="#fbfbfb"/><path d="M28.52,55.87Q26.25,55.74 25.31,58.2Q26.6,56.42 29.08,56.93Z" fill="#101010" stroke="#101010" stroke-width="0.7" stroke-linejoin="round" stroke-linecap="round"/><path d="M28.52,55.87Q26.25,55.74 25.31,58.2Q26.6,56.42 29.08,56.93Z" fill="#fbfbfb"/><path d="M27.42,55.87Q25.15,55.74 24.21,58.2Q25.5,56.42 27.98,56.93Z" fill="#101010" stroke="#101010" stroke-width="0.7" stroke-linejoin="round" stroke-linecap="round"/><path d="M27.42,55.87Q25.15,55.74 24.21,58.2Q25.5,56.42 27.98,56.93Z" fill="#fbfbfb"/><path d="M27.12,55.87Q24.85,55.74 23.91,58.2Q25.2,56.42 27.68,56.93Z" fill="#101010" stroke="#101010" stroke-width="0.7" stroke-linejoin="round" stroke-linecap="round"/><path d="M27.12,55.87Q24.85,55.74 23.91,58.2Q25.2,56.42 27.68,56.93Z" fill="#fbfbfb"/><path d="M45.42,55.87Q43.15,55.74 42.21,58.2Q43.5,56.42 45.98,56.93Z" fill="#101010" stroke="#101010" stroke-width="0.7" stroke-linejoin="round" stroke-linecap="round"/><path d="M45.42,55.87Q43.15,55.74 42.21,58.2Q43.5,56.42 45.98,56.93Z" fill="#fbfbfb"/><path d="M43.52,55.87Q41.25,55.74 40.31,58.2Q41.6,56.42 44.08,56.93Z" fill="#101010" stroke="#101010" stroke-width="0.7" stroke-linejoin="round" stroke-linecap="round"/><path d="M43.52,55.87Q41.25,55.74 40.31,58.2Q41.6,56.42 44.08,56.93Z" fill="#fbfbfb"/><path d="M42.42,55.87Q40.15,55.74 39.21,58.2Q40.5,56.42 42.98,56.93Z" fill="#101010" stroke="#101010" stroke-width="0.7" stroke-linejoin="round" stroke-linecap="round"/><path d="M42.42,55.87Q40.15,55.74 39.21,58.2Q40.5,56.42 42.98,56.93Z" fill="#fbfbfb"/><path d="M42.12,55.87Q39.85,55.74 38.91,58.2Q40.2,56.42 42.68,56.93Z" fill="#101010" stroke="#101010" stroke-width="0.7" stroke-linejoin="round" stroke-linecap="round"/><path d="M42.12,55.87Q39.85,55.74 38.91,58.2Q40.2,56.42 42.68,56.93Z" fill="#fbfbfb"/></g>
</svg>