<svg xmlns="http://www.w3.org/2000/svg" viewBox="0 0 64 64" width="512" height="512"
     shape-rendering="geometricPrecision">
<defs>
  <!-- Lagy tonusatmenet. Szandekosan nem megy le a legsotetebb arnyekig:
       a kemeny sotet foltok a format nem terfogatosnak, hanem koszosnak
       mutatjak. A melyebb arnyekot kulon retegek adjak. -->
  <linearGradient id="w18-vol" x1="0.18" y1="0.02" x2="0.82" y2="1">
    <stop offset="0"    stop-color="#e2e2e2"/>
    <stop offset="0.30" stop-color="#bdbdbd"/>
    <stop offset="0.66" stop-color="#8f8f8f"/>
    <stop offset="1"    stop-color="#5d5d5d"/>
  </linearGradient>
  <!-- Fuggoleges valtozat. Hosszukas alakzatoknal (fej, lab) a ferde
       atmenet ugy hat, mintha sotet sapka lenne rajtuk; a felulrol jovo
       fenyhez a fuggoleges a termeszetes. -->
  <linearGradient id="w18-volV" x1="0.42" y1="0" x2="0.58" y2="1">
    <stop offset="0"    stop-color="#e2e2e2"/>
    <stop offset="0.34" stop-color="#bdbdbd"/>
    <stop offset="0.74" stop-color="#8f8f8f"/>
    <stop offset="1"    stop-color="#5d5d5d"/>
  </linearGradient>
  <linearGradient id="w18-vol2" x1="0.2" y1="0" x2="0.8" y2="1">
    <stop offset="0"    stop-color="#bdbdbd"/>
    <stop offset="0.5"  stop-color="#5d5d5d"/>
    <stop offset="1"    stop-color="#3b3b3b"/>
  </linearGradient>
  <!-- A membran a test fenyiranyat koveti: bal-felul vilagos. Forditva
       (sotet tetovel) a szarny fekete folttal ult a vilagos sarkanyon. -->
  <linearGradient id="w18-membrane" x1="0.12" y1="0" x2="0.78" y2="1">
    <stop offset="0"    stop-color="#bdbdbd"/>
    <stop offset="0.45" stop-color="#8f8f8f"/>
    <stop offset="1"    stop-color="#5d5d5d"/>
  </linearGradient>
  <radialGradient id="w18-sheen" cx="0.34" cy="0.24" r="0.95">
    <stop offset="0"    stop-color="#fbfbfb" stop-opacity="0.62"/>
    <stop offset="0.38" stop-color="#fbfbfb" stop-opacity="0.22"/>
    <stop offset="1"    stop-color="#fbfbfb" stop-opacity="0"/>
  </radialGradient>

</defs>
<g id="w18"><defs><clipPath id="w18-mclip"><path d="M36,27Q37.68,19.56 45.12,12.12Q48.21,6.94 55.1,3.71Q55.22,7.84 61.03,9.55Q57.51,13.59 60.99,18.46Q56.51,21.42 58.45,29.62Q51.65,30.92 48.54,42.83Q45.37,40.11 37,34.2Q34.4,30.4 36,27Z" clip-rule="evenodd"/></clipPath></defs><path d="M36,27Q37.68,19.56 45.12,12.12Q48.21,6.94 55.1,3.71Q55.22,7.84 61.03,9.55Q57.51,13.59 60.99,18.46Q56.51,21.42 58.45,29.62Q51.65,30.92 48.54,42.83Q45.37,40.11 37,34.2Q34.4,30.4 36,27Z" fill-rule="evenodd" fill="url(#w18-membrane)" stroke="#101010" stroke-width="1.6" stroke-linejoin="round"/><g clip-path="url(#w18-mclip)"><path d="M36,27Q37.68,19.56 45.12,12.12Q48.21,6.94 55.1,3.71Q55.22,7.84 61.03,9.55Q57.51,13.59 60.99,18.46Q56.51,21.42 58.45,29.62Q51.65,30.92 48.54,42.83Q45.37,40.11 37,34.2Q34.4,30.4 36,27Z" fill-rule="evenodd" fill="none" stroke="#101010" stroke-width="5" opacity="0.10"/><path d="M45.12,12.12L55.1,3.71M45.12,12.12L61.03,9.55M45.12,12.12L60.99,18.46M45.12,12.12L58.45,29.62M45.12,12.12L48.54,42.83M36,27L45.12,12.12" fill="none" stroke="#3b3b3b" stroke-width="2.2" opacity="0.13"/><path d="M45.12,12.12L55.1,3.71M45.12,12.12L61.03,9.55M45.12,12.12L60.99,18.46M45.12,12.12L58.45,29.62M45.12,12.12L48.54,42.83M36,27L45.12,12.12" fill="none" stroke="#e2e2e2" stroke-width="0.6" opacity="0.4"/></g><defs><path id="w18-arm-s0" d="M39.02,27.79C39.2,27.32 39.22,26.84 39.3,26.37C39.38,25.9 39.43,25.43 39.5,24.96C39.57,24.48 39.63,24.01 39.73,23.54C39.83,23.06 39.93,22.59 40.09,22.12C40.24,21.65 40.45,21.2 40.67,20.74C40.9,20.28 41.16,19.84 41.43,19.37C41.7,18.9 41.97,18.43 42.29,17.94C42.61,17.46 42.95,16.96 43.34,16.47C43.74,15.98 44.15,15.48 44.64,14.98C45.14,14.48 45.94,13.86 46.3,13.48C46.66,13.1 46.72,12.99 46.82,12.71C46.92,12.42 46.94,12.07 46.89,11.78C46.83,11.48 46.68,11.17 46.48,10.94C46.28,10.71 45.99,10.52 45.71,10.42C45.42,10.32 45.07,10.3 44.78,10.35C44.48,10.41 44.38,10.44 43.94,10.76C43.5,11.08 42.7,11.77 42.12,12.28C41.53,12.79 40.96,13.3 40.44,13.81C39.91,14.33 39.41,14.84 38.96,15.36C38.5,15.88 38.07,16.4 37.69,16.94C37.31,17.47 36.99,18.02 36.67,18.56C36.35,19.1 36.07,19.64 35.78,20.16C35.48,20.69 35.19,21.2 34.91,21.71C34.64,22.22 34.36,22.72 34.12,23.23C33.88,23.73 33.65,24.24 33.46,24.74C33.27,25.24 33.06,25.7 32.98,26.21C32.9,26.72 32.85,27.32 32.99,27.83C33.13,28.33 33.44,28.85 33.81,29.22C34.18,29.58 34.71,29.89 35.21,30.02C35.71,30.15 36.32,30.15 36.83,30.01C37.33,29.87 37.85,29.56 38.22,29.19C38.58,28.82 38.84,28.26 39.02,27.79Z"/><path id="w18-arm-s1" d="M46.36,13.51C46.75,13.2 47.39,12.54 47.85,12.08C48.32,11.62 48.73,11.17 49.13,10.74C49.53,10.31 49.9,9.89 50.25,9.51C50.61,9.12 50.93,8.76 51.26,8.43C51.59,8.1 51.92,7.82 52.22,7.54C52.52,7.26 52.81,7.01 53.07,6.75C53.32,6.49 53.54,6.22 53.75,5.97C53.97,5.72 54.15,5.47 54.34,5.25C54.53,5.02 54.7,4.8 54.87,4.61C55.05,4.42 55.29,4.23 55.41,4.11C55.52,4 55.53,3.98 55.57,3.91C55.6,3.83 55.61,3.73 55.6,3.65C55.59,3.57 55.55,3.47 55.5,3.41C55.45,3.34 55.37,3.28 55.29,3.25C55.22,3.22 55.12,3.2 55.04,3.21C54.95,3.22 54.94,3.23 54.79,3.31C54.65,3.39 54.4,3.57 54.17,3.7C53.94,3.83 53.68,3.94 53.42,4.07C53.15,4.2 52.86,4.32 52.56,4.48C52.27,4.63 51.95,4.8 51.64,5C51.33,5.2 51.02,5.44 50.69,5.69C50.35,5.94 50.01,6.22 49.62,6.49C49.24,6.77 48.82,7.04 48.38,7.34C47.94,7.64 47.47,7.94 46.99,8.29C46.51,8.63 45.99,8.99 45.48,9.4C44.96,9.81 44.24,10.38 43.88,10.73C43.53,11.09 43.45,11.24 43.35,11.54C43.26,11.83 43.24,12.2 43.3,12.5C43.36,12.8 43.53,13.13 43.73,13.36C43.94,13.59 44.24,13.79 44.54,13.89C44.83,13.98 45.2,14 45.5,13.94C45.8,13.88 45.97,13.82 46.36,13.51Z"/><path id="w18-arm-s2" d="M45.68,13.9C46.17,13.77 47.03,13.43 47.67,13.2C48.31,12.97 48.91,12.74 49.5,12.53C50.1,12.32 50.67,12.12 51.24,11.94C51.8,11.76 52.35,11.59 52.89,11.46C53.42,11.32 53.95,11.24 54.46,11.15C54.97,11.06 55.47,10.99 55.95,10.9C56.43,10.82 56.89,10.71 57.34,10.62C57.79,10.52 58.22,10.42 58.65,10.34C59.07,10.26 59.48,10.18 59.88,10.14C60.28,10.09 60.8,10.08 61.04,10.06C61.27,10.03 61.21,10.03 61.29,9.99C61.36,9.94 61.43,9.87 61.47,9.8C61.51,9.73 61.54,9.63 61.54,9.55C61.54,9.46 61.51,9.37 61.47,9.3C61.42,9.22 61.35,9.16 61.28,9.11C61.21,9.07 61.27,9.07 61.03,9.05C60.79,9.03 60.27,9.02 59.86,8.98C59.45,8.95 59.03,8.89 58.59,8.85C58.14,8.8 57.69,8.74 57.21,8.71C56.73,8.68 56.24,8.65 55.72,8.66C55.21,8.67 54.69,8.72 54.14,8.77C53.6,8.82 53.04,8.89 52.46,8.95C51.88,9.02 51.27,9.06 50.65,9.13C50.02,9.2 49.38,9.27 48.71,9.38C48.05,9.48 47.36,9.6 46.67,9.76C45.97,9.92 45.05,10.16 44.56,10.34C44.08,10.53 43.96,10.63 43.75,10.86C43.54,11.09 43.37,11.41 43.31,11.71C43.24,12.02 43.25,12.38 43.34,12.68C43.44,12.97 43.63,13.28 43.86,13.49C44.09,13.7 44.41,13.87 44.71,13.93C45.02,14 45.18,14.02 45.68,13.9Z"/><path id="w18-arm-s3" d="M44.72,13.94C45.18,14.07 45.99,14.17 46.61,14.28C47.23,14.39 47.83,14.49 48.43,14.61C49.03,14.72 49.62,14.84 50.2,14.97C50.79,15.11 51.36,15.25 51.92,15.43C52.47,15.6 53.01,15.82 53.54,16.02C54.06,16.22 54.57,16.44 55.09,16.64C55.6,16.83 56.11,17.01 56.62,17.19C57.12,17.37 57.61,17.53 58.09,17.72C58.57,17.9 59.03,18.07 59.48,18.27C59.92,18.47 60.49,18.78 60.74,18.9C60.99,19.01 60.91,18.96 60.99,18.96C61.08,18.96 61.17,18.93 61.24,18.89C61.32,18.85 61.38,18.78 61.43,18.7C61.47,18.63 61.49,18.54 61.49,18.45C61.49,18.37 61.46,18.27 61.42,18.2C61.38,18.13 61.46,18.17 61.23,18.02C61,17.86 60.44,17.53 60.03,17.26C59.63,16.99 59.22,16.69 58.79,16.39C58.36,16.09 57.93,15.78 57.47,15.48C57.01,15.18 56.54,14.87 56.04,14.59C55.54,14.32 55.02,14.07 54.48,13.81C53.95,13.56 53.39,13.32 52.84,13.06C52.28,12.8 51.72,12.53 51.14,12.26C50.56,12 49.96,11.73 49.35,11.49C48.74,11.24 48.11,11 47.47,10.8C46.83,10.61 46,10.38 45.52,10.3C45.03,10.23 44.85,10.25 44.56,10.35C44.26,10.44 43.96,10.64 43.75,10.87C43.54,11.09 43.37,11.42 43.3,11.72C43.24,12.02 43.25,12.39 43.35,12.68C43.44,12.98 43.64,13.28 43.87,13.49C44.09,13.7 44.26,13.81 44.72,13.94Z"/><path id="w18-arm-s4" d="M43.73,13.35C44.06,13.77 44.77,14.47 45.29,15.02C45.82,15.57 46.36,16.1 46.89,16.65C47.42,17.2 47.96,17.75 48.49,18.31C49.01,18.87 49.53,19.43 50.02,20.01C50.51,20.59 50.98,21.19 51.44,21.78C51.91,22.36 52.35,22.96 52.82,23.53C53.28,24.1 53.76,24.65 54.22,25.19C54.69,25.74 55.16,26.27 55.6,26.8C56.04,27.33 56.48,27.84 56.89,28.36C57.29,28.88 57.81,29.62 58.03,29.91C58.25,30.19 58.15,30.04 58.23,30.08C58.3,30.11 58.4,30.13 58.49,30.13C58.57,30.12 58.66,30.09 58.73,30.04C58.8,29.99 58.87,29.92 58.9,29.84C58.94,29.77 58.96,29.67 58.95,29.58C58.94,29.5 59.05,29.65 58.86,29.34C58.68,29.03 58.18,28.28 57.84,27.71C57.5,27.14 57.17,26.55 56.83,25.94C56.49,25.34 56.14,24.71 55.78,24.09C55.42,23.47 55.04,22.83 54.64,22.2C54.24,21.58 53.8,20.97 53.37,20.34C52.93,19.72 52.47,19.1 52.03,18.47C51.59,17.83 51.17,17.18 50.73,16.53C50.29,15.88 49.85,15.22 49.4,14.58C48.95,13.93 48.48,13.29 48,12.67C47.52,12.06 46.89,11.27 46.51,10.89C46.13,10.5 46,10.45 45.71,10.36C45.41,10.26 45.05,10.24 44.75,10.3C44.44,10.36 44.12,10.52 43.89,10.73C43.65,10.93 43.45,11.24 43.36,11.53C43.26,11.83 43.24,12.19 43.3,12.49C43.36,12.8 43.4,12.93 43.73,13.35Z"/><path id="w18-arm-s5" d="M43.27,12.33C43.32,13.02 43.54,14.48 43.7,15.56C43.86,16.64 44.04,17.72 44.22,18.8C44.41,19.87 44.6,20.95 44.78,22.03C44.96,23.1 45.15,24.17 45.3,25.24C45.46,26.3 45.58,27.37 45.73,28.41C45.87,29.46 45.99,30.5 46.14,31.52C46.3,32.55 46.48,33.55 46.65,34.54C46.83,35.53 47.02,36.5 47.18,37.45C47.35,38.4 47.53,39.33 47.67,40.23C47.81,41.14 47.96,42.4 48.04,42.88C48.11,43.37 48.08,43.06 48.13,43.13C48.18,43.2 48.26,43.26 48.33,43.29C48.41,43.32 48.51,43.34 48.59,43.33C48.68,43.32 48.77,43.28 48.84,43.23C48.9,43.18 48.96,43.11 49,43.03C49.03,42.95 49.07,43.26 49.04,42.77C49.01,42.29 48.87,41.02 48.81,40.11C48.75,39.19 48.72,38.24 48.67,37.28C48.63,36.32 48.6,35.33 48.55,34.33C48.5,33.33 48.46,32.31 48.39,31.28C48.31,30.25 48.2,29.2 48.11,28.15C48.02,27.09 47.9,26.03 47.82,24.96C47.74,23.88 47.69,22.8 47.63,21.71C47.57,20.62 47.52,19.53 47.46,18.44C47.4,17.34 47.34,16.25 47.26,15.16C47.18,14.07 47.08,12.6 46.97,11.91C46.86,11.22 46.8,11.27 46.62,11.02C46.43,10.77 46.15,10.54 45.87,10.42C45.58,10.29 45.22,10.24 44.91,10.27C44.61,10.31 44.27,10.44 44.02,10.62C43.77,10.81 43.54,11.09 43.42,11.37C43.29,11.66 43.22,11.63 43.27,12.33Z"/><clipPath id="w18-arm-clip"><use href="#w18-arm-s0" /><use href="#w18-arm-s1" /><use href="#w18-arm-s2" /><use href="#w18-arm-s3" /><use href="#w18-arm-s4" /><use href="#w18-arm-s5" /></clipPath><mask id="w18-arm-rim" maskUnits="userSpaceOnUse" x="0" y="0" width="64" height="64"><rect width="64" height="64" fill="#000"/><use href="#w18-arm-s0" fill="#fff"/><use href="#w18-arm-s1" fill="#fff"/><use href="#w18-arm-s2" fill="#fff"/><use href="#w18-arm-s3" fill="#fff"/><use href="#w18-arm-s4" fill="#fff"/><use href="#w18-arm-s5" fill="#fff"/><g transform="translate(1.9,2.4)"><use href="#w18-arm-s0" fill="#000"/><use href="#w18-arm-s1" fill="#000"/><use href="#w18-arm-s2" fill="#000"/><use href="#w18-arm-s3" fill="#000"/><use href="#w18-arm-s4" fill="#000"/><use href="#w18-arm-s5" fill="#000"/></g></mask><mask id="w18-arm-core" maskUnits="userSpaceOnUse" x="0" y="0" width="64" height="64"><rect width="64" height="64" fill="#000"/><use href="#w18-arm-s0" fill="#fff"/><use href="#w18-arm-s1" fill="#fff"/><use href="#w18-arm-s2" fill="#fff"/><use href="#w18-arm-s3" fill="#fff"/><use href="#w18-arm-s4" fill="#fff"/><use href="#w18-arm-s5" fill="#fff"/><g transform="translate(-3.2,-4)"><use href="#w18-arm-s0" fill="#000"/><use href="#w18-arm-s1" fill="#000"/><use href="#w18-arm-s2" fill="#000"/><use href="#w18-arm-s3" fill="#000"/><use href="#w18-arm-s4" fill="#000"/><use href="#w18-arm-s5" fill="#000"/></g></mask></defs><use href="#w18-arm-s0" fill="#101010" stroke="#101010" stroke-width="0.85" stroke-linejoin="round" stroke-linecap="round"/><use href="#w18-arm-s1" fill="#101010" stroke="#101010" stroke-width="0.85" stroke-linejoin="round" stroke-linecap="round"/><use href="#w18-arm-s2" fill="#101010" stroke="#101010" stroke-width="0.85" stroke-linejoin="round" stroke-linecap="round"/><use href="#w18-arm-s3" fill="#101010" stroke="#101010" stroke-width="0.85" stroke-linejoin="round" stroke-linecap="round"/><use href="#w18-arm-s4" fill="#101010" stroke="#101010" stroke-width="0.85" stroke-linejoin="round" stroke-linecap="round"/><use href="#w18-arm-s5" fill="#101010" stroke="#101010" stroke-width="0.85" stroke-linejoin="round" stroke-linecap="round"/><use href="#w18-arm-s0" fill="url(#w18-vol)"/><use href="#w18-arm-s1" fill="url(#w18-vol)"/><use href="#w18-arm-s2" fill="url(#w18-vol)"/><use href="#w18-arm-s3" fill="url(#w18-vol)"/><use href="#w18-arm-s4" fill="url(#w18-vol)"/><use href="#w18-arm-s5" fill="url(#w18-vol)"/><g clip-path="url(#w18-arm-clip)"><g transform="translate(3.4,4.0)" opacity="0.26"><use href="#w18-arm-s0" fill="#3b3b3b"/><use href="#w18-arm-s1" fill="#3b3b3b"/><use href="#w18-arm-s2" fill="#3b3b3b"/><use href="#w18-arm-s3" fill="#3b3b3b"/><use href="#w18-arm-s4" fill="#3b3b3b"/><use href="#w18-arm-s5" fill="#3b3b3b"/></g><g transform="translate(6.6,7.6)" opacity="0.13"><use href="#w18-arm-s0" fill="#101010"/><use href="#w18-arm-s1" fill="#101010"/><use href="#w18-arm-s2" fill="#101010"/><use href="#w18-arm-s3" fill="#101010"/><use href="#w18-arm-s4" fill="#101010"/><use href="#w18-arm-s5" fill="#101010"/></g></g><g mask="url(#w18-arm-core)" opacity="0.2"><rect width="64" height="64" fill="#101010"/></g><g mask="url(#w18-arm-rim)" opacity="0.52"><rect width="64" height="64" fill="#fbfbfb"/></g><g clip-path="url(#w18-arm-clip)"></g><path d="M44.32,10.72Q46.92,8.72 48.32,7.32Q46.72,9.92 46.42,11.72Z" fill="#e2e2e2" stroke="#101010" stroke-width="0.7" stroke-linejoin="round"/></g>
</svg>